<svg width="15" height="15" viewBox="0 0 15 15" fill="none" xmlns="http://www.w3.org/2000/svg">
<path d="M12.4814 5.75977C12.8346 5.75977 13.1207 6.0457 13.1191 6.40039V12.7998C13.1191 13.8591 12.2584 14.7205 11.1992 14.7207H3.51953C2.46016 14.7207 1.59863 13.8592 1.59863 12.7998V6.40039C1.59863 6.04577 1.88466 5.75987 2.23926 5.75977C2.59395 5.75977 2.87988 6.04727 2.87988 6.40039V12.7998C2.87988 13.1529 3.16748 13.4403 3.52051 13.4404H11.2002C11.5533 13.4404 11.8408 13.1529 11.8408 12.7998V6.40039C11.8408 6.04577 12.1284 5.75987 12.4814 5.75977ZM5.76172 6.39844C6.11466 6.39865 6.40234 6.68763 6.40234 7.03906V10.8799C6.40224 11.2312 6.1146 11.5203 5.76172 11.5205C5.40866 11.5205 5.1212 11.2314 5.12109 10.8799V7.03906C5.12109 6.68594 5.40859 6.39844 5.76172 6.39844ZM8.96094 6.39844C9.31406 6.39844 9.60156 6.6875 9.60156 7.03906V10.8799C9.60146 11.2314 9.31243 11.5189 8.96094 11.5205C8.60805 11.5203 8.32042 11.2312 8.32031 10.8799V7.03906C8.32031 6.68607 8.60955 6.39865 8.96094 6.39844ZM9.60156 0C10.4827 0 11.2019 0.716976 11.2021 1.59961V2.87988H14.082C14.4334 2.88009 14.7207 3.16751 14.7207 3.52051C14.7206 3.87354 14.4316 4.16113 14.0801 4.16113H0.640625C0.287747 4.16092 0.000106456 3.87185 0 3.52051C0 3.16752 0.289242 2.8801 0.640625 2.87988H3.52051V1.59961C3.52072 0.716976 4.23841 0 5.12109 0H9.60156ZM5.12207 1.2793C4.94573 1.27941 4.80197 1.42329 4.80176 1.59961V2.87988H9.92188V1.59961C9.92166 1.42323 9.77799 1.2793 9.60156 1.2793H5.12207Z" fill="url(#paint0_linear_169_917)"/>
<defs>
<linearGradient id="paint0_linear_169_917" x1="5.1207" y1="8.95937" x2="9.60195" y2="8.95937" gradientUnits="userSpaceOnUse">
<stop stop-color="#9767FF"/>
<stop offset="0.5" stop-color="#217EFD"/>
</linearGradient>
</defs>
</svg>
