<svg width="11" height="14" viewBox="0 0 11 14" fill="none" xmlns="http://www.w3.org/2000/svg">
<path fill-rule="evenodd" clip-rule="evenodd" d="M2.125 0H10.5C10.7766 0 11 0.223437 11 0.5V11.875C11 11.9438 10.9438 12 10.875 12H10C9.93125 12 9.875 11.9438 9.875 11.875V1.125H2.125C2.05625 1.125 2 1.06875 2 1V0.125C2 0.05625 2.05625 0 2.125 0ZM0.5 2H8.5C8.77656 2 9 2.22344 9 2.5V13.5C9 13.7766 8.77656 14 8.5 14H3.20781C3.14844 14 3.09063 13.9891 3.03594 13.9688H2.97031V13.9391C2.92813 13.9156 2.88906 13.8875 2.85469 13.8531L0.146875 11.1453C0.053125 11.0516 0 10.925 0 10.7922V2.5C0 2.22344 0.223437 2 0.5 2ZM2.96875 12.3781L1.62344 11.0312H2.96875V12.3781ZM3.96875 12.875H7.875V3.125H1.125V10.0312H3.34375C3.68906 10.0312 3.96875 10.3109 3.96875 10.6562V12.875Z" fill="url(#paint0_linear_169_924)"/>
<defs>
<linearGradient id="paint0_linear_169_924" x1="0" y1="7" x2="11" y2="7" gradientUnits="userSpaceOnUse">
<stop stop-color="#9767FF"/>
<stop offset="0.5" stop-color="#217EFD"/>
</linearGradient>
</defs>
</svg>
