<svg width="17" height="18" viewBox="0 0 17 18" fill="none" xmlns="http://www.w3.org/2000/svg">
<path d="M16.2 6.3V17.0928C16.2009 17.2111 16.1786 17.3284 16.1342 17.438C16.0898 17.5476 16.0242 17.6474 15.9412 17.7316C15.8582 17.8159 15.7594 17.883 15.6504 17.929C15.5415 17.975 15.4246 17.9992 15.3063 18H0.8937C0.656832 18 0.429652 17.906 0.262077 17.7386C0.0945013 17.5712 0.000238534 17.3441 0 17.1072V0.8928C0 0.4095 0.4023 0 0.8982 0H9.9V5.4C9.9 5.63869 9.99482 5.86761 10.1636 6.0364C10.3324 6.20518 10.5613 6.3 10.8 6.3H16.2ZM16.2 4.5H11.7V0.00269997L16.2 4.5ZM4.5 4.5V6.3H7.2V4.5H4.5ZM4.5 8.1V9.9H11.7V8.1H4.5ZM4.5 11.7V13.5H11.7V11.7H4.5Z" fill="url(#paint0_linear_1_3074)"/>
<defs>
<linearGradient id="paint0_linear_1_3074" x1="0" y1="9" x2="16.2" y2="9" gradientUnits="userSpaceOnUse">
<stop stop-color="#9767FF"/>
<stop offset="0.5" stop-color="#217EFD"/>
</linearGradient>
</defs>
</svg>
