<svg width="18" height="18" viewBox="0 0 18 18" fill="none" xmlns="http://www.w3.org/2000/svg">
<path d="M4.83984 3.57715C4.98289 3.57727 5.12052 3.63322 5.22168 3.73438C5.32284 3.83554 5.37879 3.97316 5.37891 4.11621C5.37891 4.25921 5.32266 4.39682 5.22168 4.49805C5.12052 4.5992 4.98289 4.65612 4.83984 4.65625H4.10449C3.97945 4.65601 3.85487 4.68088 3.73926 4.72852C3.62378 4.77613 3.51917 4.84642 3.43066 4.93457C3.34208 5.02282 3.2717 5.12773 3.22363 5.24316C3.17561 5.35855 3.15063 5.48244 3.15039 5.60742V7.39746H15.0566V5.60742C15.0562 5.35552 14.9555 5.11368 14.7773 4.93555C14.5992 4.75742 14.3574 4.65673 14.1055 4.65625H13.4258C13.2826 4.65625 13.1452 4.59932 13.0439 4.49805C12.9427 4.39678 12.8857 4.25942 12.8857 4.11621C12.8859 3.97316 12.9428 3.83554 13.0439 3.73438C13.1452 3.63337 13.2828 3.57715 13.4258 3.57715H14.1055C14.6439 3.57762 15.1602 3.79129 15.541 4.17188C15.9218 4.55252 16.136 5.06899 16.1367 5.60742V13.7188C16.1362 14.2572 15.9226 14.7735 15.542 15.1543C15.1612 15.5351 14.6441 15.7495 14.1055 15.75H4.10449C3.56573 15.7502 3.04836 15.5368 2.66699 15.1562C2.28561 14.7755 2.07105 14.2586 2.07031 13.7197V5.60742C2.07103 5.06852 2.28559 4.55162 2.66699 4.1709C3.04838 3.79022 3.56563 3.57691 4.10449 3.57715H4.83984ZM3.15039 8.47754V13.7188C3.15051 13.8437 3.17474 13.9676 3.22266 14.083C3.27067 14.1985 3.34109 14.3042 3.42969 14.3926C3.51826 14.4809 3.62363 14.551 3.73926 14.5986C3.85491 14.6463 3.97941 14.6702 4.10449 14.6699H14.1055C14.3573 14.6694 14.5992 14.5696 14.7773 14.3916C14.9555 14.2135 15.0561 13.9716 15.0566 13.7197V8.47754H3.15039ZM6.10547 2.38477C6.24869 2.38477 6.38603 2.4417 6.4873 2.54297C6.58857 2.64424 6.64551 2.78159 6.64551 2.9248V5.55469C6.64548 5.69786 6.58855 5.83528 6.4873 5.93652C6.38604 6.03774 6.24865 6.09473 6.10547 6.09473C5.96229 6.09472 5.82489 6.03776 5.72363 5.93652C5.62239 5.83528 5.56546 5.69786 5.56543 5.55469V2.9248C5.56543 2.78161 5.62239 2.64423 5.72363 2.54297C5.82489 2.44171 5.96226 2.38478 6.10547 2.38477ZM12.1045 2.38477C12.2475 2.38489 12.3852 2.44181 12.4863 2.54297C12.5874 2.64421 12.6436 2.78171 12.6436 2.9248V5.55469C12.6435 5.69777 12.5875 5.8353 12.4863 5.93652C12.3852 6.03768 12.2475 6.0946 12.1045 6.09473C12.0336 6.09473 11.9629 6.0808 11.8975 6.05371C11.8319 6.02657 11.7718 5.98667 11.7217 5.93652C11.6716 5.88642 11.6326 5.82618 11.6055 5.76074C11.5784 5.69534 11.5645 5.62546 11.5645 5.55469V2.9248C11.5645 2.78171 11.6206 2.64421 11.7217 2.54297C11.8229 2.4417 11.9613 2.38477 12.1045 2.38477ZM10.7354 3.57617C10.8785 3.57624 11.016 3.63316 11.1172 3.73438C11.2184 3.8356 11.2753 3.97307 11.2754 4.11621C11.2754 4.25933 11.2183 4.3968 11.1172 4.49805C11.016 4.59926 10.8785 4.65618 10.7354 4.65625H7.40527C7.26206 4.65625 7.12471 4.59931 7.02344 4.49805C6.92217 4.39678 6.86523 4.25943 6.86523 4.11621C6.86528 3.97305 6.9222 3.83561 7.02344 3.73438C7.12469 3.63321 7.26213 3.57617 7.40527 3.57617H10.7354Z" fill="#9CA7BB"/>
</svg>
