<svg width="188" height="36" viewBox="0 0 188 36" fill="none" xmlns="http://www.w3.org/2000/svg">
<mask id="mask0_6798_30126" style="mask-type:alpha" maskUnits="userSpaceOnUse" x="0" y="3" width="30" height="30">
<rect x="30" y="3" width="30" height="30" transform="rotate(90 30 3)" fill="white"/>
</mask>
<g mask="url(#mask0_6798_30126)">
<path d="M20.2118 10.322C20.9628 10.6938 20.96 11.7659 20.2071 12.1337L7.0158 18.5776C6.09855 19.0257 5.17187 17.9848 5.72305 17.1255L9.8921 10.6263C10.2034 10.141 10.1462 9.50644 9.75309 9.08467L6.70736 5.81669C5.94196 4.99545 6.88761 3.7257 7.89369 4.22377L20.2118 10.322Z" fill="#29CB95"/>
<mask id="mask1_6798_30126" style="mask-type:alpha" maskUnits="userSpaceOnUse" x="5" y="4" width="16" height="15">
<path d="M20.2118 10.322C20.9628 10.6938 20.96 11.7659 20.2071 12.1337L7.0158 18.5776C6.09855 19.0257 5.17187 17.9848 5.72305 17.1255L9.8921 10.6263C10.2034 10.141 10.1462 9.50644 9.75309 9.08467L6.70736 5.81669C5.94196 4.99545 6.88761 3.7257 7.89369 4.22377L20.2118 10.322Z" fill="#29CB95"/>
</mask>
<g mask="url(#mask1_6798_30126)">
<path d="M23.7383 11.7528L23.2809 19.6866L3.91178 19.6866L3.91178 9.05566L23.7383 11.7528Z" fill="url(#paint0_linear_6798_30126)"/>
</g>
<path opacity="0.3" fill-rule="evenodd" clip-rule="evenodd" d="M20.4281 9.88429C21.5429 10.4362 21.5387 12.0275 20.421 12.5735L7.22974 19.0174C5.8682 19.6825 4.49265 18.1375 5.31081 16.862L9.47987 10.3628C9.67053 10.0655 9.63549 9.67685 9.39472 9.41852L6.34899 6.15054C5.21285 4.9315 6.61655 3.04673 8.10995 3.78605L20.4281 9.88429ZM19.9918 11.6948C20.38 11.5052 20.3815 10.9524 19.9942 10.7607L7.67608 4.66245C7.15732 4.40564 6.66972 5.06035 7.06437 5.4838L10.1101 8.75178C10.6555 9.33698 10.7349 10.2174 10.303 10.8908L6.13394 17.39C5.84973 17.8331 6.32756 18.3698 6.80051 18.1387L19.9918 11.6948Z" fill="#00E48B"/>
<path d="M26.4481 19.9655C27.2018 20.3345 27.2023 21.4085 26.449 21.7783L6.32523 31.6571C5.45262 32.0855 4.53819 31.154 4.98259 30.2895L10.4625 19.6287C10.6779 19.2097 10.6419 18.7055 10.3691 18.3213L5.88749 12.0099C5.2816 11.1566 6.21456 10.0586 7.15447 10.5188L26.4481 19.9655Z" fill="#217EFD"/>
<mask id="mask2_6798_30126" style="mask-type:alpha" maskUnits="userSpaceOnUse" x="4" y="10" width="24" height="22">
<path d="M26.4481 19.9655C27.2018 20.3345 27.2023 21.4085 26.449 21.7783L6.32523 31.6571C5.45262 32.0855 4.53819 31.154 4.98259 30.2895L10.4625 19.6287C10.6779 19.2097 10.6419 18.7055 10.3691 18.3213L5.88749 12.0099C5.2816 11.1566 6.21456 10.0586 7.15447 10.5188L26.4481 19.9655Z" fill="#217EFD"/>
</mask>
<g mask="url(#mask2_6798_30126)">
<path d="M29.6211 21.2496L29.6211 34.7039L3.18576 34.7039L3.18576 18.0635L29.6211 21.2496Z" fill="url(#paint1_linear_6798_30126)"/>
</g>
<path opacity="0.3" fill-rule="evenodd" clip-rule="evenodd" d="M26.6896 19.4692C27.8554 20.04 27.8563 21.7014 26.691 22.2734L6.56723 32.1522C5.21742 32.8149 3.80291 31.374 4.49034 30.0366L9.97027 19.3759C10.0914 19.1402 10.0712 18.8566 9.91772 18.6405L5.43611 12.329C4.49886 11.0091 5.94205 9.31068 7.39596 10.0226L26.6896 19.4692ZM26.2045 21.2823C26.5458 21.1147 26.5456 20.6281 26.2041 20.4609L6.91044 11.0142C6.48455 10.8056 6.0618 11.3032 6.33634 11.6898L10.818 18.0013C11.2101 18.5535 11.2619 19.2783 10.9522 19.8807L5.47231 30.5414C5.27094 30.9332 5.68529 31.3552 6.08069 31.1611L26.2045 21.2823Z" fill="#0068F7"/>
</g>
<path d="M68.44 8.28V10.728H51.256V17.352C51.16 22.392 50.344 26.448 48.76 29.496L46.792 27.744C48.016 25.248 48.664 21.792 48.712 17.352V8.28H68.44ZM67.672 15.384C67.624 22.008 67.288 25.968 66.64 27.288C65.968 28.584 64.84 29.256 63.232 29.256C62.44 29.256 61.48 29.208 60.376 29.136L59.704 26.808C60.904 26.856 61.864 26.904 62.632 26.952C63.712 26.904 64.384 26.4 64.648 25.392C64.936 24.408 65.104 21.816 65.152 17.64H60.352C60.016 20.184 59.416 22.344 58.528 24.072C57.28 26.424 55.288 28.224 52.504 29.472L51.112 27.264C53.8 25.92 55.6 24.264 56.536 22.296C57.112 20.952 57.544 19.416 57.784 17.64H52.528V15.384H58.024L58.096 13.992V11.592H60.616V13.992L60.568 15.384H67.672ZM73.312 10.2H80.944V7.32H83.464V10.2H90.928V19.296H83.344C83.104 21.264 82.552 22.92 81.688 24.288C84.904 25.848 88.648 26.712 92.92 26.904L92.272 29.424C87.616 29.184 83.512 28.104 80.008 26.232C78.28 27.696 75.88 28.824 72.784 29.592L71.344 27.336C73.96 26.712 76.048 25.872 77.584 24.768C76.12 23.76 74.776 22.608 73.552 21.312L75.592 19.896C76.744 21.096 78.04 22.128 79.432 23.04C80.128 22.032 80.584 20.784 80.8 19.296H73.312V10.2ZM88.456 16.896V12.6H83.464V16.896H88.456ZM80.944 16.896V12.6H75.76V16.896H80.944ZM117.4 22.752C117.16 25.224 116.8 26.856 116.32 27.624C115.864 28.344 114.88 28.728 113.344 28.728H107.08C105.496 28.728 104.728 27.912 104.728 26.304V15.408H113.152V10.608H103.744V8.208H115.552V17.808H107.176V25.296C107.176 25.968 107.512 26.328 108.184 26.376H112.936C113.752 26.376 114.28 26.04 114.472 25.416C114.664 24.792 114.808 23.64 114.904 21.936L117.4 22.752ZM98.272 7.44C99.784 8.616 101.08 9.792 102.16 10.944L100.432 12.696C99.52 11.592 98.2 10.416 96.496 9.168L98.272 7.44ZM94.936 14.376H100.648V24.504C101.416 23.88 102.232 23.184 103.096 22.392L103.768 25.008C102.136 26.448 100.384 27.72 98.536 28.848L97.576 26.592C98.008 26.232 98.224 25.8 98.224 25.296V16.776H94.936V14.376ZM122.032 7.992H136.336V15.744H140.392V18.024H136.672L138.568 19.584C137.32 21.12 135.904 22.344 134.32 23.208C136.096 24.504 138.16 25.632 140.512 26.64L139.24 28.848C135.88 27.264 133.168 25.368 131.104 23.136V26.976C131.104 28.656 130.36 29.52 128.896 29.52H126.088L125.536 27.168C126.4 27.264 127.24 27.336 128.056 27.336C128.416 27.336 128.608 27 128.608 26.376V23.232C126.256 25.296 123.472 27.144 120.28 28.8L119.272 26.472C122.872 24.84 125.968 22.92 128.608 20.664V18.024H119.632V15.744H133.792V14.088H122.848V11.928H133.792V10.248H122.032V7.992ZM122.632 18.384C124.024 19.344 125.2 20.304 126.16 21.264L124.528 22.896C123.688 21.984 122.512 21.024 120.976 19.968L122.632 18.384ZM136.624 18.024H131.104V20.376C131.56 20.88 132.064 21.36 132.616 21.84C134.152 20.928 135.496 19.656 136.624 18.024Z" fill="#222222"/>
<mask id="mask3_6798_30126" style="mask-type:alpha" maskUnits="userSpaceOnUse" x="158" y="3" width="30" height="30">
<rect width="30" height="30" transform="matrix(4.37114e-08 1 1 -4.37114e-08 158 3)" fill="white"/>
</mask>
<g mask="url(#mask3_6798_30126)">
<path d="M167.788 10.322C167.037 10.6938 167.04 11.7659 167.793 12.1337L180.984 18.5776C181.901 19.0257 182.828 17.9848 182.277 17.1255L178.108 10.6263C177.797 10.141 177.854 9.50644 178.247 9.08467L181.293 5.81669C182.058 4.99545 181.112 3.7257 180.106 4.22377L167.788 10.322Z" fill="#29CB95"/>
<mask id="mask4_6798_30126" style="mask-type:alpha" maskUnits="userSpaceOnUse" x="167" y="4" width="16" height="15">
<path d="M167.788 10.322C167.037 10.6938 167.04 11.7659 167.793 12.1337L180.984 18.5776C181.901 19.0257 182.828 17.9848 182.277 17.1255L178.108 10.6263C177.797 10.141 177.854 9.50644 178.247 9.08467L181.293 5.81669C182.058 4.99545 181.112 3.7257 180.106 4.22377L167.788 10.322Z" fill="#29CB95"/>
</mask>
<g mask="url(#mask4_6798_30126)">
<path d="M164.262 11.7528L164.719 19.6866L184.088 19.6866L184.088 9.05566L164.262 11.7528Z" fill="url(#paint2_linear_6798_30126)"/>
</g>
<path opacity="0.3" fill-rule="evenodd" clip-rule="evenodd" d="M167.572 9.88429C166.457 10.4362 166.461 12.0275 167.579 12.5735L180.77 19.0174C182.132 19.6825 183.507 18.1375 182.689 16.862L178.52 10.3628C178.329 10.0655 178.365 9.67685 178.605 9.41852L181.651 6.15054C182.787 4.9315 181.383 3.04673 179.89 3.78605L167.572 9.88429ZM168.008 11.6948C167.62 11.5052 167.619 10.9524 168.006 10.7607L180.324 4.66245C180.843 4.40564 181.33 5.06035 180.936 5.4838L177.89 8.75178C177.344 9.33698 177.265 10.2174 177.697 10.8908L181.866 17.39C182.15 17.8331 181.672 18.3698 181.199 18.1387L168.008 11.6948Z" fill="#00E48B"/>
<path d="M161.552 19.9655C160.798 20.3345 160.798 21.4085 161.551 21.7783L181.675 31.6571C182.547 32.0855 183.462 31.154 183.017 30.2895L177.537 19.6287C177.322 19.2097 177.358 18.7055 177.631 18.3213L182.113 12.0099C182.718 11.1566 181.785 10.0586 180.846 10.5188L161.552 19.9655Z" fill="#217EFD"/>
<mask id="mask5_6798_30126" style="mask-type:alpha" maskUnits="userSpaceOnUse" x="160" y="10" width="24" height="22">
<path d="M161.552 19.9655C160.798 20.3345 160.798 21.4085 161.551 21.7783L181.675 31.6571C182.547 32.0855 183.462 31.154 183.017 30.2895L177.537 19.6287C177.322 19.2097 177.358 18.7055 177.631 18.3213L182.113 12.0099C182.718 11.1566 181.785 10.0586 180.846 10.5188L161.552 19.9655Z" fill="#217EFD"/>
</mask>
<g mask="url(#mask5_6798_30126)">
<path d="M158.379 21.2496L158.379 34.7039L184.814 34.7039L184.814 18.0635L158.379 21.2496Z" fill="url(#paint3_linear_6798_30126)"/>
</g>
<path opacity="0.3" fill-rule="evenodd" clip-rule="evenodd" d="M161.31 19.4692C160.145 20.04 160.144 21.7014 161.309 22.2734L181.433 32.1522C182.783 32.8149 184.197 31.374 183.51 30.0366L178.03 19.3759C177.909 19.1402 177.929 18.8566 178.082 18.6405L182.564 12.329C183.501 11.0091 182.058 9.31068 180.604 10.0226L161.31 19.4692ZM161.795 21.2823C161.454 21.1147 161.454 20.6281 161.796 20.4609L181.09 11.0142C181.515 10.8056 181.938 11.3032 181.664 11.6898L177.182 18.0013C176.79 18.5535 176.738 19.2783 177.048 19.8807L182.528 30.5414C182.729 30.9332 182.315 31.3552 181.919 31.1611L161.795 21.2823Z" fill="#0068F7"/>
</g>
<defs>
<linearGradient id="paint0_linear_6798_30126" x1="20.8518" y1="11.6424" x2="9.62156" y2="10.2544" gradientUnits="userSpaceOnUse">
<stop stop-color="#00B176"/>
<stop offset="1" stop-color="#00B176" stop-opacity="0"/>
</linearGradient>
<linearGradient id="paint1_linear_6798_30126" x1="26.9082" y1="21.4231" x2="9.66841" y2="19.7196" gradientUnits="userSpaceOnUse">
<stop stop-color="#0050EC"/>
<stop offset="1" stop-color="#0050EC" stop-opacity="0"/>
</linearGradient>
<linearGradient id="paint2_linear_6798_30126" x1="167.148" y1="11.6424" x2="178.378" y2="10.2544" gradientUnits="userSpaceOnUse">
<stop stop-color="#00B176"/>
<stop offset="1" stop-color="#00B176" stop-opacity="0"/>
</linearGradient>
<linearGradient id="paint3_linear_6798_30126" x1="161.092" y1="21.4231" x2="178.332" y2="19.7196" gradientUnits="userSpaceOnUse">
<stop stop-color="#0050EC"/>
<stop offset="1" stop-color="#0050EC" stop-opacity="0"/>
</linearGradient>
</defs>
</svg>
