<svg width="18" height="18" viewBox="0 0 18 18" fill="none" xmlns="http://www.w3.org/2000/svg">
<path d="M8.04786 14.9014C4.19601 14.9014 1.13428 11.8397 1.13428 7.9878C1.13428 4.13595 4.19601 1.07422 8.04786 1.07422C11.8997 1.07422 14.9614 4.13595 14.9614 7.9878C14.9614 11.8397 11.8997 14.9014 8.04786 14.9014ZM8.04786 12.9261C10.8133 12.9261 12.9861 10.7532 12.9861 7.9878C12.9861 5.22237 10.8133 3.04953 8.04786 3.04953C5.28243 3.04953 3.10959 5.22237 3.10959 7.9878C3.10959 10.7532 5.28243 12.9261 8.04786 12.9261ZM13.875 12.9261L16.6405 15.6915L15.2577 17.0742L12.4923 14.3088L13.875 12.9261Z" fill="#9CA7BB"/>
</svg>
