<svg width="18" height="18" viewBox="0 0 18 18" fill="none" xmlns="http://www.w3.org/2000/svg">
<circle cx="9" cy="9" r="8" fill="#FAAD14" stroke="white" stroke-width="2"/>
<path d="M5.05078 7.79883C5.38226 7.79883 5.70016 7.93068 5.93457 8.16504C6.16894 8.39941 6.30073 8.71738 6.30078 9.04883C6.30078 9.21292 6.26882 9.37574 6.20605 9.52734C6.14325 9.67896 6.0506 9.81656 5.93457 9.93262C5.81851 10.0487 5.68093 10.1413 5.5293 10.2041C5.37764 10.2669 5.21493 10.2988 5.05078 10.2988C4.88663 10.2988 4.72392 10.2669 4.57227 10.2041C4.42063 10.1413 4.28305 10.0487 4.16699 9.93262C4.05097 9.81656 3.95831 9.67896 3.89551 9.52734C3.83274 9.37574 3.80078 9.21292 3.80078 9.04883C3.80083 8.71738 3.93262 8.39941 4.16699 8.16504C4.4014 7.93068 4.71931 7.79883 5.05078 7.79883ZM9.05078 7.79883C9.38226 7.79883 9.70016 7.93068 9.93457 8.16504C10.1689 8.39941 10.3007 8.71738 10.3008 9.04883C10.3008 9.21292 10.2688 9.37574 10.2061 9.52734C10.1433 9.67896 10.0506 9.81656 9.93457 9.93262C9.81851 10.0487 9.68093 10.1413 9.5293 10.2041C9.37764 10.2669 9.21493 10.2988 9.05078 10.2988C8.88663 10.2988 8.72392 10.2669 8.57227 10.2041C8.42063 10.1413 8.28305 10.0487 8.16699 9.93262C8.05097 9.81656 7.95831 9.67896 7.89551 9.52734C7.83274 9.37574 7.80078 9.21292 7.80078 9.04883C7.80083 8.71738 7.93262 8.39941 8.16699 8.16504C8.4014 7.93068 8.71931 7.79883 9.05078 7.79883ZM13.0508 7.79883C13.3823 7.79883 13.7002 7.93068 13.9346 8.16504C14.1689 8.39941 14.3007 8.71738 14.3008 9.04883C14.3008 9.21292 14.2688 9.37574 14.2061 9.52734C14.1433 9.67896 14.0506 9.81656 13.9346 9.93262C13.8185 10.0487 13.6809 10.1413 13.5293 10.2041C13.3776 10.2669 13.2149 10.2988 13.0508 10.2988C12.8866 10.2988 12.7239 10.2669 12.5723 10.2041C12.4206 10.1413 12.2831 10.0487 12.167 9.93262C12.051 9.81656 11.9583 9.67896 11.8955 9.52734C11.8327 9.37574 11.8008 9.21292 11.8008 9.04883C11.8008 8.71738 11.9326 8.39941 12.167 8.16504C12.4014 7.93068 12.7193 7.79883 13.0508 7.79883Z" fill="white"/>
</svg>
