<svg width="16" height="12" viewBox="0 0 16 12" fill="none" xmlns="http://www.w3.org/2000/svg">
<path d="M8.00004 0C9.93108 0 11.8949 0.80655 13.5068 2.10872C14.9971 3.31387 16.0001 4.80189 16.0001 5.99068C16.0001 7.18297 15.0556 8.67918 13.633 9.86445C12.0527 11.1806 10.0678 11.9814 7.99887 11.9814C5.93106 11.9814 3.94625 11.1806 2.36588 9.86445C0.943312 8.67801 0 7.18297 0 5.99068C0 4.80189 1.00293 3.31387 2.49212 2.10989C4.10522 0.805381 6.06899 0 8.00004 0ZM8.00004 1.75337C6.50383 1.75337 4.91411 2.40562 3.59558 3.47167C2.47576 4.37758 1.75337 5.45064 1.75337 5.99068C1.75337 6.56461 2.42666 7.63183 3.4892 8.5167C4.76916 9.58392 6.3659 10.228 8.00004 10.228C9.63301 10.228 11.2297 9.58392 12.5109 8.5167C13.5734 7.63183 14.2467 6.56461 14.2467 5.99068C14.2467 5.44947 13.5232 4.37758 12.4045 3.47284C11.0848 2.40562 9.49625 1.75337 8.00004 1.75337ZM8.03627 3.25075C8.76295 3.25075 9.45986 3.53942 9.9737 4.05325C10.4875 4.56709 10.7762 5.264 10.7762 5.99068C10.7762 6.71735 10.4875 7.41426 9.9737 7.9281C9.45986 8.44194 8.76295 8.73061 8.03627 8.73061C7.3096 8.73061 6.61269 8.44194 6.09885 7.9281C5.58501 7.41426 5.29634 6.71735 5.29634 5.99068C5.29634 5.264 5.58501 4.56709 6.09885 4.05325C6.61269 3.53942 7.3096 3.25075 8.03627 3.25075ZM8.03627 4.93164C7.8972 4.93164 7.75949 4.95904 7.631 5.01226C7.50251 5.06548 7.38576 5.14349 7.28742 5.24183C7.18908 5.34017 7.11107 5.45691 7.05785 5.5854C7.00463 5.71389 6.97724 5.8516 6.97724 5.99068C6.97724 6.12975 7.00463 6.26746 7.05785 6.39595C7.11107 6.52444 7.18908 6.64119 7.28742 6.73953C7.38576 6.83787 7.50251 6.91588 7.631 6.9691C7.75949 7.02232 7.8972 7.04971 8.03627 7.04971C8.31715 7.04971 8.58652 6.93814 8.78512 6.73953C8.98373 6.54092 9.09531 6.27155 9.09531 5.99068C9.09531 5.7098 8.98373 5.44043 8.78512 5.24183C8.58652 5.04322 8.31715 4.93164 8.03627 4.93164Z" fill="#9CA7BB"/>
</svg>
