<svg width="440" height="305" viewBox="0 0 452 316" fill="none" xmlns="http://www.w3.org/2000/svg" preserveAspectRatio="none">
<g filter="url(#filter0_d_4149_15278)">
<path fill-rule="evenodd" clip-rule="evenodd" d="M426 34C426 25.1634 418.837 18 410 18L66 18C43.9086 18 26 35.9086 26 58V266C26 274.837 33.1635 282 42 282H386C408.091 282 426 264.091 426 242V34Z" fill="url(#paint0_linear_4149_15278)" shape-rendering="crispEdges"/>
<path d="M66 17C43.3563 17 25 35.3563 25 58V266C25 275.389 32.6112 283 42 283H386C408.644 283 427 264.644 427 242V34C427 24.6112 419.389 17 410 17H66Z" stroke="url(#paint1_linear_4149_15278)" stroke-width="2" shape-rendering="crispEdges"/>
</g>
<defs>
<filter id="filter0_d_4149_15278" x="0" y="0" width="452" height="316" filterUnits="userSpaceOnUse" color-interpolation-filters="sRGB">
<feFlood flood-opacity="0" result="BackgroundImageFix"/>
<feColorMatrix in="SourceAlpha" type="matrix" values="0 0 0 0 0 0 0 0 0 0 0 0 0 0 0 0 0 0 127 0" result="hardAlpha"/>
<feOffset dy="8"/>
<feGaussianBlur stdDeviation="12"/>
<feComposite in2="hardAlpha" operator="out"/>
<feColorMatrix type="matrix" values="0 0 0 0 0.129412 0 0 0 0 0.494118 0 0 0 0 0.992157 0 0 0 0.08 0"/>
<feBlend mode="normal" in2="BackgroundImageFix" result="effect1_dropShadow_4149_15278"/>
<feBlend mode="normal" in="SourceGraphic" in2="effect1_dropShadow_4149_15278" result="shape"/>
</filter>
<linearGradient id="paint0_linear_4149_15278" x1="626" y1="143.858" x2="399.064" y2="504.481" gradientUnits="userSpaceOnUse">
<stop offset="0.378357" stop-color="white"/>
<stop offset="0.647007" stop-color="#E9F2FF"/>
<stop offset="1" stop-color="#EFE7FF"/>
</linearGradient>
<linearGradient id="paint1_linear_4149_15278" x1="426" y1="18" x2="177.768" y2="379.248" gradientUnits="userSpaceOnUse">
<stop stop-color="white"/>
<stop offset="1" stop-color="white" stop-opacity="0.4"/>
</linearGradient>
</defs>
</svg>
