<svg width="112" height="40" viewBox="0 0 112 40" fill="none" xmlns="http://www.w3.org/2000/svg">
<path d="M0 12.8C0 8.31958 0 6.07937 0.871948 4.36808C1.63893 2.86278 2.86278 1.63893 4.36808 0.871948C6.07937 0 8.31958 0 12.8 0H99.2C103.68 0 105.921 0 107.632 0.871948C109.137 1.63893 110.361 2.86278 111.128 4.36808C112 6.07937 112 8.31958 112 12.8V27.2C112 31.6804 112 33.9206 111.128 35.6319C110.361 37.1372 109.137 38.3611 107.632 39.1281C105.921 40 103.68 40 99.2 40H12.8C8.31958 40 6.07937 40 4.36808 39.1281C2.86278 38.3611 1.63893 37.1372 0.871948 35.6319C0 33.9206 0 31.6804 0 27.2V12.8Z" fill="url(#paint0_linear_4149_15231)"/>
<path d="M23.408 19.552H32.656V23.712H23.408V19.552ZM30.976 22.24V21.008H25.088V22.24H30.976ZM25.2 23.808C25.712 24.336 26.176 24.96 26.592 25.664H29.616C30.064 25.056 30.448 24.416 30.784 23.76L32.336 24.32C32.048 24.8 31.744 25.248 31.424 25.664H34.912V27.248H21.056V25.664H24.816C24.48 25.216 24.08 24.8 23.632 24.4L25.2 23.808ZM22.688 14.992C23.424 15.536 24.08 16.064 24.624 16.576C25.184 16.032 25.632 15.456 25.984 14.848H22.352V13.312H27.872V14.56C27.504 15.488 27.008 16.32 26.384 17.056H30.352C29.392 16 28.624 14.864 28.064 13.616L29.456 12.848C29.712 13.44 30.016 14 30.368 14.528C30.928 14.08 31.408 13.6 31.808 13.088L32.976 14.128C32.496 14.704 31.92 15.248 31.264 15.728C31.52 16.048 31.808 16.336 32.128 16.624C32.8 16.112 33.36 15.536 33.84 14.912L35.008 15.936C34.528 16.544 33.952 17.104 33.312 17.6C34.016 18.112 34.784 18.592 35.648 19.024L34.544 20.304C33.296 19.6 32.208 18.832 31.28 17.984V18.576H25.408V18.064C24.384 18.96 23.12 19.712 21.616 20.336L20.592 19.024C21.712 18.592 22.656 18.096 23.456 17.536C22.928 17.056 22.304 16.56 21.568 16.048L22.688 14.992ZM38.688 13.328H48.224V18.496H50.928V20.016H48.448L49.712 21.056C48.88 22.08 47.936 22.896 46.88 23.472C48.064 24.336 49.44 25.088 51.008 25.76L50.16 27.232C47.92 26.176 46.112 24.912 44.736 23.424V25.984C44.736 27.104 44.24 27.68 43.264 27.68H41.392L41.024 26.112C41.6 26.176 42.16 26.224 42.704 26.224C42.944 26.224 43.072 26 43.072 25.584V23.488C41.504 24.864 39.648 26.096 37.52 27.2L36.848 25.648C39.248 24.56 41.312 23.28 43.072 21.776V20.016H37.088V18.496H46.528V17.392H39.232V15.952H46.528V14.832H38.688V13.328ZM39.088 20.256C40.016 20.896 40.8 21.536 41.44 22.176L40.352 23.264C39.792 22.656 39.008 22.016 37.984 21.312L39.088 20.256ZM48.416 20.016H44.736V21.584C45.04 21.92 45.376 22.24 45.744 22.56C46.768 21.952 47.664 21.104 48.416 20.016ZM58 12.88H59.568L54.016 27.6H52.432L58 12.88ZM62.272 12.992C63.36 13.792 64.288 14.576 65.056 15.36L63.872 16.56C63.216 15.808 62.288 15.008 61.072 14.144L62.272 12.992ZM61.888 16.736C62.928 17.536 63.808 18.336 64.528 19.136L63.344 20.32C62.72 19.584 61.84 18.768 60.704 17.888L61.888 16.736ZM63.488 21.264L64.992 21.888C64.288 23.888 63.488 25.776 62.608 27.536L60.928 26.8C61.904 25.008 62.752 23.152 63.488 21.264ZM65.424 15.376H69.456C69.184 14.624 68.864 13.904 68.512 13.216L70.064 12.768C70.512 13.728 70.864 14.592 71.104 15.376H74.992V17.008H71.088V20.256H74.56V21.856H71.088V25.504H75.328V27.136H65.04V25.504H69.408V21.856H65.872V20.256H69.408V17.008H65.424V15.376ZM76.672 19.056H78.432V13.36H83.392V19.056H84.768V13.36H89.744V19.056H91.328V20.672H89.744V25.856C89.744 26.944 89.152 27.488 87.984 27.488H86.608L86.176 25.92C86.64 25.952 87.072 25.984 87.472 25.984C87.888 25.984 88.112 25.744 88.112 25.264V20.672H86.352V20.96C86.32 23.728 85.824 25.968 84.864 27.696L83.648 26.592C84.368 25.152 84.736 23.312 84.768 21.072V20.672H83.392V25.84C83.392 26.928 82.88 27.488 81.872 27.488H80.448L80 25.92C80.496 25.952 80.96 25.984 81.376 25.984C81.664 25.984 81.808 25.744 81.808 25.28V20.672H80.064V20.928C80.032 23.712 79.456 25.984 78.336 27.712L77.104 26.576C77.968 25.136 78.4 23.296 78.432 21.056V20.672H76.672V19.056ZM88.112 19.056V14.864H86.352V19.056H88.112ZM81.808 19.056V14.864H80.064V19.056H81.808Z" fill="white"/>
<defs>
<linearGradient id="paint0_linear_4149_15231" x1="0" y1="20" x2="112" y2="20" gradientUnits="userSpaceOnUse">
<stop stop-color="#9767FF"/>
<stop offset="0.5" stop-color="#217EFD"/>
</linearGradient>
</defs>
</svg>