<svg width="346" height="58" viewBox="0 0 346 58" fill="none" xmlns="http://www.w3.org/2000/svg">
<path d="M204.191 15.957C204.489 15.9573 204.725 16.208 204.707 16.5049L202.242 57.168C202.226 57.4404 202 57.6531 201.727 57.6533H195.315C195.018 57.6532 194.782 57.4023 194.8 57.1055L197.265 16.4424C197.281 16.1699 197.507 15.9572 197.78 15.957H204.191ZM165.143 2.51074C166.069 0.585226 168.765 0.583477 169.693 2.50781L188.537 53.9258C189.612 56.1552 187.274 58.4915 185.104 57.3564L158.341 43.3545C157.289 42.8041 156.023 42.8968 155.059 43.5938L139.214 55.0449C137.072 56.5926 134.316 54.2089 135.471 51.8076L165.143 2.51074ZM42.5898 27.7168H54.8428L54.2529 32.6973H42L41.6064 36.0381H53.2041L52.6143 40.8213H41.0176L40.5586 44.6221H55.1045L54.5146 49.6016H39.9033L39.0518 56.9404H33.1543L34.0059 49.6016H19.5908L20.1807 44.6221H34.6611L35.1201 40.8213H23.1299L23.7188 36.0381H35.71L36.1025 32.6973H22.9326L23.5225 27.7168H36.6924L37.2822 23.2617H43.1797L42.5898 27.7168ZM86.4902 0.326172C85.4419 2.81593 84.568 4.82568 83.8691 6.35449H118.531L117.744 12.3164H99.2676L97.957 22.0137L97.3672 24.9629H121.217L120.431 31.0557H98.415C101.516 35.7733 104.553 39.7055 107.523 42.8506C110.974 46.5634 115.146 50.1885 120.038 53.7266L112.896 56.9375C109.052 53.7488 105.622 50.3848 102.608 46.8467C99.5946 43.3086 96.69 39.2464 93.8945 34.6602C93.283 35.9269 92.4526 37.303 91.4043 38.7881C89.1329 42.0641 86.2058 45.2749 82.624 48.4199C79.0422 51.5649 75.1107 54.3823 70.8301 56.8721L64.54 53.4648C69.7819 50.3634 74.063 47.393 77.3828 44.5537C80.7463 41.6707 83.4765 38.7655 85.5732 35.8389C86.8399 34.0917 87.8009 32.4971 88.4561 31.0557H67.8164L68.6025 24.9629H90.6182L90.8799 23.7178L91.0771 22.4072C91.3829 20.4415 91.7101 17.995 92.0596 15.0684C92.1033 14.4568 92.213 13.5394 92.3877 12.3164H80.9863C79.8506 14.7188 78.2561 17.7547 76.2031 21.4238H68.7988C73.6474 13.1244 77.2081 6.0921 79.4795 0.326172H86.4902ZM319.529 9.62793C319.311 10.0211 318.284 11.6373 316.449 14.4766L315.729 15.5908H342.986L342.396 21.2256H311.797C309.7 24.1085 307.713 26.7518 305.835 29.1543H317.104L317.76 23.4531H324.443L323.788 29.1543H340.3L339.645 34.6582H323.133L322.412 40.6201H344.755L344.165 46.3867H321.691L320.512 56.6738H313.828L315.008 46.3867H290.699L291.354 40.6201H315.729L316.449 34.6582H301.444C300.44 34.6582 299.588 34.4831 298.89 34.1338C298.235 33.7844 297.776 33.3256 297.514 32.7578C297.339 32.452 297.251 32.0586 297.251 31.5781C297.251 30.6609 297.666 29.6999 298.496 28.6953C300.505 26.3802 302.493 23.8902 304.459 21.2256H301.326V21.2295H262.132C260.123 25.3354 257.24 30.3807 256.104 32.3027H249.749C250.972 30.3371 252.522 27.476 254.4 23.7197C256.104 20.2689 257.523 17.2105 258.659 14.5459H264.884L264.688 15.6006H296.268L296.269 15.5908H308.521C310.138 13.3194 311.426 11.3315 312.387 9.62793H319.529ZM269.209 34.9238C271.087 34.9239 272.485 35.426 273.402 36.4307C274.363 37.3916 274.757 38.7895 274.582 40.624L273.468 50.2559H279.496L278.906 55.6289H223.671L224.26 50.2559H229.109L230.288 40.2969C230.55 38.637 231.162 37.3262 232.123 36.3652C233.084 35.4042 234.395 34.9238 236.055 34.9238H269.209ZM19.6572 23.2617H13.8906L13.0391 30.4688H20.3125L19.6572 36.0381H12.3838L11.0732 46.915V47.1113C11.0732 47.8976 11.4449 48.1605 12.1875 47.8984C13.6726 47.3743 15.6162 46.5874 18.0186 45.5391L17.2324 52.0264L13.2354 53.5332C12.187 53.9263 10.7891 54.3633 9.04199 54.8438C8.73624 54.9311 8.32095 54.9746 7.79688 54.9746C6.66137 54.9745 5.78824 54.5593 5.17676 53.7295C4.6089 52.9432 4.41219 51.8509 4.58691 50.4531L6.35547 36.0381H0L0.655273 30.4688H7.01074L7.8623 23.2617H2.81738L3.47266 17.627H20.3125L19.6572 23.2617ZM235.006 50.2559H242.082L243.196 40.165H236.186L235.006 50.2559ZM247.586 50.2559H254.794L255.907 40.165H248.7L247.586 50.2559ZM260.232 50.2559H267.57L268.554 40.165H261.346L260.232 50.2559ZM166.201 19.1074C165.809 18.3372 164.67 18.3378 164.278 19.1084L153.822 35.0908C153.334 36.052 154.499 37.0063 155.404 36.3867L161.945 32.8496C162.353 32.5707 162.888 32.5336 163.332 32.7539L172.712 38.3584C173.628 38.8118 174.615 37.8773 174.162 36.9854L166.201 19.1074ZM274.45 33.0889H268.029L262.395 23.7197H268.554L274.45 33.0889ZM247.783 32.4336H241.82L243.917 14.6768H249.88L247.783 32.4336ZM235.792 31.6475H229.896L231.861 15.3975H237.758L235.792 31.6475ZM39.3789 0.0664062C38.2869 1.77 37.5662 2.86228 37.2168 3.34277H49.5352C50.6708 3.34278 51.6317 3.53949 52.418 3.93262C53.2479 4.32575 53.8598 4.87142 54.2529 5.57031C54.515 6.09449 54.6455 6.64112 54.6455 7.20898C54.6454 8.21353 54.2085 9.26163 53.335 10.3535C51.5003 12.5812 48.8362 14.8312 45.3418 17.1025C49.2731 18.9808 53.4664 20.5101 57.9219 21.6895L54.2529 26.1445C49.71 24.9214 44.9485 22.9553 39.9688 20.2471C34.5522 22.9117 29.332 24.8125 24.3086 25.9482L20.6396 21.7549C25.8813 20.4445 30.5769 18.8281 34.7266 16.9062C32.7173 15.5085 31.1672 14.3064 30.0752 13.3018L28.2402 15.5303H21.5566C26.2743 9.7206 29.9001 4.56563 32.4336 0.0664062H39.3789ZM33.1543 9.30566C35.382 11.2276 37.6319 12.8656 39.9033 14.2197C42.5242 12.6909 44.6426 11.1399 46.2588 9.56738C46.6518 9.21807 46.8485 8.93419 46.8486 8.71582C46.8486 8.36637 46.3682 8.19141 45.4072 8.19141H33.875L33.1543 9.30566ZM200.883 1.39941C201.118 0.958586 201.785 0.957842 202.009 1.39844L207.974 13.1777C208.232 13.6884 207.645 14.2238 207.112 13.9639L200.539 10.7559C200.281 10.6299 199.967 10.6511 199.727 10.8105L195.77 13.4336C195.235 13.7882 194.561 13.2425 194.854 12.6924L200.883 1.39941ZM12.3838 5.83301H22.9326L21.8848 11.5332H6.4209C4.97982 11.5331 4.25899 11.0089 4.25879 9.96094C4.25879 9.5678 4.36851 9.08642 4.58691 8.51855L7.53516 0.329102H13.9561L12.3838 5.83301ZM339.645 1.83105C341.872 1.83107 343.488 2.22448 344.493 3.01074C345.498 3.79702 346 5.01991 346 6.67969C346 7.20384 345.978 7.5973 345.935 7.85938L345.279 10.9746H338.596L339.251 7.66211H300.921L300.2 11.1055H293.386L294.106 7.79395C294.369 5.74105 294.98 4.23347 295.94 3.27246C296.901 2.31146 298.365 1.83105 300.331 1.83105H339.645ZM248.241 4.12793H262.395L262.919 0H268.946L268.423 4.12793H281.92L281.265 9.50098H227.667L228.322 4.12793H242.214L242.737 0H248.766L248.241 4.12793Z" fill="url(#paint0_linear_4149_15264)"/>
<defs>
<linearGradient id="paint0_linear_4149_15264" x1="2" y1="2.5" x2="346" y2="58" gradientUnits="userSpaceOnUse">
<stop stop-color="#9767FF"/>
<stop offset="0.8" stop-color="#217EFD"/>
</linearGradient>
</defs>
</svg>
