<svg width="40" height="40" viewBox="0 0 40 40" fill="none" xmlns="http://www.w3.org/2000/svg">
<mask id="mask0_4149_15234" style="mask-type:alpha" maskUnits="userSpaceOnUse" x="0" y="0" width="40" height="40">
<rect width="40" height="40" fill="white"/>
</mask>
<g mask="url(#mask0_4149_15234)">
<path d="M9.76333 13.052C10.2591 12.0507 11.6885 12.0545 12.1789 13.0584L20.7708 30.6467C21.3682 31.8697 19.9804 33.1053 18.8347 32.3704L10.169 26.8117C9.52198 26.3966 8.6759 26.4729 8.11354 26.997L3.75624 31.058C2.66125 32.0785 0.968255 30.8177 1.63235 29.4762L9.76333 13.052Z" fill="#29CB95"/>
<mask id="mask1_4149_15234" style="mask-type:alpha" maskUnits="userSpaceOnUse" x="1" y="12" width="20" height="21">
<path d="M9.76333 13.052C10.2591 12.0507 11.6885 12.0545 12.1789 13.0584L20.7708 30.6467C21.3682 31.8697 19.9804 33.1053 18.8347 32.3704L10.169 26.8117C9.52198 26.3966 8.6759 26.4729 8.11354 26.997L3.75624 31.058C2.66125 32.0785 0.968255 30.8177 1.63235 29.4762L9.76333 13.052Z" fill="#29CB95"/>
</mask>
<g mask="url(#mask1_4149_15234)">
<path d="M11.6714 8.34912L22.2497 8.95901V34.7845H8.0752L11.6714 8.34912Z" fill="url(#paint0_linear_4149_15234)"/>
</g>
<path opacity="0.3" fill-rule="evenodd" clip-rule="evenodd" d="M9.1797 12.7629C9.91554 11.2765 12.0374 11.2821 12.7654 12.7723L21.3572 30.3607C22.244 32.1761 20.1839 34.0101 18.4833 32.9192L9.81765 27.3605C9.42134 27.1063 8.90312 27.153 8.55868 27.474L4.20137 31.535C2.57599 33.0499 0.0629569 31.1783 1.04872 29.1871L9.1797 12.7629ZM11.5938 13.3446C11.3409 12.827 10.6038 12.825 10.3482 13.3414L2.21726 29.7656C1.87483 30.4572 2.74778 31.1074 3.31239 30.5812L7.66969 26.5202C8.44996 25.793 9.62389 25.6871 10.5217 26.263L19.1873 31.8217C19.7781 32.2007 20.4937 31.5636 20.1856 30.933L11.5938 13.3446Z" fill="#00E48B"/>
<path d="M22.6203 4.7365C23.1123 3.73164 24.5443 3.7309 25.0374 4.73526L38.2092 31.567C38.7803 32.7305 37.5384 33.9497 36.3856 33.3572L22.1713 26.0506C21.6126 25.7634 20.9403 25.8114 20.4281 26.1752L12.0128 32.1507C10.8751 32.9585 9.41114 31.7146 10.0247 30.4614L22.6203 4.7365Z" fill="#217EFD"/>
<mask id="mask2_4149_15234" style="mask-type:alpha" maskUnits="userSpaceOnUse" x="9" y="3" width="30" height="31">
<path d="M22.6203 4.7365C23.1123 3.73164 24.5443 3.7309 25.0374 4.73526L38.2092 31.567C38.7803 32.7305 37.5384 33.9497 36.3856 33.3572L22.1713 26.0506C21.6126 25.7634 20.9403 25.8114 20.4281 26.1752L12.0128 32.1507C10.8751 32.9585 9.41114 31.7146 10.0247 30.4614L22.6203 4.7365Z" fill="#217EFD"/>
</mask>
<g mask="url(#mask2_4149_15234)">
<path d="M24.3321 0.504395L42.2712 0.504395V35.7515H20.084L24.3321 0.504395Z" fill="url(#paint1_linear_4149_15234)"/>
</g>
<path opacity="0.3" fill-rule="evenodd" clip-rule="evenodd" d="M21.9593 4.41353C22.7204 2.85914 24.9355 2.858 25.6982 4.41161L38.87 31.2434C39.7535 33.0431 37.8323 34.9291 36.0492 34.0125L21.8349 26.706C21.5206 26.5444 21.1425 26.5714 20.8543 26.776L12.4391 32.7515C10.6792 34.0012 8.41457 32.0769 9.36374 30.1384L21.9593 4.41353ZM24.3767 5.06033C24.1533 4.60523 23.5044 4.60557 23.2815 5.06089L10.6859 30.7857C10.4079 31.3536 11.0712 31.9173 11.5867 31.5512L20.002 25.5757C20.7384 25.0529 21.7047 24.9838 22.5079 25.3967L36.7222 32.7033C37.2445 32.9718 37.8073 32.4193 37.5485 31.8921L24.3767 5.06033Z" fill="#0068F7"/>
</g>
<defs>
<linearGradient id="paint0_linear_4149_15234" x1="11.5242" y1="12.1977" x2="9.67351" y2="27.1714" gradientUnits="userSpaceOnUse">
<stop stop-color="#00B176"/>
<stop offset="1" stop-color="#00B176" stop-opacity="0"/>
</linearGradient>
<linearGradient id="paint1_linear_4149_15234" x1="24.5635" y1="4.12164" x2="22.2922" y2="27.108" gradientUnits="userSpaceOnUse">
<stop stop-color="#0050EC"/>
<stop offset="1" stop-color="#0050EC" stop-opacity="0"/>
</linearGradient>
</defs>
</svg>
