<svg width="121" height="20" viewBox="0 0 121 20" fill="none" xmlns="http://www.w3.org/2000/svg">
<path d="M70.4756 5.53613C70.773 5.53635 71.0092 5.78706 70.9912 6.08398L70.1768 19.5146C70.16 19.7871 69.9341 20 69.6611 20H68.1133C67.8158 20 67.5799 19.749 67.5977 19.4521L68.4121 6.02148C68.4286 5.74882 68.6546 5.53613 68.9277 5.53613H70.4756ZM57.2881 0.870117C57.6097 0.202766 58.5451 0.201929 58.8672 0.869141L65.4033 18.707C65.7761 19.4803 64.9657 20.29 64.2129 19.8965L54.9287 15.0391C54.564 14.8482 54.1245 14.8806 53.79 15.1221L48.293 19.0947C47.5499 19.6313 46.5944 18.8047 46.9951 17.9717L57.2881 0.870117ZM14.7744 9.61523H19.0244L18.8203 11.3428H14.5693L14.4336 12.502H18.4561L18.252 14.1611H14.2285L14.0693 15.4795H19.1152L18.9111 17.207H13.8418L13.5469 19.752H11.501L11.7969 17.207H6.7959L7 15.4795H12.0234L12.1826 14.1611H8.02344L8.22754 12.502H12.3877L12.5234 11.3428H7.95508L8.16016 9.61523H12.7285L12.9326 8.06934H14.9785L14.7744 9.61523ZM30.0029 0.112305C29.6392 0.976043 29.3362 1.67374 29.0938 2.2041H41.1182L40.8447 4.27246H34.4355L33.9805 7.63672L33.7764 8.65918H42.0498L41.7773 10.7734H34.1396C35.2155 12.4099 36.2694 13.7733 37.2998 14.8643C38.4969 16.1522 39.9435 17.4103 41.6406 18.6377L39.1631 19.751C37.8297 18.6449 36.6402 17.4783 35.5947 16.251C34.5492 15.0236 33.5411 13.6145 32.5713 12.0234C32.3592 12.4628 32.0715 12.94 31.708 13.4551C30.92 14.5916 29.9047 15.7058 28.6621 16.7969C27.4196 17.8879 26.0553 18.8648 24.5703 19.7285L22.3887 18.5469C24.207 17.471 25.6921 16.44 26.8438 15.4551C28.0103 14.4551 28.9573 13.4477 29.6846 12.4326C30.1239 11.8267 30.4573 11.2734 30.6846 10.7734H23.5254L23.7979 8.65918H31.4346L31.5264 8.22754L31.5938 7.77246C31.6998 7.0906 31.8143 6.24173 31.9355 5.22656C31.9507 5.01444 31.9883 4.69639 32.0488 4.27246H28.0938C27.6998 5.10584 27.1467 6.15889 26.4346 7.43164H23.8662C25.5482 4.55261 26.7833 2.11249 27.5713 0.112305H30.0029ZM110.845 3.33984C110.769 3.47657 110.412 4.03702 109.776 5.02148L109.526 5.4082H118.982L118.777 7.36328H108.163C107.436 8.3633 106.746 9.27992 106.095 10.1133H110.004L110.231 8.13574H112.55L112.322 10.1133H118.051L117.823 12.0225H112.095L111.845 14.0908H119.596L119.392 16.0908H111.595L111.186 19.6602H108.867L109.276 16.0908H100.844L101.071 14.0908H109.526L109.776 12.0225H104.571C104.223 12.0224 103.928 11.9619 103.686 11.8408C103.458 11.7196 103.299 11.5603 103.208 11.3633C103.147 11.2572 103.117 11.1208 103.117 10.9541C103.117 10.6359 103.261 10.3026 103.549 9.9541C104.246 9.15106 104.935 8.28753 105.617 7.36328H104.53V7.36426H90.9336C90.2365 8.78865 89.2367 10.5393 88.8428 11.2061H86.6377C87.062 10.5242 87.6004 9.53072 88.252 8.22754C88.8428 7.03076 89.3346 5.97005 89.7285 5.0459H91.8887L91.8203 5.41113H102.776V5.4082H107.026C107.587 4.62031 108.034 3.93078 108.367 3.33984H110.845ZM93.3887 12.1152C94.0401 12.1153 94.5246 12.2893 94.8428 12.6377C95.1761 12.9711 95.3126 13.4563 95.252 14.0928L94.8662 17.4336H96.957L96.7529 19.2979H77.5908L77.7959 17.4336H79.4775L79.8867 13.9785C79.9776 13.4028 80.1902 12.9486 80.5234 12.6152C80.8567 12.2819 81.3111 12.1153 81.8867 12.1152H93.3887ZM6.81836 8.06934H4.81836L4.52246 10.5693H7.0459L6.81836 12.502H4.2959L3.84082 16.2744V16.3428C3.84082 16.6155 3.96993 16.7062 4.22754 16.6152C4.74262 16.4334 5.41693 16.1614 6.25 15.7979L5.97754 18.0479L4.59082 18.5703C4.22721 18.7067 3.74263 18.8588 3.13672 19.0254C3.03065 19.0557 2.88594 19.0703 2.7041 19.0703C2.31031 19.0702 2.007 18.9265 1.79492 18.6387C1.59801 18.3659 1.53022 17.9868 1.59082 17.502L2.2041 12.502H0L0.226562 10.5693H2.43164L2.72754 8.06934H0.976562L1.2041 6.11426H7.0459L6.81836 8.06934ZM81.5234 17.4336H83.9785L84.3643 13.9336H81.9326L81.5234 17.4336ZM85.8877 17.4336H88.3877L88.7744 13.9336H86.2744L85.8877 17.4336ZM90.2744 17.4336H92.8203L93.1611 13.9336H90.6611L90.2744 17.4336ZM57.6553 6.62793C57.5193 6.36098 57.1244 6.36128 56.9883 6.62793L53.3613 12.1729C53.1921 12.5062 53.5953 12.8366 53.9092 12.6221L56.1787 11.3955C56.32 11.299 56.5061 11.2859 56.6602 11.3623L59.9141 13.3057C60.2319 13.4628 60.5741 13.1394 60.417 12.8301L57.6553 6.62793ZM95.207 11.4785H92.9795L91.0244 8.22754H93.1611L95.207 11.4785ZM85.9561 11.251H83.8877L84.6143 5.09082H86.6836L85.9561 11.251ZM81.7959 10.9785H79.751L80.4326 5.34082H82.4785L81.7959 10.9785ZM13.6602 0.0224609C13.2813 0.613419 13.0314 0.992485 12.9102 1.15918H17.1836C17.5775 1.15919 17.9109 1.22789 18.1836 1.36426C18.4713 1.50059 18.684 1.68934 18.8203 1.93164C18.9112 2.11337 18.956 2.30313 18.9561 2.5C18.9561 2.84853 18.805 3.21296 18.502 3.5918C17.8655 4.36456 16.9407 5.14471 15.7285 5.93262C17.0923 6.58418 18.5472 7.11431 20.0928 7.52344L18.8203 9.06934C17.2444 8.64506 15.5926 7.96289 13.8652 7.02344C11.9863 7.94776 10.1752 8.60699 8.43262 9.00098L7.15918 7.54688C8.97758 7.09228 10.6073 6.531 12.0469 5.86426C11.3498 5.37935 10.8115 4.96278 10.4326 4.61426L9.7959 5.38672H7.47754C9.11407 3.37136 10.3721 1.58323 11.251 0.0224609H13.6602ZM11.501 3.22754C12.2737 3.89422 13.0539 4.46289 13.8418 4.93262C14.751 4.40225 15.4862 3.86388 16.0469 3.31836C16.183 3.19732 16.2518 3.09915 16.252 3.02344C16.252 2.90227 16.085 2.84088 15.752 2.84082H11.751L11.501 3.22754ZM69.6865 0.485352C69.7684 0.332866 69.9986 0.332863 70.0762 0.485352L72.1455 4.57129C72.2347 4.74823 72.0324 4.9335 71.8477 4.84375L69.5664 3.73145C69.477 3.68798 69.3685 3.69491 69.2852 3.75L67.9121 4.66016C67.7267 4.78288 67.4935 4.59396 67.5947 4.40332L69.6865 0.485352ZM4.2959 2.02344H7.95508L7.5918 4.00098H2.22754C1.72751 4.00098 1.47757 3.81871 1.47754 3.45508C1.47754 3.31872 1.51508 3.15203 1.59082 2.95508L2.61328 0.113281H4.84082L4.2959 2.02344ZM117.823 0.634766C118.596 0.634777 119.156 0.771312 119.505 1.04395C119.853 1.3167 120.028 1.74156 120.028 2.31738C120.028 2.49872 120.02 2.63474 120.005 2.72559L119.778 3.80664H117.459L117.687 2.6582H104.39L104.14 3.85254H101.775L102.025 2.70312C102.116 1.99099 102.329 1.46812 102.662 1.13477C102.995 0.801406 103.504 0.634766 104.186 0.634766H117.823ZM86.1152 1.43164H91.0244L91.2061 0H93.2979L93.1162 1.43164H97.7979L97.5713 3.2959H78.9775L79.2051 1.43164H84.0234L84.2061 0H86.2969L86.1152 1.43164Z" fill="#217EFD"/>
</svg>
