<svg width="40" height="40" viewBox="0 0 40 40" fill="none" xmlns="http://www.w3.org/2000/svg">
<mask id="mask0_4149_14740" style="mask-type:alpha" maskUnits="userSpaceOnUse" x="0" y="0" width="40" height="40">
<rect width="40" height="40" fill="white"/>
</mask>
<g mask="url(#mask0_4149_14740)">
<path d="M9.76333 13.052C10.2591 12.0507 11.6885 12.0545 12.1789 13.0584L20.7708 30.6467C21.3682 31.8697 19.9804 33.1053 18.8347 32.3704L10.169 26.8117C9.52198 26.3966 8.6759 26.4729 8.11354 26.997L3.75624 31.058C2.66125 32.0785 0.968255 30.8177 1.63235 29.4762L9.76333 13.052Z" fill="#29CB95"/>
<mask id="mask1_4149_14740" style="mask-type:alpha" maskUnits="userSpaceOnUse" x="1" y="12" width="20" height="21">
<path d="M9.76333 13.052C10.2591 12.0507 11.6885 12.0545 12.1789 13.0584L20.7708 30.6467C21.3682 31.8697 19.9804 33.1053 18.8347 32.3704L10.169 26.8117C9.52198 26.3966 8.6759 26.4729 8.11354 26.997L3.75624 31.058C2.66125 32.0785 0.968255 30.8177 1.63235 29.4762L9.76333 13.052Z" fill="#29CB95"/>
</mask>
<g mask="url(#mask1_4149_14740)">
<path d="M11.6714 8.34888L22.2497 8.95876V34.7842H8.0752L11.6714 8.34888Z" fill="url(#paint0_linear_4149_14740)"/>
</g>
<path opacity="0.3" fill-rule="evenodd" clip-rule="evenodd" d="M9.17921 12.7629C9.91505 11.2765 12.0369 11.2821 12.7649 12.7723L21.3567 30.3607C22.2435 32.1761 20.1834 34.0101 18.4828 32.9192L9.81717 27.3605C9.42085 27.1063 8.90263 27.153 8.55819 27.474L4.20089 31.535C2.5755 33.0499 0.0624686 31.1783 1.04823 29.1871L9.17921 12.7629ZM11.5933 13.3446C11.3404 12.827 10.6034 12.825 10.3477 13.3414L2.21677 29.7656C1.87434 30.4572 2.7473 31.1074 3.3119 30.5812L7.6692 26.5202C8.44947 25.793 9.6234 25.6871 10.5212 26.263L19.1868 31.8217C19.7776 32.2007 20.4932 31.5636 20.1851 30.933L11.5933 13.3446Z" fill="#00E48B"/>
<path d="M22.6198 4.7365C23.1118 3.73164 24.5438 3.7309 25.0369 4.73526L38.2087 31.567C38.7798 32.7305 37.5379 33.9497 36.3851 33.3572L22.1708 26.0506C21.6121 25.7634 20.9398 25.8114 20.4276 26.1752L12.0123 32.1507C10.8746 32.9585 9.41066 31.7146 10.0243 30.4614L22.6198 4.7365Z" fill="#217EFD"/>
<mask id="mask2_4149_14740" style="mask-type:alpha" maskUnits="userSpaceOnUse" x="9" y="3" width="30" height="31">
<path d="M22.6198 4.7365C23.1118 3.73164 24.5438 3.7309 25.0369 4.73526L38.2087 31.567C38.7798 32.7305 37.5379 33.9497 36.3851 33.3572L22.1708 26.0506C21.6121 25.7634 20.9398 25.8114 20.4276 26.1752L12.0123 32.1507C10.8746 32.9585 9.41066 31.7146 10.0243 30.4614L22.6198 4.7365Z" fill="#217EFD"/>
</mask>
<g mask="url(#mask2_4149_14740)">
<path d="M24.3317 0.504395L42.2707 0.504395V35.7515H20.0835L24.3317 0.504395Z" fill="url(#paint1_linear_4149_14740)"/>
</g>
<path opacity="0.3" fill-rule="evenodd" clip-rule="evenodd" d="M21.9588 4.41329C22.7199 2.85889 24.935 2.85776 25.6977 4.41136L38.8695 31.2431C39.753 33.0429 37.8318 34.9289 36.0487 34.0123L21.8344 26.7057C21.5201 26.5442 21.142 26.5712 20.8538 26.7758L12.4386 32.7513C10.6787 34.0009 8.41408 32.0767 9.36325 30.1381L21.9588 4.41329ZM24.3762 5.06009C24.1528 4.60499 23.5039 4.60533 23.281 5.06065L10.6854 30.7855C10.4074 31.3534 11.0707 31.917 11.5863 31.551L20.0015 25.5755C20.7379 25.0526 21.7042 24.9836 22.5074 25.3965L36.7217 32.703C37.244 32.9715 37.8068 32.419 37.548 31.8918L24.3762 5.06009Z" fill="#0068F7"/>
</g>
<defs>
<linearGradient id="paint0_linear_4149_14740" x1="11.5242" y1="12.1975" x2="9.67351" y2="27.1712" gradientUnits="userSpaceOnUse">
<stop stop-color="#00B176"/>
<stop offset="1" stop-color="#00B176" stop-opacity="0"/>
</linearGradient>
<linearGradient id="paint1_linear_4149_14740" x1="24.563" y1="4.12164" x2="22.2917" y2="27.108" gradientUnits="userSpaceOnUse">
<stop stop-color="#0050EC"/>
<stop offset="1" stop-color="#0050EC" stop-opacity="0"/>
</linearGradient>
</defs>
</svg>
