<svg width="14" height="14" viewBox="0 0 14 14" fill="none" xmlns="http://www.w3.org/2000/svg">
<path d="M6.04938 12.0988C2.67901 12.0988 -2.02546e-08 9.41975 0 6.04938C2.02546e-08 2.67901 2.67901 -2.02546e-08 6.04938 0C9.41975 2.02546e-08 12.0988 2.67901 12.0988 6.04938C12.0988 9.41975 9.41975 12.0988 6.04938 12.0988ZM6.04938 10.3704C8.46914 10.3704 10.3704 8.46914 10.3704 6.04938C10.3704 3.62963 8.46914 1.72839 6.04938 1.72839C3.62963 1.72839 1.7284 3.62963 1.7284 6.04938C1.7284 8.46914 3.62963 10.3704 6.04938 10.3704ZM11.1481 10.3704L13.5679 12.7901L12.358 14L9.93827 11.5802L11.1481 10.3704Z" fill="#217EFD"/>
</svg>
