<svg width="320" height="53" viewBox="0 0 320 53" fill="none" xmlns="http://www.w3.org/2000/svg">
<path d="M0 13.3342C0 8.85376 0 6.61355 0.871948 4.90226C1.63893 3.39696 2.86278 2.17311 4.36808 1.40613C6.07937 0.53418 8.31958 0.53418 12.8 0.53418H307.2C311.68 0.53418 313.921 0.53418 315.632 1.40613C317.137 2.17311 318.361 3.39696 319.128 4.90226C320 6.61355 320 8.85376 320 13.3342V39.7342C320 44.2146 320 46.4548 319.128 48.1661C318.361 49.6714 317.137 50.8952 315.632 51.6622C313.921 52.5342 311.68 52.5342 307.2 52.5342H12.8C8.31958 52.5342 6.07937 52.5342 4.36808 51.6622C2.86278 50.8952 1.63893 49.6714 0.871948 48.1661C0 46.4548 0 44.2146 0 39.7342V13.3342Z" fill="url(#paint0_linear_4149_15362)"/>
<path d="M82.0409 18.6562H96.2969V20.4742H93.4709V24.6142H97.1969V26.4322H93.4709V34.1542H91.5809V26.4322H86.9189C86.7389 28.1962 86.3789 29.6902 85.8569 30.8962C85.1549 32.4082 84.0029 33.5782 82.4009 34.3882L81.3749 32.7862C82.8329 31.9402 83.8049 30.8782 84.3089 29.6182C84.6329 28.7182 84.8669 27.6562 85.0109 26.4322H81.1229V24.6142H85.1369C85.1369 24.5062 85.1549 24.4162 85.1549 24.3082V20.4742H82.0409V18.6562ZM87.0629 20.4742V24.3082C87.0629 24.4162 87.0449 24.5062 87.0449 24.6142H91.5809V20.4742H87.0629ZM114.045 27.2062V34.4782H112.209V33.6682H105.045V34.4782H103.209V27.2062H114.045ZM105.045 31.9042H112.209V28.9702H105.045V31.9042ZM112.389 21.2842H102.525V23.4802H112.389V21.2842ZM102.525 25.2082V25.9642C102.507 29.2582 101.715 32.1022 100.167 34.4962L98.6909 33.1642C99.9869 31.2922 100.653 28.8982 100.671 25.9642V19.5202H106.557C106.323 18.9262 106.071 18.3682 105.819 17.8642L107.781 17.5402C108.015 18.1342 108.249 18.8002 108.483 19.5202H114.261V25.2082H102.525ZM117.897 24.3982L116.745 23.6602C117.609 21.7882 118.203 19.8082 118.545 17.7022L120.363 18.0982C120.255 18.6022 120.165 19.1062 120.057 19.5922H122.757V21.3742H119.571C119.373 22.0222 119.157 22.6522 118.923 23.2462H122.901V24.9202H121.155V26.6122H123.387V28.3402H121.155V31.9042C121.731 31.7242 122.289 31.4902 122.865 31.2022L123.189 32.8582C122.109 33.3262 120.867 33.7222 119.463 34.0282L118.671 32.4262C119.103 32.2462 119.337 32.0122 119.337 31.6882V28.3402H117.069V26.6122H119.337V24.9202H117.897V24.3982ZM124.089 25.7842H127.581V24.6502H129.399V25.7842H132.873V27.4402H129.399V28.3942H132.459V30.0142H129.399V30.9682H133.431V32.6602H129.399V34.4962H127.581V32.6602H123.459V30.9682H127.581V30.0142H124.539V28.3942H127.581V27.4402H124.089V25.7842ZM126.321 17.6482L128.121 18.0622L127.689 18.8182H132.423V20.2222C131.955 21.1762 131.235 22.0222 130.227 22.7602C131.235 23.1202 132.387 23.4082 133.683 23.6422L133.035 25.2262C131.235 24.8842 129.705 24.4162 128.481 23.8042C127.239 24.3982 125.745 24.9022 124.017 25.3162L123.189 23.7862C124.593 23.5342 125.817 23.2102 126.861 22.8142C126.321 22.4182 125.871 22.0042 125.511 21.5362C125.079 21.9322 124.665 22.2922 124.233 22.6162L123.099 21.2302C124.323 20.3842 125.403 19.1962 126.321 17.6482ZM128.535 22.0042C129.345 21.5002 129.993 20.9422 130.461 20.3302H126.627C126.591 20.3662 126.555 20.4022 126.537 20.4382C127.041 21.0322 127.707 21.5542 128.535 22.0042ZM139.371 22.0222C138.723 23.1922 137.985 24.2002 137.157 25.0462L135.915 23.4982C137.121 22.1662 138.183 20.2582 139.101 17.7742L140.937 18.1702C140.721 18.8902 140.487 19.5742 140.235 20.2042H149.433V22.0222H144.159V23.8042C144.123 24.4882 144.069 25.1362 143.979 25.7482H150.783V27.5842H144.735C146.121 30.0322 148.281 31.7422 151.215 32.6782L150.171 34.3702C147.183 33.2542 144.915 31.2562 143.331 28.3402C143.007 29.2402 142.575 30.0322 142.071 30.7342C140.847 32.3542 138.867 33.5962 136.113 34.4602L135.087 32.8042C137.841 31.9042 139.695 30.7882 140.667 29.4562C141.027 28.8802 141.333 28.2502 141.567 27.5842H135.519V25.7482H142.035C142.143 25.1362 142.215 24.4882 142.251 23.8042V22.0222H139.371ZM163.059 19.6822H165.453L170.367 32.5342H168.117L166.947 29.3122H161.565L160.395 32.5342H158.145L163.059 19.6822ZM162.195 27.5842H166.317L164.301 21.9502H164.229L162.195 27.5842ZM171.622 19.6822H173.728V32.5342H171.622V19.6822ZM191.815 24.7942C191.275 25.6042 190.645 26.2882 189.961 26.8462L188.557 25.5322C189.799 24.4882 190.681 23.2462 191.221 21.8422L193.021 22.3102C192.913 22.5622 192.823 22.8142 192.733 23.0662H197.431V24.7942H191.815ZM182.887 22.6522H184.759V27.1702H182.887V22.6522ZM186.325 22.1122H188.179V27.7462H186.325V22.1122ZM193.435 25.0282C194.497 25.4782 195.469 26.0182 196.369 26.6482L195.217 27.9802C194.299 27.2602 193.309 26.6302 192.265 26.1082L193.435 25.0282ZM182.077 18.8182H185.983V17.7562H187.891V18.8182H192.067V17.7562H193.975V18.8182H197.881V20.5642H193.975V21.6622H192.067V20.5642H187.891V21.6442H185.983V20.5642H182.077V18.8182ZM196.369 28.2142V32.3002H198.169V33.9922H181.789V32.3002H183.589V28.2142H196.369ZM185.407 32.3002H187.225V29.9062H185.407V32.3002ZM189.007 32.3002H190.897V29.9062H189.007V32.3002ZM192.679 32.3002H194.551V29.9062H192.679V32.3002ZM201.211 22.3102H204.631C204.937 21.6802 205.243 21.0142 205.531 20.3122L207.313 20.7262C207.079 21.2842 206.845 21.8062 206.593 22.3102H214.765V24.0742H205.639C205.099 24.9562 204.523 25.7482 203.929 26.4502H207.619V24.6322H209.491V26.4502H214.351V28.1242H209.491V29.6722H215.773V31.5082H209.491V34.5322H207.619V31.5082H200.185V29.6722H207.619V28.1242H201.913L201.553 26.6302C202.291 25.9282 202.975 25.0822 203.623 24.0742H201.211V22.3102ZM215.395 18.3322V21.8422H213.541V20.0602H202.417V21.8242H200.563V18.3322H215.395Z" fill="white"/>
<path d="M232.159 27.8873C232.136 28.2719 231.637 28.4055 231.425 28.0839L230.18 26.1961C229.906 25.7812 229.539 25.4358 229.108 25.1873C228.678 24.9388 228.195 24.794 227.699 24.7644L225.442 24.6293C225.058 24.6062 224.924 24.1075 225.246 23.8952L227.133 22.6497C227.548 22.3757 227.893 22.0089 228.142 21.5782C228.39 21.1475 228.535 20.6649 228.565 20.1685L228.7 17.912C228.704 17.8279 228.735 17.7473 228.788 17.682C228.842 17.6166 228.914 17.5696 228.995 17.5478C229.077 17.526 229.163 17.5305 229.242 17.5605C229.32 17.5906 229.387 17.6448 229.434 17.7153L230.679 19.6031C230.953 20.0179 231.32 20.3633 231.75 20.6119C232.18 20.8604 232.663 21.0053 233.159 21.0351L235.416 21.17C235.501 21.1746 235.581 21.2057 235.646 21.2588C235.712 21.312 235.759 21.3844 235.781 21.4658C235.802 21.5471 235.798 21.6333 235.768 21.712C235.738 21.7907 235.684 21.8579 235.613 21.904L233.726 23.1495C233.311 23.4234 232.965 23.7901 232.717 24.2205C232.468 24.651 232.324 25.1335 232.294 25.6297L232.159 27.8873ZM237.754 32.236C237.751 32.2865 237.733 32.3347 237.701 32.3739C237.669 32.4131 237.625 32.4412 237.577 32.4543C237.528 32.4674 237.476 32.4647 237.429 32.4467C237.382 32.4288 237.341 32.3963 237.313 32.3541L236.566 31.2217C236.233 30.717 235.682 30.3989 235.078 30.3623L233.724 30.2813C233.673 30.2784 233.625 30.2596 233.586 30.2277C233.547 30.1958 233.519 30.1524 233.505 30.1036C233.492 30.0547 233.495 30.003 233.513 29.9558C233.531 29.9086 233.563 29.8682 233.606 29.8405L234.738 29.0932C234.987 28.9289 235.194 28.7089 235.343 28.4505C235.492 28.1922 235.579 27.9026 235.597 27.6049L235.678 26.2505C235.681 26.2001 235.7 26.1518 235.732 26.1126C235.763 26.0735 235.807 26.0453 235.856 26.0322C235.905 26.0192 235.956 26.0218 236.003 26.0398C236.051 26.0578 236.091 26.0902 236.119 26.1324L236.866 27.2649C237.03 27.5138 237.25 27.7211 237.509 27.8703C237.767 28.0194 238.057 28.1064 238.354 28.1242L239.709 28.2052C239.759 28.2081 239.807 28.2269 239.846 28.2588C239.886 28.2907 239.914 28.3342 239.927 28.383C239.94 28.4318 239.937 28.4835 239.919 28.5307C239.901 28.5779 239.869 28.6183 239.827 28.6461L238.694 29.3933C238.445 29.5576 238.238 29.7777 238.089 30.036C237.94 30.2943 237.853 30.5839 237.835 30.8816L237.754 32.236ZM230.492 35.3851C230.489 35.4184 230.477 35.4501 230.455 35.4759C230.434 35.5016 230.405 35.5201 230.373 35.5287C230.341 35.5373 230.307 35.5357 230.275 35.5241C230.244 35.5124 230.217 35.4913 230.198 35.4637L229.701 34.7094C229.478 34.3721 229.111 34.1598 228.707 34.136L227.805 34.0818C227.772 34.0794 227.74 34.0667 227.715 34.0454C227.689 34.0241 227.67 33.9954 227.662 33.9631C227.653 33.9309 227.655 33.8968 227.666 33.8655C227.678 33.8342 227.699 33.8073 227.727 33.7886L228.481 33.2906C228.647 33.181 228.785 33.0342 228.885 32.8618C228.984 32.6894 229.042 32.4962 229.054 32.2975L229.108 31.3953C229.111 31.362 229.123 31.3303 229.145 31.3045C229.166 31.2788 229.195 31.2603 229.227 31.2517C229.259 31.243 229.293 31.2447 229.325 31.2563C229.356 31.268 229.383 31.2891 229.402 31.3167L229.9 32.071C230.009 32.2372 230.156 32.3756 230.328 32.4751C230.501 32.5746 230.694 32.6326 230.893 32.6444L231.794 32.6989C231.827 32.7013 231.859 32.714 231.884 32.7353C231.91 32.7565 231.929 32.7853 231.937 32.8175C231.946 32.8498 231.944 32.8839 231.933 32.9152C231.921 32.9465 231.9 32.9734 231.872 32.9921L231.118 33.4901C230.781 33.7123 230.569 34.08 230.545 34.4832L230.492 35.3851Z" fill="white"/>
<defs>
<linearGradient id="paint0_linear_4149_15362" x1="0" y1="26.5342" x2="320" y2="26.5342" gradientUnits="userSpaceOnUse">
<stop stop-color="#9767FF"/>
<stop offset="0.5" stop-color="#217EFD"/>
</linearGradient>
</defs>
</svg>