<svg width="16" height="18" viewBox="0 0 16 18" fill="none" xmlns="http://www.w3.org/2000/svg">
<path d="M7.65911 10.3531C7.63603 10.7377 7.13744 10.8713 6.92513 10.5498L5.67965 8.66197C5.40566 8.24704 5.0388 7.90163 4.60816 7.65312C4.17751 7.40461 3.69491 7.25983 3.1986 7.23026L0.942269 7.0951C0.557651 7.072 0.424039 6.57336 0.745579 6.36104L2.63311 5.11554C3.04799 4.84155 3.39334 4.47467 3.6418 4.044C3.89026 3.61332 4.035 3.13069 4.06455 2.63434L4.19956 0.377794C4.20422 0.293671 4.23532 0.213169 4.28843 0.147773C4.34154 0.082377 4.41395 0.0354273 4.49532 0.0136237C4.57669 -0.00817998 4.66288 -0.00372377 4.74157 0.0263552C4.82026 0.0564341 4.88745 0.1106 4.93354 0.181125L6.17903 2.06891C6.45288 2.48375 6.81955 2.82913 7.25 3.07768C7.68045 3.32624 8.16286 3.47114 8.659 3.50091L10.9164 3.63578C11.0005 3.64044 11.081 3.67155 11.1464 3.72467C11.2118 3.77779 11.2587 3.8502 11.2806 3.93158C11.3024 4.01297 11.2979 4.09915 11.2678 4.17785C11.2378 4.25655 11.1836 4.32374 11.1131 4.36984L9.22556 5.61534C8.81077 5.88919 8.46545 6.25588 8.21694 6.68636C7.96844 7.11684 7.82358 7.59928 7.79384 8.09547L7.65911 10.3531ZM13.2543 14.7018C13.2513 14.7523 13.2326 14.8005 13.2007 14.8397C13.1688 14.8789 13.1253 14.907 13.0765 14.9201C13.0277 14.9332 12.976 14.9305 12.9288 14.9126C12.8816 14.8946 12.8412 14.8622 12.8135 14.8199L12.0662 13.6875C11.7326 13.1828 11.1818 12.8647 10.578 12.8281L9.22374 12.7471C9.17329 12.7442 9.12505 12.7255 9.08587 12.6936C9.04669 12.6616 9.01856 12.6182 9.00548 12.5694C8.9924 12.5206 8.99503 12.4689 9.01301 12.4216C9.03098 12.3744 9.06338 12.334 9.10561 12.3063L10.2379 11.559C10.4869 11.3947 10.6941 11.1747 10.8432 10.9163C10.9924 10.658 11.0793 10.3685 11.0971 10.0707L11.178 8.71634C11.1809 8.66589 11.1997 8.61764 11.2316 8.57846C11.2635 8.53928 11.3069 8.51115 11.3557 8.49807C11.4046 8.48499 11.4562 8.48763 11.5035 8.50561C11.5507 8.52359 11.5911 8.55599 11.6188 8.59822L12.366 9.73068C12.5304 9.97965 12.7504 10.1869 13.0087 10.3361C13.267 10.4853 13.5566 10.5722 13.8543 10.59L15.2085 10.671C15.259 10.6739 15.3072 10.6927 15.3464 10.7246C15.3856 10.7565 15.4137 10.8 15.4268 10.8488C15.4399 10.8976 15.4372 10.9493 15.4193 10.9965C15.4013 11.0438 15.3689 11.0841 15.3267 11.1119L14.1944 11.8591C13.9454 12.0234 13.7382 12.2435 13.589 12.5018C13.4399 12.7602 13.353 13.0497 13.3352 13.3475L13.2543 14.7018ZM5.99165 17.8509C5.98925 17.8842 5.97654 17.9159 5.95528 17.9417C5.93402 17.9674 5.90527 17.9859 5.87303 17.9945C5.84078 18.0032 5.80665 18.0015 5.77537 17.9899C5.74409 17.9782 5.71721 17.9571 5.69849 17.9295L5.20052 17.1752C4.97827 16.8379 4.61062 16.6257 4.20745 16.6018L3.30534 16.5476C3.27205 16.5452 3.24033 16.5325 3.21459 16.5112C3.18885 16.49 3.17038 16.4612 3.16174 16.429C3.1531 16.3967 3.15472 16.3626 3.16638 16.3313C3.17803 16.3 3.19915 16.2731 3.22678 16.2544L3.98094 15.7564C4.14711 15.6469 4.28545 15.5 4.38497 15.3276C4.48449 15.1553 4.54245 14.962 4.55425 14.7633L4.60838 13.8611C4.61077 13.8278 4.62349 13.7961 4.64475 13.7704C4.66601 13.7446 4.69476 13.7261 4.727 13.7175C4.75925 13.7089 4.79338 13.7105 4.82466 13.7221C4.85594 13.7338 4.88281 13.7549 4.90154 13.7826L5.3995 14.5368C5.50908 14.703 5.65589 14.8414 5.82828 14.9409C6.00066 15.0405 6.19388 15.0984 6.39258 15.1102L7.29361 15.1647C7.32691 15.1671 7.35863 15.1798 7.38437 15.2011C7.4101 15.2224 7.42857 15.2511 7.43722 15.2834C7.44586 15.3156 7.44424 15.3497 7.43258 15.381C7.42092 15.4123 7.39981 15.4392 7.37217 15.4579L6.61802 15.9559C6.28079 16.1781 6.06854 16.5458 6.0447 16.949L5.99165 17.8509Z" fill="white"/>
</svg>