<svg width="66" height="26" viewBox="0 0 66 26" fill="none" xmlns="http://www.w3.org/2000/svg">
<g filter="url(#filter0_d_4109_14456)">
<path d="M5 10.7241C5 6.45821 8.45821 3 12.7241 3H53C57.4183 3 61 6.58172 61 11C61 15.4183 57.4183 19 53 19H5V10.7241Z" fill="url(#paint0_linear_4109_14456)"/>
<path d="M53 2.5C57.6944 2.5 61.5 6.30558 61.5 11C61.5 15.6944 57.6944 19.5 53 19.5H4.5V10.7246C4.5 6.18254 8.18254 2.5 12.7246 2.5H53Z" stroke="url(#paint1_linear_4109_14456)"/>
</g>
<path d="M9.684 5.988H12.396V5.1H13.548V5.988H16.452V5.1H17.604V5.988H20.316V7.032H17.604V7.812H16.452V7.032H13.548V7.812H12.396V7.032H9.684V5.988ZM12.912 8.016L13.86 8.604C13.464 9.12 13.068 9.552 12.684 9.912C13.26 10.92 13.548 12.144 13.548 13.596C13.548 14.652 13.38 15.396 13.044 15.816C12.804 16.056 12.456 16.176 11.976 16.176C11.496 16.176 11.124 16.164 10.836 16.152L10.524 15.108C10.896 15.156 11.292 15.18 11.7 15.18C11.964 15.18 12.156 15.084 12.276 14.916C12.396 14.712 12.456 14.244 12.468 13.512C12.468 13.224 12.456 12.948 12.432 12.696C11.808 13.272 11.112 13.764 10.32 14.16L9.696 13.224C10.764 12.744 11.604 12.18 12.216 11.532C12.108 11.184 11.976 10.872 11.832 10.584C11.376 10.896 10.8 11.232 10.128 11.58L9.54 10.62C10.14 10.392 10.692 10.08 11.22 9.696C10.884 9.324 10.5 9.012 10.068 8.772L10.908 8.064C11.34 8.34 11.724 8.652 12.036 9.012C12.348 8.712 12.636 8.376 12.912 8.016ZM13.968 10.032H16.344C16.368 9.216 16.38 8.58 16.38 8.124H17.508C17.508 8.664 17.496 9.3 17.484 10.032H20.148V11.112H17.58C18.06 12.924 19.02 14.328 20.448 15.336L19.68 16.188C18.408 15.18 17.532 13.944 17.076 12.48C16.548 13.992 15.684 15.24 14.472 16.236L13.728 15.408C15.18 14.16 16.032 12.72 16.272 11.112H13.968V10.032ZM18.732 7.872C19.284 8.412 19.704 8.892 19.992 9.312L19.14 9.912C18.828 9.444 18.42 8.94 17.892 8.388L18.732 7.872ZM27.612 12.756V13.896L26.604 14.136V16.212H25.5V14.364C24.3 14.604 23.064 14.82 21.78 15.012L21.504 13.896L22.512 13.776V6.624H21.648V5.556H27.432V6.216H32.136V7.26C31.872 9.408 31.356 11.244 30.576 12.78C31.128 13.716 31.812 14.568 32.616 15.336L31.848 16.212C31.104 15.444 30.48 14.652 29.964 13.836C29.34 14.76 28.62 15.552 27.78 16.212L27 15.324C27.936 14.592 28.704 13.716 29.316 12.708C28.476 11.052 27.972 9.252 27.816 7.308H27.336V6.624H26.604V13.008C26.952 12.924 27.288 12.84 27.612 12.756ZM28.86 7.308C29.004 8.856 29.352 10.272 29.928 11.556C30.48 10.308 30.864 8.892 31.068 7.308H28.86ZM25.5 13.26V11.844H23.628V13.608C24.264 13.5 24.888 13.38 25.5 13.26ZM23.628 10.824H25.5V9.24H23.628V10.824ZM23.628 8.208H25.5V6.624H23.628V8.208ZM43.596 10.212H41.052V10.944H43.764V11.88H41.052V12.624H44.112V13.572H41.052V14.544H39.948V13.572H37.32V12.624H39.948V11.88H37.692V10.944H39.948V10.212H37.944V9.264H39.948V8.52H37.356V7.596H39.948V6.876H37.944V5.94H39.948V5.136H41.052V5.94H43.596V7.596H44.316V8.52H43.596V10.212ZM41.052 6.876V7.596H42.504V6.876H41.052ZM41.052 8.52V9.264H42.504V8.52H41.052ZM40.248 14.952C41.604 14.952 43.008 14.916 44.448 14.868L44.256 15.96H40.74C38.532 15.96 36.96 15.636 36.012 15.012C35.892 14.928 35.796 14.844 35.724 14.772C35.34 15.3 34.896 15.756 34.392 16.152L33.648 15.18C34.176 14.82 34.608 14.388 34.956 13.884C34.512 13.212 34.152 12.384 33.864 11.4L34.824 11.052C35.028 11.772 35.256 12.384 35.52 12.876C35.844 12.12 36.036 11.256 36.108 10.296H33.948V9.432C34.596 8.592 35.184 7.704 35.736 6.768H33.948V5.688H37.008V6.624C36.468 7.632 35.94 8.508 35.412 9.264H37.152V9.948C37.104 11.484 36.804 12.804 36.252 13.908C36.396 14.052 36.552 14.172 36.72 14.268C37.5 14.7 38.676 14.928 40.248 14.952ZM51.984 5.088C52.728 6.072 53.292 6.924 53.688 7.668L52.788 8.292C52.368 7.5 51.816 6.648 51.132 5.712L51.984 5.088ZM54.852 5.736L55.932 5.964C55.548 8.76 54.756 11.04 53.556 12.792C54.468 13.836 55.512 14.664 56.7 15.288L56.028 16.272C54.828 15.624 53.784 14.76 52.872 13.704C51.924 14.808 50.784 15.672 49.452 16.272L48.828 15.3C50.136 14.7 51.24 13.86 52.128 12.768C51 11.196 50.112 9.264 49.452 6.984L50.436 6.432C50.988 8.568 51.78 10.368 52.812 11.832C53.844 10.212 54.516 8.184 54.852 5.736ZM47.124 5.256C47.88 5.856 48.528 6.444 49.056 7.032L48.276 7.824C47.808 7.248 47.16 6.648 46.332 6.012L47.124 5.256ZM45.492 8.736H48.264V13.656C48.588 13.368 48.924 13.044 49.284 12.684L49.596 13.896C48.876 14.592 48.108 15.216 47.292 15.78L46.86 14.736C47.064 14.58 47.172 14.376 47.172 14.136V9.828H45.492V8.736Z" fill="#9C3502"/>
<defs>
<filter id="filter0_d_4109_14456" x="0" y="0" width="66" height="26" filterUnits="userSpaceOnUse" color-interpolation-filters="sRGB">
<feFlood flood-opacity="0" result="BackgroundImageFix"/>
<feColorMatrix in="SourceAlpha" type="matrix" values="0 0 0 0 0 0 0 0 0 0 0 0 0 0 0 0 0 0 127 0" result="hardAlpha"/>
<feOffset dy="2"/>
<feGaussianBlur stdDeviation="2"/>
<feComposite in2="hardAlpha" operator="out"/>
<feColorMatrix type="matrix" values="0 0 0 0 0 0 0 0 0 0.222579 0 0 0 0 0.658333 0 0 0 0.12 0"/>
<feBlend mode="normal" in2="BackgroundImageFix" result="effect1_dropShadow_4109_14456"/>
<feBlend mode="normal" in="SourceGraphic" in2="effect1_dropShadow_4109_14456" result="shape"/>
</filter>
<linearGradient id="paint0_linear_4109_14456" x1="57.5079" y1="3" x2="57.5079" y2="25" gradientUnits="userSpaceOnUse">
<stop stop-color="#FFC97A"/>
<stop offset="1" stop-color="#FFE8BA"/>
</linearGradient>
<linearGradient id="paint1_linear_4109_14456" x1="61.5989" y1="34" x2="52.1736" y2="-7.83597" gradientUnits="userSpaceOnUse">
<stop stop-color="#FCD07C"/>
<stop offset="1" stop-color="#FFA800"/>
</linearGradient>
</defs>
</svg>