<svg width="420" height="48" viewBox="0 0 420 48" fill="none" xmlns="http://www.w3.org/2000/svg">
<path fill-rule="evenodd" clip-rule="evenodd" d="M12.8 0C8.31957 0 6.07937 0 4.36808 0.871948C2.86278 1.63893 1.63893 2.86278 0.871948 4.36808C0 6.07937 0 8.31958 0 12.8V35.2C0 39.6804 0 41.9206 0.871948 43.6319C1.63893 45.1372 2.86278 46.3611 4.36808 47.1281C6.07937 48 8.31958 48 12.8 48H407.2C411.68 48 413.921 48 415.632 47.1281C417.137 46.3611 418.361 45.1372 419.128 43.6319C420 41.9206 420 39.6804 420 35.2V12.8C420 8.31958 420 6.07937 419.128 4.36808C418.361 2.86278 417.137 1.63893 415.632 0.871948C413.921 0 411.68 0 407.2 0H12.8Z" fill="url(#paint0_linear_4155_15483)"/>
<defs>
<linearGradient id="paint0_linear_4155_15483" x1="0" y1="24" x2="420" y2="24" gradientUnits="userSpaceOnUse">
<stop stop-color="#9767FF"/>
<stop offset="0.5" stop-color="#217EFD"/>
</linearGradient>
</defs>
</svg>
