<svg height="72" width="72" xmlns="http://www.w3.org/2000/svg"><path d="M60 8a4 4 0 014 4v29a1 1 0 01-1 1h-3a1 1 0 01-1-1V14a1 1 0 00-1-1H14a1 1 0 00-1 1v44a1 1 0 001 1h19a1 1 0 011 1v3a1 1 0 01-1 1H12a4 4 0 01-4-4V12a4 4 0 014-4zm-3.494 38.169l.104.07 10.36 7.97a1 1 0 01.094 1.502l-.094.083-10.36 7.969a1 1 0 01-1.603-.676L55 62.97V57.5l-14 .001a1 1 0 01-1-1v-3a1 1 0 011-1l14-.001v-5.468a1 1 0 01.134-.5l.073-.11a1 1 0 011.299-.253zM40 35a1 1 0 011 1v3a1 1 0 01-1 1H21a1 1 0 01-1-1v-3a1 1 0 011-1zm11-11a1 1 0 011 1v3a1 1 0 01-1 1H21a1 1 0 01-1-1v-3a1 1 0 011-1z" fill-rule="evenodd"/></svg>