<svg width="16" height="16" viewBox="0 0 16 16" fill="none" xmlns="http://www.w3.org/2000/svg">
<path fill-rule="evenodd" clip-rule="evenodd" d="M5.6899 7.88416H7.21419V1.08868C7.21419 1.00029 7.28845 0.927979 7.3792 0.927979H8.61679C8.70755 0.927979 8.7818 1.00029 8.7818 1.08868V7.88416H10.3102C10.4484 7.88416 10.5247 8.03883 10.4402 8.14328L8.13001 10.9916C8.064 11.074 7.93612 11.074 7.87011 10.9916L5.55995 8.14529C5.47538 8.03883 5.5517 7.88416 5.6899 7.88416ZM15.5492 10.29H14.3116C14.2209 10.29 14.1466 10.3623 14.1466 10.4507V13.5441H1.85325V10.4507C1.85325 10.3623 1.779 10.29 1.68824 10.29H0.450656C0.3599 10.29 0.285645 10.3623 0.285645 10.4507V14.428C0.285645 14.7835 0.580602 15.0708 0.94569 15.0708H15.0542C15.4193 15.0708 15.7142 14.7835 15.7142 14.428V10.4507C15.7142 10.3623 15.64 10.29 15.5492 10.29Z" fill="#217EFD"/>
</svg>