<svg width="88" height="22" viewBox="0 0 88 22" fill="none" xmlns="http://www.w3.org/2000/svg">
<rect width="88" height="22" rx="11" fill="white"/>
<g clip-path="url(#clip0_4180_15317)">
<path d="M18.0909 15.9091H19.4545C19.5992 15.9091 19.7379 15.9666 19.8402 16.0689C19.9425 16.1712 19.9999 16.3099 19.9999 16.4545C19.9999 16.5992 19.9425 16.7379 19.8402 16.8402C19.7379 16.9425 19.5992 17 19.4545 17H8.54545C8.4008 17 8.26209 16.9425 8.15981 16.8402C8.05754 16.7379 8.00008 16.5992 8.00008 16.4545C8.00008 16.3099 8.05754 16.1712 8.15981 16.0689C8.26209 15.9666 8.4008 15.9091 8.54545 15.9091H9.90909V10.7273C9.90909 8.468 11.7407 6.63636 14 6.63636C16.2593 6.63636 18.0909 8.468 18.0909 10.7273V15.9091ZM12.3975 12.6287L14.0319 12.6445L13.4897 14.0799L14.5103 14.4655L15.6045 11.5692L13.9662 11.5528L14.5108 10.1005L13.4892 9.71764L12.3975 12.6287ZM12.9091 5H15.0909V6.09091H12.9091V5ZM17.4713 5.98591L19.0141 7.52873L18.2425 8.30027L16.7 6.75745L17.4715 5.98591H17.4713ZM20 9.90909V12.0909H18.9091V9.90909H20ZM8 12.0909V9.90909H9.09091V12.0909H8ZM8.98591 7.52873L10.5287 5.98591L11.3003 6.75745L9.75745 8.3L8.98591 7.52873Z" fill="#1FAC78"/>
</g>
<path d="M35.69 10.904H26.898V15.034C26.898 15.65 27.22 15.972 27.864 15.972H34.892C35.228 15.972 35.508 15.888 35.718 15.72C35.998 15.468 36.18 14.572 36.264 13.032L37.244 13.34C37.104 15.076 36.866 16.112 36.53 16.476C36.222 16.77 35.76 16.924 35.172 16.952H27.584C26.45 16.952 25.89 16.364 25.89 15.216V7.866H26.898V9.938H34.668V6.284H25.33V5.304H35.69V10.904ZM39.568 5.402H50.474V6.382H48.136V10.092H51.202V11.058H48.136V17.26H47.114V11.058H43.068C42.942 12.5 42.676 13.69 42.256 14.642C41.724 15.818 40.842 16.728 39.61 17.372L39.064 16.504C40.198 15.86 40.996 15.006 41.444 13.942C41.738 13.13 41.934 12.178 42.046 11.058H38.812V10.092H42.102C42.102 9.91 42.116 9.742 42.116 9.602V6.382H39.568V5.402ZM43.152 6.382V9.602C43.152 9.77 43.138 9.938 43.138 10.092H47.114V6.382H43.152ZM58.412 5.136H65.356V6.088H62.514C62.444 6.634 62.346 7.152 62.234 7.656H64.88V14.25H63.928V8.552H59.882V14.25H58.93V7.656H61.268C61.38 7.152 61.464 6.62 61.52 6.088H58.412V5.136ZM62.892 14.25C63.928 15.062 64.796 15.874 65.496 16.686L64.796 17.386C64.18 16.602 63.326 15.762 62.248 14.88L62.892 14.25ZM61.38 9.35H62.36V11.87C62.318 13.368 61.982 14.558 61.352 15.44C60.736 16.266 59.742 16.91 58.356 17.386L57.81 16.532C59.14 16.098 60.078 15.524 60.61 14.796C61.086 14.04 61.352 13.074 61.38 11.87V9.35ZM54.114 6.9C54.492 7.264 54.842 7.614 55.15 7.95C55.654 7.404 56.116 6.774 56.536 6.074H53.008V5.136H57.614V5.934C57.04 6.97 56.41 7.852 55.738 8.594C56.004 8.902 56.228 9.182 56.424 9.434H58.02V10.05C57.796 11.142 57.516 11.996 57.208 12.612L56.382 12.29C56.634 11.758 56.872 11.128 57.068 10.372H55.584V16.224C55.584 16.952 55.22 17.33 54.52 17.33H53.176L52.98 16.42C53.4 16.462 53.806 16.49 54.198 16.49C54.478 16.49 54.632 16.322 54.632 15.986V10.372H52.616V9.434H55.332C54.786 8.79 54.128 8.09 53.372 7.362L54.114 6.9ZM67.022 5.15H68.716V4.52H69.556V5.15H71.082V4.52H71.922V5.15H73.602V5.892H71.922V6.522H71.082V5.892H69.556V6.522H68.828C68.8 6.634 68.758 6.746 68.716 6.858H73.154C73.154 8.482 73.042 9.476 72.846 9.84C72.79 9.938 72.72 10.022 72.65 10.078L73.196 9.994C73.336 10.26 73.462 10.554 73.602 10.89H79.048V11.632H66.966V10.89H72.65C72.538 10.652 72.412 10.442 72.3 10.274C72.118 10.33 71.922 10.372 71.698 10.386H71.124L71.012 10.008H68.184V8.09H71.166V9.728H71.516C71.824 9.7 72.02 9.574 72.104 9.322C72.174 9.07 72.216 8.468 72.23 7.544H68.436C68.128 8.16 67.722 8.678 67.218 9.098L66.672 8.426C67.33 7.894 67.778 7.18 68.016 6.284L68.716 6.396V5.892H67.022V5.15ZM70.396 9.448V8.636H68.94V9.448H70.396ZM74.596 7.334C74.344 7.684 74.05 8.006 73.742 8.286L73.182 7.586C74.008 6.802 74.568 5.752 74.862 4.436L75.786 4.604C75.716 4.884 75.646 5.136 75.562 5.388H78.894V6.228H78.11C77.9 7.208 77.508 8.006 76.948 8.636C77.578 9.014 78.334 9.336 79.202 9.602L78.74 10.414C77.76 10.092 76.934 9.7 76.29 9.252C75.604 9.756 74.778 10.134 73.812 10.358L73.434 9.546C74.302 9.35 75.016 9.07 75.59 8.678C75.142 8.258 74.82 7.81 74.596 7.334ZM75.226 6.228C75.17 6.326 75.128 6.41 75.1 6.494C75.296 7.11 75.674 7.656 76.234 8.132C76.724 7.6 77.06 6.956 77.228 6.228H75.226ZM68.674 12.29H77.452V12.906H68.674V12.29ZM68.674 13.55H77.452V14.166H68.674V13.55ZM77.9 14.852V17.512H76.92V17.092H69.234V17.512H68.254V14.852H77.9ZM69.234 16.406H76.92V15.524H69.234V16.406Z" fill="#1FAC78"/>
<defs>
<clipPath id="clip0_4180_15317">
<rect width="12" height="12" fill="white" transform="translate(8 5)"/>
</clipPath>
</defs>
</svg>