<svg width="801" height="102" viewBox="0 0 801 102" fill="none" xmlns="http://www.w3.org/2000/svg">
<path d="M799 101C617.869 80.7448 631.115 25.8935 645.054 0.999753L156.037 0.999745C207.439 53.3131 74.4513 90.3744 -1.09751e-05 101L799 101Z" fill="url(#paint0_linear_4188_14708)"/>
<path d="M227.026 101C245.423 84.566 283.24 33.1675 240.649 0.999755L156.215 0.999754C207.633 53.3129 74.6029 90.3742 0.127828 101L227.026 101Z" fill="url(#paint1_linear_4188_14708)"/>
<path d="M800.128 101C618.939 80.7448 632.19 25.8937 646.133 0.999997L540.523 0.999995C530.303 7.64334 523.148 73.7271 617.178 101L800.128 101Z" fill="url(#paint2_linear_4188_14708)"/>
<path d="M502 91.9998C435.65 69.4088 423.4 38.8634 446.193 0.999755L340.717 0.999753C352.43 18.2898 364.502 67.8849 297 91.9998L502 91.9998Z" fill="url(#paint3_linear_4188_14708)"/>
<path d="M0.127745 101C74.6402 90.3742 207.737 53.313 156.293 0.999756" stroke="url(#paint4_linear_4188_14708)"/>
<path d="M645.711 0.999753C631.762 25.8934 618.504 80.7446 799.784 101" stroke="url(#paint5_linear_4188_14708)"/>
<path d="M265 43.4998C265 33.2825 273.283 24.9998 283.5 24.9998H516.5C526.717 24.9998 535 33.2825 535 43.4998C535 53.717 526.717 61.9998 516.5 61.9998H283.5C273.283 61.9998 265 53.717 265 43.4998Z" fill="white"/>
<path d="M289.372 37.5018H290.786V38.2718H294.104V39.4478H290.786V40.0358H293.614V41.1838H290.786V41.7858H294.44V42.9898H285.76V41.7858H289.372V41.1838H286.74V40.0358H289.372V39.4478H286.152V38.2718H289.372V37.5018ZM288.098 46.5178V47.2038H292.102V46.5178H288.098ZM292.102 45.4258V44.7258H288.098V45.4258H292.102ZM288.098 48.3098V50.4518H286.726V43.5498H293.502V49.0098C293.502 49.9058 293.04 50.3678 292.13 50.3678H290.968L290.618 49.0938L291.724 49.1498C291.976 49.1498 292.102 48.9958 292.102 48.7018V48.3098H288.098ZM283.492 37.5998C284.374 38.2718 285.13 38.9578 285.76 39.6298L284.752 40.6378C284.22 39.9938 283.45 39.3218 282.456 38.5938L283.492 37.5998ZM281.504 41.6318H284.78V47.3438C285.116 47.0218 285.452 46.6718 285.802 46.3078L286.194 47.8478C285.354 48.6738 284.472 49.4158 283.548 50.0738L283.002 48.7578C283.24 48.5478 283.366 48.2818 283.366 47.9738V43.0318H281.504V41.6318ZM301.65 40.0778H305.528V37.4738H306.998V40.0778H308.398V41.4918H306.998V48.7298C306.998 49.8498 306.41 50.4098 305.234 50.4098H303.148L302.826 48.9818C303.498 49.0378 304.128 49.0798 304.73 49.0798C305.262 49.0798 305.528 48.8418 305.528 48.3658V41.4918H301.65V40.0778ZM296.876 41.0998C297.674 41.9678 298.416 42.8498 299.116 43.7178C299.536 42.6258 299.774 41.4358 299.844 40.1758H296.148V38.7618H301.118V39.8258C301.104 41.6738 300.74 43.3678 300.04 44.9218C300.572 45.6218 301.048 46.3078 301.496 47.0078L300.404 48.0998C300.068 47.5118 299.704 46.9238 299.284 46.3218C298.528 47.5118 297.548 48.6038 296.358 49.6118L295.518 48.3518C296.764 47.4138 297.744 46.3358 298.444 45.1318C297.688 44.1238 296.834 43.1018 295.882 42.0378L296.876 41.0998ZM302.672 42.8078C303.568 43.9278 304.268 44.9218 304.744 45.7758L303.596 46.5878C303.092 45.6918 302.42 44.6978 301.552 43.6198L302.672 42.8078ZM310.176 37.9358H314.544V46.6438H310.176V37.9358ZM313.158 45.3418V42.9338H311.604V45.3418H313.158ZM311.604 41.6178H313.158V39.2518H311.604V41.6178ZM315.398 42.6818H321.502V46.6438H315.398V42.6818ZM320.074 45.3698V43.9698H316.826V45.3698H320.074ZM316.98 39.3078H315.23V37.9358H321.866C321.81 39.7418 321.67 40.8758 321.446 41.3238C321.194 41.9538 320.69 42.2758 319.906 42.2898C319.598 42.2898 319.248 42.2618 318.856 42.2198L318.436 40.9598C318.94 41.0018 319.388 41.0298 319.752 41.0298C320.004 41.0158 320.158 40.8338 320.228 40.4978C320.312 40.3438 320.354 39.9518 320.382 39.3078H318.394C318.142 40.7638 317.176 41.8278 315.496 42.4998L314.726 41.2958C315.986 40.8898 316.728 40.2318 316.98 39.3078ZM310.89 47.0638L312.192 47.4138C311.912 48.6038 311.548 49.6538 311.114 50.5498L309.784 50.0598C310.204 49.2758 310.582 48.2678 310.89 47.0638ZM314.698 47.3158C314.95 48.1838 315.174 49.1218 315.37 50.1298L313.956 50.4798C313.788 49.3878 313.578 48.4358 313.354 47.6098L314.698 47.3158ZM317.666 47.1758C318.03 48.0718 318.366 49.0518 318.646 50.1018L317.232 50.4518C316.98 49.3318 316.672 48.3378 316.308 47.4698L317.666 47.1758ZM320.55 46.8818C321.306 47.9458 321.894 48.8838 322.3 49.6818L321.138 50.5078C320.718 49.6398 320.144 48.6598 319.416 47.5958L320.55 46.8818ZM328.586 37.5018H330.098V41.6598H335.278V43.0738H330.098V48.5478H336.314V49.9758H323.728V48.5478H328.586V37.5018ZM347.5 42.0238C348.718 43.6618 349.656 45.0898 350.314 46.3078L349.096 47.1618C348.466 45.8878 347.626 44.4878 346.59 42.9478V48.4638H345.162V42.7518C344.35 44.5578 343.398 46.0558 342.334 47.2458L341.368 46.0978C342.516 44.9498 343.524 43.3818 344.406 41.3658H341.55V40.0078H345.162V37.5858H346.59V40.0078H350.188V41.3658H346.59V42.5978L347.5 42.0238ZM338.89 37.6138C339.814 38.3418 340.598 39.0698 341.242 39.7978L340.206 40.8338C339.66 40.1338 338.89 39.3778 337.882 38.5658L338.89 37.6138ZM346.926 50.2278C346.17 50.2278 345.344 50.2138 344.462 50.1998C343.566 50.1858 342.838 50.1018 342.25 49.9618C341.69 49.7938 341.214 49.4718 340.808 48.9958C340.626 48.7578 340.458 48.6458 340.29 48.6458C340.024 48.6458 339.548 49.2618 338.848 50.5218L337.77 49.5278C338.47 48.4078 339.086 47.6938 339.646 47.3858V43.5498H337.798V42.2058H341.004V47.5398L341.144 47.6798C341.452 48.0438 341.774 48.3238 342.096 48.5058C342.502 48.7158 343.104 48.8278 343.916 48.8558C344.714 48.8698 345.652 48.8838 346.716 48.8838C347.416 48.8838 348.116 48.8698 348.844 48.8698C349.558 48.8418 350.104 48.8138 350.482 48.7858L350.132 50.2278H346.926ZM348.564 37.5018C348.97 38.0898 349.32 38.7058 349.628 39.3778L348.508 39.8818C348.172 39.1258 347.794 38.4678 347.388 37.8938L348.564 37.5018ZM355.158 40.3298H357.986C358.084 40.0078 358.168 39.6858 358.224 39.3638H353.968V43.3818C353.912 46.3078 353.45 48.6598 352.568 50.4378L351.462 49.4438C352.12 47.9878 352.456 45.9578 352.484 43.3818V37.9358H364.132V39.3638H359.68C359.61 39.6998 359.526 40.0218 359.428 40.3298H363.166V45.9858H360.072V49.0658C360.072 49.9618 359.596 50.4098 358.672 50.4098H357.258L356.936 48.9818C357.37 49.0378 357.776 49.0798 358.168 49.0798C358.448 49.0798 358.602 48.9538 358.602 48.7018V45.9858H355.158V40.3298ZM361.752 44.6698V43.7598H356.572V44.6698H361.752ZM356.572 42.5278H361.752V41.6598H356.572V42.5278ZM356.026 46.3218L357.3 46.9518C356.684 48.1558 355.97 49.1918 355.13 50.0738L353.926 49.2198C354.738 48.4078 355.438 47.4418 356.026 46.3218ZM362.2 46.3078C363.11 47.4558 363.81 48.4498 364.314 49.2898L363.096 50.1158C362.592 49.1918 361.892 48.1698 361.01 47.0498L362.2 46.3078ZM370.138 42.7938V43.9138H375.234V42.7938H370.138ZM375.234 45.1738H370.138V46.2658H375.234V45.1738ZM375.234 47.5258H370.138V50.4378H368.766V43.6058C368.08 44.3898 367.31 45.1318 366.47 45.8178L365.518 44.5718C367.1 43.3258 368.346 41.8978 369.27 40.3018H365.896V38.8878H369.97C370.18 38.3978 370.362 37.9078 370.516 37.4038L372.014 37.5858C371.874 38.0338 371.734 38.4678 371.58 38.8878H378.258V40.3018H370.964C370.74 40.7218 370.516 41.1278 370.278 41.5338H376.606V49.1218C376.606 49.9338 376.13 50.3398 375.192 50.3678H373.624L373.274 49.0518C373.792 49.0938 374.282 49.1218 374.73 49.1218C375.066 49.1218 375.234 48.9678 375.234 48.6598V47.5258ZM386.028 43.7738C385.44 45.1598 384.418 46.3498 382.962 47.3298L381.982 46.1398C383.48 45.1038 384.46 43.8438 384.908 42.3598C385.02 41.9398 385.118 41.4778 385.202 41.0018H381.772V50.4518H380.302V39.5878H385.384C385.44 38.9158 385.468 38.2158 385.468 37.4598H386.966C386.966 38.2158 386.938 38.9298 386.882 39.5878H391.698V48.6318C391.698 49.7238 391.194 50.2838 390.2 50.2838H388.002L387.61 48.8278L389.724 48.8978C390.06 48.8978 390.228 48.7018 390.228 48.3098V41.0018H386.728C386.658 41.4638 386.574 41.8978 386.476 42.3178C387.848 43.5778 389.01 44.8378 389.962 46.0698L388.828 47.2038C388.128 46.1258 387.19 44.9778 386.028 43.7738ZM400.42 37.4178C400.56 37.7538 400.686 38.1318 400.826 38.5518H405.95V41.2818H404.522V39.8958H395.478V41.3518H394.05V38.5518H399.272C399.132 38.2438 398.992 37.9498 398.838 37.6698L400.42 37.4178ZM399.482 41.9118H400.546C401.68 43.2558 403.626 44.4458 406.398 45.4538L405.628 46.6298C405.18 46.4618 404.774 46.3078 404.396 46.1398V50.4658H402.982V49.9898H397.172V50.4658H395.744V46.0698C395.282 46.2658 394.82 46.4618 394.358 46.6298L393.588 45.4538C396.136 44.5578 398.096 43.3678 399.482 41.9118ZM397.172 48.6738H402.982V46.8538H397.172V48.6738ZM396.766 45.5658H403.22C401.876 44.8518 400.812 44.0538 400.014 43.1578C399.09 44.0958 397.998 44.8938 396.766 45.5658ZM401.792 40.1618C403.472 41.0298 404.9 41.8838 406.048 42.7518L405.04 43.7458C404.06 42.9198 402.66 42.0238 400.868 41.0718L401.792 40.1618ZM398.18 40.1618L399.132 41.0158C397.942 42.0798 396.472 43.0038 394.736 43.7878L393.882 42.6538C395.59 41.9538 397.018 41.1138 398.18 40.1618ZM409.716 46.8818C410.094 46.8818 410.416 47.0358 410.668 47.3438C410.906 47.6518 411.032 48.0578 411.032 48.5478C411.032 49.2898 410.808 49.9338 410.388 50.4938C409.954 51.0398 409.366 51.4178 408.638 51.6278V50.7038C409.016 50.5638 409.338 50.3398 409.604 50.0318C409.842 49.6958 409.968 49.3738 409.968 49.0378C409.884 49.0658 409.772 49.0938 409.618 49.0938C409.31 49.0938 409.058 48.9818 408.848 48.7718C408.638 48.5618 408.54 48.2958 408.54 47.9878C408.54 47.6518 408.652 47.3858 408.876 47.1898C409.086 46.9798 409.366 46.8818 409.716 46.8818ZM422.974 41.5618H427.244V40.9598H421.938V39.7278H427.244V39.0558C425.914 39.1118 424.528 39.1678 423.072 39.2238L422.834 38.0618C426.46 37.9638 429.694 37.7818 432.522 37.5018L432.956 38.6778C431.64 38.7898 430.212 38.8878 428.7 38.9718V39.7278H434.034V40.9598H428.7V41.5618H432.984V46.4338H428.7V47.0918H433.544V48.2398H428.7V48.9258H434.244V50.1718H421.756V48.9258H427.244V48.2398H422.456V47.0918H427.244V46.4338H422.974V41.5618ZM431.57 45.2858V44.5298H428.7V45.2858H431.57ZM427.244 45.2858V44.5298H424.388V45.2858H427.244ZM424.388 43.4378H427.244V42.7098H424.388V43.4378ZM428.7 42.7098V43.4378H431.57V42.7098H428.7ZM447.488 37.5858L448.202 38.9018C447.012 39.2938 445.696 39.5318 444.254 39.6158V41.7858H448.496V43.1718H447.208V50.4658H445.766V43.1718H444.254V44.5018C444.184 46.9798 443.638 48.9538 442.616 50.4378L441.566 49.3318C442.35 48.1698 442.784 46.5598 442.84 44.5018V38.4258C444.576 38.3978 446.116 38.1178 447.488 37.5858ZM435.798 38.5658H438.22C438.052 38.2158 437.87 37.8938 437.674 37.5998L439.186 37.3478C439.354 37.7118 439.508 38.1178 439.676 38.5658H442.224V39.9098H435.798V38.5658ZM435.658 41.7438H437.086C436.918 41.2818 436.722 40.8478 436.498 40.4558L437.786 39.9658C437.996 40.4698 438.192 41.0578 438.388 41.7438H439.62C439.83 41.1698 440.012 40.5818 440.166 39.9658L441.468 40.4278C441.3 40.9038 441.132 41.3378 440.95 41.7438H442.308V43.0738H439.774V44.2078H442.07V45.5378H439.774V49.2058C439.774 50.0738 439.284 50.5078 438.318 50.5078H437.59L437.268 49.1638C437.478 49.2198 437.674 49.2618 437.842 49.2618C438.15 49.2618 438.318 49.1218 438.318 48.8558V45.5378H435.882V44.2078H438.318V43.0738H435.658V41.7438ZM436.666 46.0838L437.982 46.3638C437.66 47.7918 437.212 49.0238 436.624 50.0738L435.406 49.3038C436.008 48.2958 436.428 47.2178 436.666 46.0838ZM441.202 45.9998C441.538 46.8678 441.818 47.6658 442.014 48.3938L440.782 48.8698C440.572 48.0018 440.306 47.1478 439.998 46.3218L441.202 45.9998ZM454.054 38.3838H457.47L457.554 37.4178L458.968 37.6138L458.884 38.3838H462.048V39.6298H458.716C458.688 39.8398 458.646 40.0498 458.618 40.2458H461.348V46.6298H462.538V47.9178H459.92C460.816 48.3798 461.642 48.9258 462.398 49.5418L461.516 50.5498C460.69 49.8218 459.808 49.1778 458.856 48.6318L459.626 47.9178H456.476L457.302 48.6318C456.49 49.3598 455.496 50.0038 454.306 50.5638L453.452 49.4718C454.516 49.0238 455.426 48.5058 456.182 47.9178H453.564V46.9378C452.388 47.3998 451.156 47.7918 449.854 48.1138L449.49 46.6998C450.008 46.6158 450.526 46.5038 451.044 46.3638V42.1498H449.644V40.7778H451.044V37.5578H452.458V40.7778H453.732V42.1498H452.458V45.9438C452.878 45.7898 453.284 45.6218 453.676 45.4538V46.6298H454.768V40.2458H457.232C457.26 40.0218 457.302 39.8258 457.33 39.6298H454.054V38.3838ZM456.14 46.6298H459.976V46.0278H456.14V46.6298ZM456.14 45.0338H459.976V44.4598H456.14V45.0338ZM456.14 43.4798H459.976V42.9198H456.14V43.4798ZM456.14 41.9258H459.976V41.3658H456.14V41.9258ZM467.998 42.2898C467.858 42.7938 467.718 43.2698 467.578 43.7178H475.026C474.97 47.2458 474.746 49.2338 474.354 49.6818C473.962 50.1298 473.122 50.3678 471.848 50.3678H470.672L470.252 49.0098C470.84 49.0378 471.4 49.0518 471.904 49.0518C472.548 49.0518 472.968 48.9258 473.192 48.6878C473.388 48.4358 473.514 47.2178 473.556 45.0618H465.744C466.36 43.0178 466.822 41.2258 467.116 39.6718L468.558 39.8118C468.474 40.2038 468.404 40.5678 468.32 40.9178H473.822V42.2898H467.998ZM463.952 46.2798H472.408V47.6798H463.952V46.2798ZM475.782 37.9638V41.2538H474.34V39.3358H465.66V41.2398H464.218V37.9638H475.782ZM481.494 37.3338C481.914 38.0058 482.306 38.7478 482.698 39.5598L481.844 39.9798H485.288C485.736 39.1398 486.142 38.2578 486.506 37.3338L488.088 37.8938C487.752 38.6638 487.388 39.3638 486.996 39.9798H489.768V41.3938H487.178V44.2358H490.314V45.6498H487.178V50.3818H485.694V45.6498H482.236C482.068 46.4618 481.844 47.1758 481.564 47.7918C480.976 48.9818 480.038 49.9058 478.722 50.5498L477.868 49.1918C479.1 48.5478 479.926 47.7218 480.36 46.7418C480.5 46.4058 480.612 46.0418 480.71 45.6498H477.7V44.2358H480.962C481.018 43.7318 481.06 43.2138 481.074 42.6538V41.3938H478.274V39.9798H481.27C480.92 39.2518 480.542 38.5798 480.15 37.9778L481.494 37.3338ZM482.446 44.2358H485.694V41.3938H482.544V42.6538C482.53 43.2138 482.502 43.7318 482.446 44.2358ZM496.39 38.0198H504.09V39.3918H500.94V44.2498H504.524V45.6358H500.94V50.4658H499.512V45.6358H495.984V44.2498H499.512V39.3918H496.39V38.0198ZM502.564 39.8678L503.838 40.2038C503.558 41.5478 503.194 42.7098 502.76 43.7178L501.542 43.2838C501.934 42.3878 502.27 41.2398 502.564 39.8678ZM497.762 39.9098C498.126 40.9318 498.462 42.1078 498.756 43.4378L497.51 43.7458C497.258 42.5558 496.922 41.4218 496.516 40.3298L497.762 39.9098ZM493.492 37.5858C494.374 38.2718 495.13 38.9578 495.76 39.6298L494.752 40.6518C494.22 40.0078 493.45 39.3218 492.456 38.5938L493.492 37.5858ZM491.504 41.6318H494.836V47.3858C495.186 47.0638 495.564 46.6998 495.956 46.3078L496.362 47.8478C495.494 48.6738 494.584 49.4158 493.604 50.0738L493.058 48.7578C493.296 48.5478 493.422 48.2958 493.422 48.0018V43.0318H491.504V41.6318ZM508.416 37.3758L509.802 38.0198C509.438 39.1258 508.976 40.1758 508.416 41.1558V50.4798H506.946V43.3118C506.61 43.7318 506.246 44.1518 505.882 44.5438L505.392 42.9898C506.75 41.3938 507.758 39.5318 508.416 37.3758ZM509.466 40.1198H513.134V37.5158H514.618V40.1198H518.454V41.5338H514.618V44.0538H517.67V50.4518H516.228V49.9058H511.622V50.4518H510.166V44.0538H513.134V41.5338H509.466V40.1198ZM511.622 48.5058H516.228V45.4398H511.622V48.5058Z" fill="#222222"/>
<path d="M403.149 69.1262C403.748 66.8273 404.948 62.1837 404.948 61.9998L395.502 61.9998L397.077 69.1262L391.005 69.1262C392.804 69.8158 399.55 81.3101 400.225 81.9998C400.585 80.1607 406.222 72.6511 408.996 69.1262L403.149 69.1262Z" fill="url(#paint6_linear_4188_14708)"/>
<defs>
<linearGradient id="paint0_linear_4188_14708" x1="400.522" y1="0.999749" x2="400.522" y2="101" gradientUnits="userSpaceOnUse">
<stop stop-color="#217EFD" stop-opacity="0"/>
<stop offset="0.534441" stop-color="#217EFD" stop-opacity="0.19"/>
<stop offset="1" stop-color="#217EFD" stop-opacity="0.02"/>
</linearGradient>
<linearGradient id="paint1_linear_4188_14708" x1="-85.0887" y1="-3.5457" x2="-83.6672" y2="96.9105" gradientUnits="userSpaceOnUse">
<stop stop-color="white" stop-opacity="0"/>
<stop offset="0.246548" stop-color="#217EFD" stop-opacity="0.15"/>
<stop offset="0.731874" stop-color="#217EFD" stop-opacity="0.1"/>
<stop offset="1" stop-color="#217EFD" stop-opacity="0"/>
</linearGradient>
<linearGradient id="paint2_linear_4188_14708" x1="400.501" y1="-3.54545" x2="401.938" y2="95.9116" gradientUnits="userSpaceOnUse">
<stop stop-color="white" stop-opacity="0"/>
<stop offset="0.246548" stop-color="#217EFD" stop-opacity="0.15"/>
<stop offset="0.731874" stop-color="#217EFD" stop-opacity="0.1"/>
<stop offset="1" stop-color="#217EFD" stop-opacity="0"/>
</linearGradient>
<linearGradient id="paint3_linear_4188_14708" x1="232.988" y1="-3.13661" x2="234.609" y2="92.1009" gradientUnits="userSpaceOnUse">
<stop stop-color="white" stop-opacity="0"/>
<stop offset="0.246548" stop-color="#217EFD" stop-opacity="0.15"/>
<stop offset="0.731874" stop-color="#217EFD" stop-opacity="0.1"/>
<stop offset="1" stop-color="#217EFD" stop-opacity="0.02"/>
</linearGradient>
<linearGradient id="paint4_linear_4188_14708" x1="156.582" y1="-1.44779" x2="132.362" y2="128.158" gradientUnits="userSpaceOnUse">
<stop stop-color="#217EFD" stop-opacity="0"/>
<stop offset="0.483388" stop-color="#217EFD"/>
<stop offset="1" stop-color="#217EFD" stop-opacity="0"/>
</linearGradient>
<linearGradient id="paint5_linear_4188_14708" x1="638.217" y1="0.999754" x2="655.768" y2="115.156" gradientUnits="userSpaceOnUse">
<stop stop-color="#217EFD" stop-opacity="0"/>
<stop offset="0.483388" stop-color="#217EFD"/>
<stop offset="1" stop-color="#217EFD" stop-opacity="0"/>
</linearGradient>
<linearGradient id="paint6_linear_4188_14708" x1="400" y1="78.9998" x2="400" y2="61.9998" gradientUnits="userSpaceOnUse">
<stop stop-color="#217EFD"/>
<stop offset="1" stop-color="#217EFD" stop-opacity="0.39"/>
</linearGradient>
</defs>
</svg>