<svg width="15" height="18" viewBox="0 0 15 18" fill="none" xmlns="http://www.w3.org/2000/svg">
<path d="M7.09417 10.3531C7.07109 10.7377 6.5725 10.8713 6.36019 10.5498L5.1147 8.66197C4.84072 8.24704 4.47386 7.90163 4.04321 7.65312C3.61257 7.40461 3.12997 7.25983 2.63366 7.23026L0.377328 7.0951C-0.00729067 7.072 -0.140903 6.57336 0.180637 6.36104L2.06817 5.11554C2.48305 4.84155 2.8284 4.47467 3.07686 4.044C3.32532 3.61332 3.47006 3.13069 3.4996 2.63434L3.63462 0.377794C3.63928 0.293671 3.67038 0.213169 3.72349 0.147773C3.7766 0.082377 3.84901 0.0354273 3.93038 0.0136237C4.01175 -0.00817998 4.09793 -0.00372377 4.17663 0.0263552C4.25532 0.0564341 4.32251 0.1106 4.3686 0.181125L5.61409 2.06891C5.88794 2.48375 6.25461 2.82913 6.68506 3.07768C7.11551 3.32624 7.59792 3.47114 8.09406 3.50091L10.3515 3.63578C10.4356 3.64044 10.5161 3.67155 10.5815 3.72467C10.6469 3.77779 10.6938 3.8502 10.7156 3.93158C10.7374 4.01297 10.733 4.09915 10.7029 4.17785C10.6728 4.25655 10.6187 4.32374 10.5482 4.36984L8.66062 5.61534C8.24583 5.88919 7.90051 6.25588 7.652 6.68636C7.4035 7.11684 7.25864 7.59928 7.2289 8.09547L7.09417 10.3531ZM12.6893 14.7018C12.6864 14.7523 12.6677 14.8005 12.6357 14.8397C12.6038 14.8789 12.5604 14.907 12.5116 14.9201C12.4628 14.9332 12.4111 14.9305 12.3639 14.9126C12.3166 14.8946 12.2763 14.8622 12.2485 14.8199L11.5013 13.6875C11.1677 13.1828 10.6169 12.8647 10.013 12.8281L8.65879 12.7471C8.60835 12.7442 8.56011 12.7255 8.52093 12.6936C8.48175 12.6616 8.45362 12.6182 8.44054 12.5694C8.42746 12.5206 8.43009 12.4689 8.44807 12.4216C8.46604 12.3744 8.49844 12.334 8.54067 12.3063L9.67297 11.559C9.92191 11.3947 10.1292 11.1747 10.2783 10.9163C10.4274 10.658 10.5143 10.3685 10.5322 10.0707L10.6131 8.71634C10.616 8.66589 10.6347 8.61764 10.6666 8.57846C10.6986 8.53928 10.742 8.51115 10.7908 8.49807C10.8396 8.48499 10.8913 8.48763 10.9385 8.50561C10.9858 8.52359 11.0261 8.55599 11.0539 8.59822L11.8011 9.73068C11.9654 9.97965 12.1855 10.1869 12.4438 10.3361C12.7021 10.4853 12.9916 10.5722 13.2894 10.59L14.6436 10.671C14.694 10.6739 14.7423 10.6927 14.7815 10.7246C14.8206 10.7565 14.8488 10.8 14.8618 10.8488C14.8749 10.8976 14.8723 10.9493 14.8543 10.9965C14.8363 11.0438 14.8039 11.0841 14.7617 11.1119L13.6294 11.8591C13.3805 12.0234 13.1732 12.2435 13.0241 12.5018C12.875 12.7602 12.788 13.0497 12.7702 13.3475L12.6893 14.7018ZM5.42671 17.8509C5.42431 17.8842 5.4116 17.9159 5.39034 17.9417C5.36908 17.9674 5.34033 17.9859 5.30808 17.9945C5.27584 18.0032 5.2417 18.0015 5.21042 17.9899C5.17914 17.9782 5.15227 17.9571 5.13355 17.9295L4.63558 17.1752C4.41333 16.8379 4.04568 16.6257 3.64251 16.6018L2.7404 16.5476C2.70711 16.5452 2.67539 16.5325 2.64965 16.5112C2.62391 16.49 2.60544 16.4612 2.5968 16.429C2.58816 16.3967 2.58978 16.3626 2.60144 16.3313C2.61309 16.3 2.63421 16.2731 2.66184 16.2544L3.416 15.7564C3.58217 15.6469 3.72051 15.5 3.82003 15.3276C3.91955 15.1553 3.97751 14.962 3.98931 14.7633L4.04343 13.8611C4.04583 13.8278 4.05855 13.7961 4.0798 13.7704C4.10106 13.7446 4.12982 13.7261 4.16206 13.7175C4.1943 13.7089 4.22844 13.7105 4.25972 13.7221C4.291 13.7338 4.31787 13.7549 4.3366 13.7826L4.83456 14.5368C4.94414 14.703 5.09095 14.8414 5.26334 14.9409C5.43572 15.0405 5.62894 15.0984 5.82764 15.1102L6.72867 15.1647C6.76197 15.1671 6.79369 15.1798 6.81942 15.2011C6.84516 15.2224 6.86363 15.2511 6.87227 15.2834C6.88091 15.3156 6.87929 15.3497 6.86764 15.381C6.85598 15.4123 6.83487 15.4392 6.80723 15.4579L6.05308 15.9559C5.71585 16.1781 5.5036 16.5458 5.47976 16.949L5.42671 17.8509Z" fill="url(#paint0_linear_4121_19327)"/>
<defs>
<linearGradient id="paint0_linear_4121_19327" x1="1.43506" y1="2" x2="7.93506" y2="13.5" gradientUnits="userSpaceOnUse">
<stop stop-color="#9767FF"/>
<stop offset="1" stop-color="#217EFD"/>
</linearGradient>
</defs>
</svg>