<svg width="22" height="20" viewBox="0 0 22 20" fill="none" xmlns="http://www.w3.org/2000/svg">
<path d="M0 10C0 4.47715 4.47715 0 10 0H22V20H10C4.47715 20 0 15.5228 0 10Z" fill="url(#paint0_linear_4083_14636)"/>
<path d="M11.9998 8.89399L8.69946 12.2912C8.31069 12.6784 7.68037 12.6784 7.29159 12.2912C6.90281 11.904 6.9028 11.2761 7.29157 10.8888L11.2959 6.79045C11.6846 6.40319 12.315 6.40318 12.7037 6.79043L16.7084 10.8888C17.0972 11.2761 17.0972 11.9039 16.7084 12.2912C16.3197 12.6784 15.6893 12.6785 15.3006 12.2912L11.9998 8.89399Z" fill="white"/>
<defs>
<linearGradient id="paint0_linear_4083_14636" x1="3" y1="10" x2="22" y2="10" gradientUnits="userSpaceOnUse">
<stop stop-color="#9767FF"/>
<stop offset="1" stop-color="#217EFD"/>
</linearGradient>
</defs>
</svg>