<svg width="16" height="16" viewBox="0 0 16 16" fill="none" xmlns="http://www.w3.org/2000/svg">
<path d="M8.94165 1.00635C9.28446 1.00647 9.56274 1.2846 9.56274 1.62744C9.56257 1.97014 9.28436 2.24744 8.94165 2.24756H2.59595C2.41163 2.24756 2.26115 2.39787 2.26099 2.58252V13.4292C2.26108 13.6139 2.41122 13.7642 2.59595 13.7642H13.4417C13.6264 13.7642 13.7775 13.6139 13.7776 13.4292V6.49365C13.7776 6.15088 14.0553 5.87279 14.3977 5.87256C14.7406 5.87256 15.0188 6.15074 15.0188 6.49365V13.4302C15.0186 14.2995 14.311 15.0063 13.4417 15.0063H2.59595C1.72643 15.0063 1.0188 14.2991 1.0188 13.4292V2.5835C1.0188 1.71361 1.72679 1.00635 2.59595 1.00635H8.94165ZM13.803 1.22607C14.0455 0.983587 14.4384 0.983587 14.6809 1.22607C14.9231 1.46858 14.9233 1.86197 14.6809 2.104L7.92212 8.86182C7.86457 8.91949 7.79622 8.9654 7.72095 8.99658C7.6457 9.02773 7.56509 9.04354 7.48364 9.04346C7.32478 9.04346 7.16543 8.98306 7.04419 8.86182C6.80198 8.61936 6.80192 8.22594 7.04419 7.98389L13.803 1.22607Z" fill="#217EFD"/>
</svg>
