<svg width="24" height="24" viewBox="0 0 24 24" fill="none" xmlns="http://www.w3.org/2000/svg">
<g opacity="0.5">
<rect opacity="0.01" width="24" height="24" fill="black"/>
<path d="M12 0C18.6274 0 24 5.37258 24 12C24 18.6274 18.6274 24 12 24C5.37258 24 0 18.6274 0 12C0 5.37258 5.37258 0 12 0Z" fill="url(#paint0_linear_1_614)"/>
<path d="M11.1417 5.80644C11.3417 5.39809 11.9236 5.39779 12.1239 5.80593L17.4766 16.7096C17.7087 17.1824 17.204 17.6779 16.7356 17.4371L10.9593 14.4679C10.7322 14.3512 10.459 14.3707 10.2509 14.5185L6.83113 16.9468C6.36879 17.2751 5.77387 16.7696 6.02322 16.2603L11.1417 5.80644Z" fill="white"/>
</g>
<defs>
<linearGradient id="paint0_linear_1_614" x1="0" y1="12" x2="24" y2="12" gradientUnits="userSpaceOnUse">
<stop stop-color="#9767FF"/>
<stop offset="0.5" stop-color="#217EFD"/>
</linearGradient>
</defs>
</svg>
