<svg width="16" height="12" viewBox="0 0 16 12" fill="none" xmlns="http://www.w3.org/2000/svg">
<path d="M7.99997 0C9.931 0 11.8948 0.806543 13.5067 2.1087C14.997 3.31384 15.9999 4.80186 15.9999 5.99063C15.9999 7.18291 15.0555 8.67911 13.6329 9.86438C12.0526 11.1806 10.0678 11.9813 7.99881 11.9813C5.93102 11.9813 3.94622 11.1806 2.36586 9.86438C0.943305 8.67794 0 7.18291 0 5.99063C0 4.80186 1.00292 3.31384 2.4921 2.10987C4.10519 0.805374 6.06895 0 7.99997 0ZM7.99997 1.75336C6.50378 1.75336 4.91407 2.4056 3.59555 3.47164C2.47574 4.37754 1.75335 5.4506 1.75335 5.99063C1.75335 6.56456 2.42664 7.63177 3.48918 8.51663C4.76913 9.58384 6.36585 10.2279 7.99997 10.2279C9.63293 10.2279 11.2297 9.58384 12.5108 8.51663C13.5733 7.63177 14.2466 6.56456 14.2466 5.99063C14.2466 5.44943 13.523 4.37754 12.4044 3.47281C11.0847 2.4056 9.49617 1.75336 7.99997 1.75336ZM8.03621 3.25072C8.76288 3.25072 9.45979 3.53939 9.97362 4.05322C10.4875 4.56705 10.7761 5.26396 10.7761 5.99063C10.7761 6.7173 10.4875 7.41421 9.97362 7.92804C9.45979 8.44187 8.76288 8.73054 8.03621 8.73054C7.30954 8.73054 6.61263 8.44187 6.0988 7.92804C5.58497 7.41421 5.2963 6.7173 5.2963 5.99063C5.2963 5.26396 5.58497 4.56705 6.0988 4.05322C6.61263 3.53939 7.30954 3.25072 8.03621 3.25072ZM8.03621 4.9316C7.89714 4.9316 7.75943 4.959 7.63094 5.01222C7.50245 5.06544 7.38571 5.14345 7.28737 5.24179C7.18903 5.34013 7.11102 5.45687 7.0578 5.58536C7.00458 5.71385 6.97718 5.85156 6.97718 5.99063C6.97718 6.1297 7.00458 6.26741 7.0578 6.3959C7.11102 6.52439 7.18903 6.64113 7.28737 6.73947C7.38571 6.83781 7.50245 6.91582 7.63094 6.96904C7.75943 7.02226 7.89714 7.04966 8.03621 7.04966C8.31708 7.04966 8.58645 6.93808 8.78505 6.73947C8.98366 6.54087 9.09524 6.2715 9.09524 5.99063C9.09524 5.70976 8.98366 5.44039 8.78505 5.24179C8.58645 5.04318 8.31708 4.9316 8.03621 4.9316Z" fill="#9CA7BB"/>
</svg>
