<svg width="15" height="8" viewBox="0 0 15 8" fill="none" xmlns="http://www.w3.org/2000/svg">
<path d="M6.39665 5.29882C5.83031 5.26062 5.27737 5.16478 4.7479 5.01733L3.65141 7.36848C3.61416 7.44783 3.5616 7.51904 3.49676 7.57803C3.43191 7.63701 3.35605 7.6826 3.27353 7.71218C3.19102 7.74176 3.10347 7.75475 3.01592 7.7504C2.92837 7.74605 2.84254 7.72445 2.76336 7.68684C2.60327 7.61222 2.4791 7.47743 2.41786 7.31176C2.35661 7.14609 2.36323 6.96295 2.43629 6.80214L3.48854 4.54549C2.59407 4.12483 1.79735 3.52193 1.14946 2.77542C0.67058 2.22203 0.295091 1.58706 0.0409029 0.900802C0.0106256 0.818156 -0.00307674 0.730356 0.000578108 0.642414C0.00423296 0.554472 0.0251735 0.468111 0.062204 0.388262C0.0992346 0.308413 0.15163 0.236639 0.216399 0.17704C0.281167 0.11744 0.357041 0.0711802 0.439687 0.040903C0.522333 0.0106257 0.610134 -0.0030766 0.698076 0.000578251C0.786018 0.0042331 0.872379 0.0251738 0.952228 0.0622043C1.03208 0.0992349 1.10385 0.15163 1.16345 0.216399C1.22305 0.281167 1.26931 0.357041 1.29959 0.439688C1.4987 0.975201 1.79246 1.47056 2.16686 1.90212C3.27541 3.19431 5.04079 3.97848 6.96835 3.97848C8.89659 3.97848 10.662 3.19364 11.7705 1.90212C12.1449 1.47056 12.4387 0.975201 12.6378 0.439688C12.6989 0.272776 12.8239 0.136991 12.9852 0.0622043C13.1464 -0.0125822 13.3308 -0.0202447 13.4977 0.040903C13.6646 0.102051 13.8004 0.226999 13.8752 0.388262C13.95 0.549524 13.9576 0.733891 13.8965 0.900802C13.6423 1.58706 13.2668 2.22203 12.7879 2.77542C12.6932 2.88585 12.5948 2.99315 12.493 3.09713L14.1324 4.7365C14.256 4.86261 14.3248 5.0324 14.324 5.20897C14.3231 5.38555 14.2525 5.55464 14.1277 5.67951C14.0662 5.74189 13.9929 5.79151 13.9122 5.82552C13.8315 5.85953 13.7448 5.87726 13.6572 5.87769C13.5696 5.87813 13.4827 5.86126 13.4016 5.82806C13.3206 5.79485 13.2468 5.74597 13.1847 5.6842L11.4622 3.96172C11.1405 4.1829 10.7987 4.37927 10.4408 4.54951L11.4917 6.80147C11.565 6.96235 11.5717 7.14566 11.5104 7.31149C11.4492 7.47731 11.3249 7.61222 11.1646 7.68684C11.0855 7.72445 10.9996 7.74605 10.9121 7.7504C10.8245 7.75475 10.737 7.74176 10.6545 7.71218C10.5719 7.6826 10.4961 7.63701 10.4312 7.57803C10.3664 7.51904 10.3138 7.44783 10.2766 7.36848L9.18144 5.01934C8.70889 5.1505 8.22549 5.23888 7.7371 5.28341V7.33564C7.73551 7.51235 7.6642 7.68127 7.53868 7.80566C7.41316 7.93005 7.24359 7.99984 7.06688 7.99983C6.69423 7.99983 6.39665 7.70225 6.39665 7.33631V5.29882Z" fill="#9CA7BB"/>
</svg>
