<svg width="188" height="36" viewBox="0 0 188 36" fill="none" xmlns="http://www.w3.org/2000/svg">
<mask id="mask0_4074_14983" style="mask-type:alpha" maskUnits="userSpaceOnUse" x="0" y="3" width="30" height="30">
<rect x="30" y="3" width="30" height="30" transform="rotate(90 30 3)" fill="white"/>
</mask>
<g mask="url(#mask0_4074_14983)">
<path d="M20.211 10.3227C20.9621 10.6945 20.9592 11.7666 20.2063 12.1344L7.01501 18.5783C6.09776 19.0264 5.17107 17.9855 5.72226 17.1263L9.89131 10.627C10.2026 10.1417 10.1454 9.50717 9.7523 9.0854L6.70656 5.81743C5.94116 4.99618 6.88681 3.72643 7.8929 4.22451L20.211 10.3227Z" fill="#29CB95"/>
<mask id="mask1_4074_14983" style="mask-type:alpha" maskUnits="userSpaceOnUse" x="5" y="4" width="16" height="15">
<path d="M20.211 10.3227C20.9621 10.6945 20.9592 11.7666 20.2063 12.1344L7.01501 18.5783C6.09776 19.0264 5.17107 17.9855 5.72226 17.1263L9.89131 10.627C10.2026 10.1417 10.1454 9.50717 9.7523 9.0854L6.70656 5.81743C5.94116 4.99618 6.88681 3.72643 7.8929 4.22451L20.211 10.3227Z" fill="#29CB95"/>
</mask>
<g mask="url(#mask1_4074_14983)">
<path d="M23.7383 11.7538L23.2809 19.6876L3.91178 19.6876L3.91178 9.05664L23.7383 11.7538Z" fill="url(#paint0_linear_4074_14983)"/>
</g>
<path opacity="0.3" fill-rule="evenodd" clip-rule="evenodd" d="M20.4279 9.88453C21.5426 10.4364 21.5384 12.0278 20.4207 12.5738L7.2295 19.0177C5.86796 19.6828 4.49241 18.1377 5.31057 16.8622L9.47962 10.363C9.67029 10.0658 9.63524 9.67709 9.39448 9.41876L6.34874 6.15079C5.2126 4.93175 6.6163 3.04697 8.10971 3.7863L20.4279 9.88453ZM19.9915 11.6951C20.3798 11.5054 20.3812 10.9526 19.994 10.7609L7.67583 4.6627C7.15707 4.40588 6.66947 5.06059 7.06413 5.48405L10.1099 8.75202C10.6553 9.33722 10.7347 10.2177 10.3027 10.891L6.13369 17.3903C5.84949 17.8333 6.32731 18.37 6.80027 18.139L19.9915 11.6951Z" fill="#00E48B"/>
<path d="M26.4476 19.965C27.2012 20.334 27.2018 21.408 26.4485 21.7778L6.32468 31.6566C5.45207 32.085 4.53764 31.1535 4.98204 30.289L10.462 19.6282C10.6774 19.2092 10.6414 18.705 10.3686 18.3208L5.88695 12.0094C5.28105 11.1561 6.21401 10.0581 7.15392 10.5183L26.4476 19.965Z" fill="#217EFD"/>
<mask id="mask2_4074_14983" style="mask-type:alpha" maskUnits="userSpaceOnUse" x="4" y="10" width="24" height="22">
<path d="M26.4476 19.965C27.2012 20.334 27.2018 21.408 26.4485 21.7778L6.32468 31.6566C5.45207 32.085 4.53764 31.1535 4.98204 30.289L10.462 19.6282C10.6774 19.2092 10.6414 18.705 10.3686 18.3208L5.88695 12.0094C5.28105 11.1561 6.21401 10.0581 7.15392 10.5183L26.4476 19.965Z" fill="#217EFD"/>
</mask>
<g mask="url(#mask2_4074_14983)">
<path d="M29.6215 21.2491L29.6215 34.7034L3.18619 34.7034L3.18619 18.063L29.6215 21.2491Z" fill="url(#paint1_linear_4074_14983)"/>
</g>
<path opacity="0.3" fill-rule="evenodd" clip-rule="evenodd" d="M26.69 19.4692C27.8558 20.04 27.8566 21.7014 26.6914 22.2734L6.5676 32.1522C5.21778 32.8149 3.80327 31.374 4.49071 30.0366L9.97063 19.3759C10.0918 19.1402 10.0715 18.8566 9.91809 18.6405L5.43648 12.329C4.49923 11.0091 5.94241 9.31068 7.39633 10.0226L26.69 19.4692ZM26.2049 21.2823C26.5462 21.1147 26.5459 20.6281 26.2045 20.4609L6.91081 11.0142C6.48491 10.8056 6.06216 11.3032 6.33671 11.6898L10.8183 18.0013C11.2105 18.5535 11.2623 19.2783 10.9526 19.8807L5.47267 30.5414C5.27131 30.9332 5.68566 31.3552 6.08106 31.1611L26.2049 21.2823Z" fill="#0068F7"/>
</g>
<path d="M67.408 7.44L68.632 9.696C66.592 10.368 64.336 10.776 61.864 10.92V14.64H69.136V17.016H66.928V29.52H64.456V17.016H61.864V19.296C61.744 23.544 60.808 26.928 59.056 29.472L57.256 27.576C58.6 25.584 59.344 22.824 59.44 19.296V8.88C62.416 8.832 65.056 8.352 67.408 7.44ZM47.368 9.12H51.52C51.232 8.52 50.92 7.968 50.584 7.464L53.176 7.032C53.464 7.656 53.728 8.352 54.016 9.12H58.384V11.424H47.368V9.12ZM47.128 14.568H49.576C49.288 13.776 48.952 13.032 48.568 12.36L50.776 11.52C51.136 12.384 51.472 13.392 51.808 14.568H53.92C54.28 13.584 54.592 12.576 54.856 11.52L57.088 12.312C56.8 13.128 56.512 13.872 56.2 14.568H58.528V16.848H54.184V18.792H58.12V21.072H54.184V27.36C54.184 28.848 53.344 29.592 51.688 29.592H50.44L49.888 27.288C50.248 27.384 50.584 27.456 50.872 27.456C51.4 27.456 51.688 27.216 51.688 26.76V21.072H47.512V18.792H51.688V16.848H47.128V14.568ZM48.856 22.008L51.112 22.488C50.56 24.936 49.792 27.048 48.784 28.848L46.696 27.528C47.728 25.8 48.448 23.952 48.856 22.008ZM56.632 21.864C57.208 23.352 57.688 24.72 58.024 25.968L55.912 26.784C55.552 25.296 55.096 23.832 54.568 22.416L56.632 21.864ZM71.08 13.44H73.408V7.416H75.88V13.44H78.016V15.792H75.88V22.776C76.696 22.44 77.512 22.056 78.328 21.624V24.12C76.168 25.2 73.888 26.112 71.44 26.832L70.816 24.36C71.68 24.168 72.544 23.952 73.408 23.688V15.792H71.08V13.44ZM83.248 7.248C83.536 8.112 83.848 9.072 84.136 10.152H86.992C87.352 9.192 87.616 8.184 87.808 7.152L90.28 7.488C90.064 8.448 89.776 9.336 89.44 10.152H92.344V18.84H78.76V10.152H81.76C81.448 9.264 81.112 8.448 80.752 7.68L83.248 7.248ZM90.184 16.848V12.216H86.44V16.848H90.184ZM84.52 16.848V12.216H80.92V16.848H84.52ZM82.96 12.84C83.296 13.728 83.632 14.76 83.944 15.912L82.384 16.32C82.12 15.288 81.784 14.304 81.4 13.344L82.96 12.84ZM88 12.72L89.632 13.152C89.344 14.376 88.96 15.456 88.528 16.392L86.992 15.84C87.376 15.024 87.712 13.968 88 12.72ZM91.48 20.064V29.52H89.08V28.704H82.072V29.52H79.672V20.064H91.48ZM82.072 26.688H89.08V25.296H82.072V26.688ZM82.072 23.424H89.08V22.056H82.072V23.424ZM113.488 29.424H110.368L109.672 26.904L112.672 27.024C113.152 27.024 113.416 26.688 113.416 26.016V10.464H98.584V29.496H96.064V8.016H115.936V26.592C115.936 28.464 115.12 29.424 113.488 29.424ZM99.904 12.528H112.096V14.856H99.904V12.528ZM101.104 16.848H110.92V25.032H101.104V16.848ZM108.496 22.8V19.08H103.528V22.8H108.496ZM121.648 11.592H128.752V10.512H119.632V8.4H128.752V7.224H131.248V8.4H140.368V10.512H131.248V11.592H138.352V16.632H131.248V17.736H138.664V20.856H141.016V22.848H138.664V25.992H131.248V27.096C131.248 28.632 130.408 29.4 128.752 29.4H125.8L125.272 27.048C126.184 27.144 127.072 27.216 127.912 27.216C128.464 27.216 128.752 26.976 128.752 26.496V25.992H121.144V24.024H128.752V22.848H118.984V20.856H128.752V19.656H121.168V17.736H128.752V16.632H121.648V11.592ZM135.856 14.808V13.44H131.248V14.808H135.856ZM128.752 14.808V13.44H124.144V14.808H128.752ZM131.248 19.656V20.856H136.288V19.656H131.248ZM136.288 22.848H131.248V24.024H136.288V22.848Z" fill="#222222"/>
<mask id="mask3_4074_14983" style="mask-type:alpha" maskUnits="userSpaceOnUse" x="158" y="3" width="30" height="30">
<rect width="30" height="30" transform="matrix(4.37114e-08 1 1 -4.37114e-08 158 3)" fill="white"/>
</mask>
<g mask="url(#mask3_4074_14983)">
<path d="M167.789 10.3227C167.038 10.6945 167.041 11.7666 167.794 12.1344L180.985 18.5783C181.902 19.0264 182.829 17.9855 182.278 17.1263L178.109 10.627C177.797 10.1417 177.855 9.50717 178.248 9.0854L181.293 5.81743C182.059 4.99618 181.113 3.72643 180.107 4.22451L167.789 10.3227Z" fill="#29CB95"/>
<mask id="mask4_4074_14983" style="mask-type:alpha" maskUnits="userSpaceOnUse" x="167" y="4" width="16" height="15">
<path d="M167.789 10.3227C167.038 10.6945 167.041 11.7666 167.794 12.1344L180.985 18.5783C181.902 19.0264 182.829 17.9855 182.278 17.1263L178.109 10.627C177.797 10.1417 177.855 9.50717 178.248 9.0854L181.293 5.81743C182.059 4.99618 181.113 3.72643 180.107 4.22451L167.789 10.3227Z" fill="#29CB95"/>
</mask>
<g mask="url(#mask4_4074_14983)">
<path d="M164.262 11.7538L164.719 19.6876L184.088 19.6876L184.088 9.05664L164.262 11.7538Z" fill="url(#paint2_linear_4074_14983)"/>
</g>
<path opacity="0.3" fill-rule="evenodd" clip-rule="evenodd" d="M167.572 9.88453C166.457 10.4364 166.462 12.0278 167.579 12.5738L180.77 19.0177C182.132 19.6828 183.508 18.1377 182.689 16.8622L178.52 10.363C178.33 10.0658 178.365 9.67709 178.606 9.41876L181.651 6.15079C182.787 4.93175 181.384 3.04697 179.89 3.7863L167.572 9.88453ZM168.008 11.6951C167.62 11.5054 167.619 10.9526 168.006 10.7609L180.324 4.6627C180.843 4.40588 181.331 5.06059 180.936 5.48405L177.89 8.75202C177.345 9.33722 177.265 10.2177 177.697 10.891L181.866 17.3903C182.151 17.8333 181.673 18.37 181.2 18.139L168.008 11.6951Z" fill="#00E48B"/>
<path d="M161.552 19.965C160.799 20.334 160.798 21.408 161.552 21.7778L181.675 31.6566C182.548 32.085 183.462 31.1535 183.018 30.289L177.538 19.6282C177.323 19.2092 177.359 18.705 177.631 18.3208L182.113 12.0094C182.719 11.1561 181.786 10.0581 180.846 10.5183L161.552 19.965Z" fill="#217EFD"/>
<mask id="mask5_4074_14983" style="mask-type:alpha" maskUnits="userSpaceOnUse" x="160" y="10" width="24" height="22">
<path d="M161.552 19.965C160.799 20.334 160.798 21.408 161.552 21.7778L181.675 31.6566C182.548 32.085 183.462 31.1535 183.018 30.289L177.538 19.6282C177.323 19.2092 177.359 18.705 177.631 18.3208L182.113 12.0094C182.719 11.1561 181.786 10.0581 180.846 10.5183L161.552 19.965Z" fill="#217EFD"/>
</mask>
<g mask="url(#mask5_4074_14983)">
<path d="M158.378 21.2491L158.378 34.7034L184.814 34.7034L184.814 18.063L158.378 21.2491Z" fill="url(#paint3_linear_4074_14983)"/>
</g>
<path opacity="0.3" fill-rule="evenodd" clip-rule="evenodd" d="M161.31 19.4692C160.144 20.04 160.143 21.7014 161.309 22.2734L181.432 32.1522C182.782 32.8149 184.197 31.374 183.509 30.0366L178.029 19.3759C177.908 19.1402 177.928 18.8566 178.082 18.6405L182.564 12.329C183.501 11.0091 182.058 9.31068 180.604 10.0226L161.31 19.4692ZM161.795 21.2823C161.454 21.1147 161.454 20.6281 161.796 20.4609L181.089 11.0142C181.515 10.8056 181.938 11.3032 181.663 11.6898L177.182 18.0013C176.79 18.5535 176.738 19.2783 177.047 19.8807L182.527 30.5414C182.729 30.9332 182.314 31.3552 181.919 31.1611L161.795 21.2823Z" fill="#0068F7"/>
</g>
<defs>
<linearGradient id="paint0_linear_4074_14983" x1="20.8518" y1="11.6434" x2="9.62156" y2="10.2554" gradientUnits="userSpaceOnUse">
<stop stop-color="#00B176"/>
<stop offset="1" stop-color="#00B176" stop-opacity="0"/>
</linearGradient>
<linearGradient id="paint1_linear_4074_14983" x1="26.9086" y1="21.4226" x2="9.66884" y2="19.7191" gradientUnits="userSpaceOnUse">
<stop stop-color="#0050EC"/>
<stop offset="1" stop-color="#0050EC" stop-opacity="0"/>
</linearGradient>
<linearGradient id="paint2_linear_4074_14983" x1="167.148" y1="11.6434" x2="178.378" y2="10.2554" gradientUnits="userSpaceOnUse">
<stop stop-color="#00B176"/>
<stop offset="1" stop-color="#00B176" stop-opacity="0"/>
</linearGradient>
<linearGradient id="paint3_linear_4074_14983" x1="161.091" y1="21.4226" x2="178.331" y2="19.7191" gradientUnits="userSpaceOnUse">
<stop stop-color="#0050EC"/>
<stop offset="1" stop-color="#0050EC" stop-opacity="0"/>
</linearGradient>
</defs>
</svg>