<svg width="228" height="25" viewBox="0 0 228 25" fill="none" xmlns="http://www.w3.org/2000/svg">
<mask id="mask0_4155_15756" style="mask-type:alpha" maskUnits="userSpaceOnUse" x="0" y="1" width="22" height="23">
<rect y="1.5" width="22" height="22" fill="white"/>
</mask>
<g mask="url(#mask0_4155_15756)">
<path d="M12.4408 4.10517C12.7114 3.5525 13.499 3.55209 13.7702 4.10449L21.0147 18.862C21.3288 19.5019 20.6458 20.1725 20.0118 19.8466L12.1939 15.8279C11.8866 15.67 11.5168 15.6964 11.2351 15.8964L6.60672 19.183C5.98097 19.6273 5.17579 18.9431 5.51327 18.2538L12.4408 4.10517Z" fill="url(#paint0_linear_4155_15756)"/>
<path d="M5.37035 8.67867C5.64294 8.12806 6.42858 8.12979 6.69848 8.6816L11.4241 18.3554C11.7526 19.028 10.9897 19.7076 10.3596 19.3037L5.59301 16.2461C5.23717 16.018 4.77234 16.0604 4.46313 16.3486L2.06664 18.582C1.46448 19.1432 0.532851 18.4496 0.897697 17.7119L5.37035 8.67867ZM5.93774 16.4668L8.66528 18.2168L10.6633 16.7988L8.22192 11.8007L5.93774 16.4668Z" fill="url(#paint1_linear_4155_15756)"/>
</g>
<path d="M31.44 4.96H46.578V6.562H39.846V8.074H45.192V14.824H47.1V16.444H45.192V18.712C45.192 20.098 44.58 20.8 43.356 20.8H41.628L41.196 19.144L42.816 19.216C43.284 19.216 43.518 18.91 43.518 18.334V16.444H34.482V20.854H32.808V16.444H30.9V14.824H32.808V8.074H38.154V6.562H31.44V4.96ZM34.482 14.824H38.154V12.934H34.482V14.824ZM39.846 14.824H43.518V12.934H39.846V14.824ZM34.482 11.44H38.154V9.622H34.482V11.44ZM39.846 9.622V11.44H43.518V9.622H39.846ZM55.272 4.24H57.036V9.658H63.696V11.314H57.036V18.55H65.082V20.206H48.954V18.55H55.272V4.24ZM68.808 11.314C68.286 11.962 67.728 12.592 67.116 13.204L66.558 11.386C68.394 9.334 69.762 6.958 70.644 4.222L72.264 4.978C71.814 6.328 71.22 7.624 70.5 8.866V20.89H68.808V11.314ZM72.246 6.4H75.702L76.188 4.222L77.862 4.384C77.718 5.086 77.556 5.752 77.412 6.4H82.596V8.056H76.98C76.8 8.65 76.638 9.208 76.476 9.748H83.334V11.386H75.936C75.684 12.07 75.45 12.7 75.198 13.294H82.362V14.77C81.642 15.922 80.544 17.074 79.032 18.244C79.788 18.64 80.526 19.072 81.228 19.522L80.256 20.998C78.06 19.522 75.792 18.37 73.488 17.524L74.406 16.174C75.486 16.57 76.53 17.02 77.538 17.488C78.798 16.624 79.806 15.76 80.544 14.878H72.984C73.452 13.762 73.884 12.592 74.298 11.386H71.454V9.748H74.82C74.982 9.19 75.144 8.632 75.288 8.056H72.246V6.4ZM100.74 6.022V10.27H98.994V7.678H86.97V10.27H85.224V6.022H91.956C91.776 5.482 91.56 4.996 91.344 4.564L93.27 4.24C93.486 4.762 93.684 5.356 93.882 6.022H100.74ZM87.87 9.406H98.058V11.044H87.87V9.406ZM85.116 12.754H100.902V14.392H95.988V18.154C95.988 18.694 96.204 18.982 96.672 18.982H98.94C99.156 18.982 99.3 18.856 99.408 18.622C99.516 18.37 99.588 17.614 99.642 16.354L101.262 16.858C101.118 18.676 100.902 19.756 100.596 20.098C100.308 20.422 99.858 20.602 99.246 20.602H96.132C94.89 20.602 94.278 19.9 94.278 18.514V14.392H91.578V14.446C91.506 16.21 91.002 17.632 90.102 18.694C89.22 19.666 87.78 20.44 85.782 20.98L84.81 19.45C86.736 18.964 88.05 18.334 88.77 17.578C89.436 16.768 89.814 15.724 89.886 14.446V14.392H85.116V12.754ZM103.71 5.716H107.418C107.166 5.266 106.878 4.852 106.572 4.474L108.48 4.15C108.732 4.618 108.984 5.14 109.236 5.716H112.854C113.214 5.194 113.484 4.654 113.664 4.114L115.482 4.348C115.302 4.834 115.032 5.284 114.708 5.716H118.29V7.192H111.846V8.092H117.462V9.424H111.846V10.306H118.668V11.782H116.004C115.824 12.232 115.626 12.664 115.392 13.078H118.938V14.59H103.062V13.078H106.734C106.518 12.61 106.284 12.178 106.032 11.782H103.332V10.306H110.154V9.424H104.538V8.092H110.154V7.192H103.71V5.716ZM113.718 13.078C113.97 12.646 114.168 12.214 114.348 11.782H111.846V13.078H113.718ZM107.778 11.782C107.976 12.178 108.156 12.61 108.336 13.078H110.154V11.782H107.778ZM117.21 15.562V20.854H115.518V20.26H106.518V20.854H104.808V15.562H117.21ZM106.518 18.676H115.518V17.074H106.518V18.676ZM124.302 10.882V11.116C124.194 15.184 123.384 18.406 121.89 20.818L120.63 19.486C121.854 17.47 122.52 14.68 122.61 11.116V5.518C127.326 5.482 131.556 5.086 135.264 4.348L136.11 5.896C132.6 6.562 128.658 6.958 124.302 7.066V9.226H137.082V10.882H124.302ZM135.732 13.006V20.854H134.022V20.134H127.38V20.854H125.67V13.006H135.732ZM127.38 18.46H134.022V14.644H127.38V18.46ZM145.434 7.21V19.738H143.796V18.802H140.952V20.26H139.314V7.21H141.024C141.348 6.238 141.6 5.248 141.744 4.204L143.454 4.438C143.274 5.428 143.004 6.346 142.662 7.21H145.434ZM140.952 17.218H143.796V13.672H140.952V17.218ZM140.952 12.142H143.796V8.83H140.952V12.142ZM148.674 11.53C149.862 13.006 150.78 14.284 151.41 15.4L150.06 16.354C149.376 15.166 148.44 13.852 147.288 12.394L148.674 11.53ZM154.722 7.228C154.722 13.438 154.632 17.272 154.452 18.712C154.272 20.008 153.408 20.656 151.878 20.656C151.518 20.656 150.87 20.62 149.97 20.566L149.556 19C150.348 19.036 151.032 19.072 151.608 19.072C152.328 19.072 152.742 18.694 152.85 17.938C152.958 17.038 153.012 14.014 153.048 8.884H148.53C148.026 9.964 147.45 10.954 146.766 11.854L145.74 10.504C146.928 8.776 147.756 6.67 148.188 4.186L149.88 4.402C149.7 5.41 149.448 6.346 149.16 7.228H154.722ZM156.756 14.068H167.61V13.15H169.338V14.068H173.226V15.724H169.338V19.198C169.338 20.332 168.708 20.908 167.484 20.908H165.216L164.82 19.234C165.54 19.306 166.242 19.342 166.89 19.342C167.358 19.342 167.61 19.144 167.61 18.784V15.724H156.756V14.068ZM170.58 4.834V9.406H160.302V10.324C160.302 10.81 160.554 11.062 161.076 11.062H170.49C170.778 11.044 170.976 10.936 171.084 10.756C171.174 10.612 171.264 10.18 171.336 9.46L172.956 9.982C172.848 10.81 172.722 11.386 172.596 11.746C172.362 12.322 171.84 12.61 171.03 12.646H160.41C159.186 12.646 158.574 12.088 158.574 10.99V4.834H170.58ZM160.302 7.858H168.87V6.382H160.302V7.858ZM161.256 15.94C162.426 16.858 163.416 17.776 164.226 18.694L162.93 19.972C162.246 19.09 161.274 18.136 160.032 17.128L161.256 15.94ZM182.01 8.542C181.218 7.084 180.246 5.95 179.112 5.14L180.534 4.24C182.046 5.302 183.378 7.318 184.548 10.306C186.258 14.518 188.472 17.488 191.208 19.252L190.146 20.602C187.32 18.91 184.962 15.67 183.054 10.864C183 10.738 182.964 10.63 182.928 10.522C181.704 14.878 179.274 18.244 175.638 20.62L174.612 19.162C178.356 16.696 180.822 13.15 182.01 8.542ZM198.282 5.626H200.712V4.294H202.314V5.626H204.816V4.294H206.436V5.626H209.082V7.138H206.436V8.29H204.816V7.138H202.314V8.29H200.712V7.138H198.282V5.626ZM203.412 17.362C203.196 17.722 202.98 18.064 202.746 18.37C201.918 19.414 200.46 20.242 198.372 20.854L197.778 19.45C199.506 18.964 200.766 18.28 201.522 17.398C201.63 17.254 201.72 17.146 201.792 17.038H197.886V15.49H202.548C202.656 15.148 202.746 14.788 202.818 14.428H199.128V8.722H207.984V14.428H204.33L204.114 15.49H209.118V17.038H204.96C205.968 18.046 207.426 18.892 209.334 19.558L208.182 20.926C206.022 19.99 204.42 18.802 203.412 17.362ZM196.734 12.106V20.8H195.114V12.646C194.628 14.086 194.034 15.4 193.332 16.606L192.594 14.716C193.728 13.15 194.574 11.368 195.114 9.388V9.226H193.17V7.66H195.114V4.348H196.734V7.66H198.48V9.226H196.734V10.234C197.472 11.098 198.228 12.088 199.002 13.168L198.102 14.518C197.58 13.546 197.13 12.754 196.734 12.106ZM206.436 13.132V12.214H200.658V13.132H206.436ZM200.658 10.954H206.436V10.054H200.658V10.954ZM210.918 7.606H213.33V4.258H215.04V7.606H217.038V9.262H215.04V10.036C215.814 10.828 216.588 11.71 217.362 12.664L216.39 14.122C215.886 13.186 215.436 12.394 215.04 11.764V20.764H213.33V12.556C212.79 14.068 212.142 15.472 211.35 16.75L210.612 14.878C211.836 13.222 212.718 11.35 213.276 9.262H210.918V7.606ZM225.966 4.294L226.83 5.878C224.58 6.49 222.078 6.868 219.342 6.976V9.316H226.344V10.594C226.164 12.916 225.48 14.968 224.274 16.732C225.156 17.704 226.218 18.55 227.46 19.27L226.578 20.8C225.246 20.044 224.13 19.126 223.194 18.082C222.222 19.126 221.034 20.08 219.666 20.908L218.55 19.594C219.99 18.748 221.178 17.794 222.132 16.714C221.052 15.076 220.332 13.168 219.972 10.972H219.342V12.412C219.252 15.94 218.496 18.766 217.092 20.872L215.868 19.576C216.984 17.848 217.596 15.472 217.686 12.412V5.536C220.782 5.482 223.536 5.068 225.966 4.294ZM223.176 15.328C224.004 14.014 224.544 12.556 224.778 10.972H221.484C221.772 12.592 222.348 14.05 223.176 15.328Z" fill="#222222"/>
<defs>
<linearGradient id="paint0_linear_4155_15756" x1="13.2636" y1="3.69043" x2="13.2636" y2="19.5001" gradientUnits="userSpaceOnUse">
<stop stop-color="#00FFF0"/>
<stop offset="1" stop-color="#217EFD"/>
</linearGradient>
<linearGradient id="paint1_linear_4155_15756" x1="6.15921" y1="8.26672" x2="6.15921" y2="19.5" gradientUnits="userSpaceOnUse">
<stop stop-color="#00FFF0"/>
<stop offset="1" stop-color="#217EFD"/>
</linearGradient>
</defs>
</svg>