<svg width="378" height="46" viewBox="0 0 378 46" fill="none" xmlns="http://www.w3.org/2000/svg">
<path opacity="0.5" d="M52 9H172" stroke="#217EFD"/>
<path opacity="0.5" d="M206 9H326" stroke="#217EFD"/>
<rect x="26" width="18" height="18" rx="9" fill="#217EFD"/>
<path d="M35.3348 4.432H36.3188V13H35.0108V6.004C34.4948 6.496 33.8348 6.856 33.0428 7.084V5.788C33.4268 5.692 33.8228 5.524 34.2548 5.284C34.6868 5.02 35.0468 4.744 35.3348 4.432Z" fill="white"/>
<path d="M12.656 29.52H14.028V33.734H19.208V35.022H14.028V40.65H20.286V41.938H7.742V40.65H12.656V29.52ZM23.184 35.022C22.778 35.526 22.344 36.016 21.868 36.492L21.434 35.078C22.862 33.482 23.926 31.634 24.612 29.506L25.872 30.094C25.522 31.144 25.06 32.152 24.5 33.118V42.47H23.184V35.022ZM25.858 31.2H28.546L28.924 29.506L30.226 29.632C30.114 30.178 29.988 30.696 29.876 31.2H33.908V32.488H29.54C29.4 32.95 29.274 33.384 29.148 33.804H34.482V35.078H28.728C28.532 35.61 28.35 36.1 28.154 36.562H33.726V37.71C33.166 38.606 32.312 39.502 31.136 40.412C31.724 40.72 32.298 41.056 32.844 41.406L32.088 42.554C30.38 41.406 28.616 40.51 26.824 39.852L27.538 38.802C28.378 39.11 29.19 39.46 29.974 39.824C30.954 39.152 31.738 38.48 32.312 37.794H26.432C26.796 36.926 27.132 36.016 27.454 35.078H25.242V33.804H27.86C27.986 33.37 28.112 32.936 28.224 32.488H25.858V31.2ZM35.826 31.774H41.468C41.104 31.102 40.656 30.472 40.124 29.87L41.454 29.38C41.958 30.052 42.434 30.85 42.868 31.774H48.174V33.09H46.032C45.36 35.218 44.366 36.996 43.05 38.438C44.506 39.628 46.326 40.622 48.482 41.406L47.74 42.526C45.486 41.686 43.61 40.636 42.126 39.376C40.544 40.776 38.598 41.812 36.288 42.484L35.574 41.308C37.842 40.72 39.704 39.796 41.188 38.522C39.648 36.982 38.57 35.162 37.968 33.09H35.826V31.774ZM39.242 33.09C39.83 34.812 40.782 36.324 42.112 37.612C43.246 36.366 44.1 34.854 44.66 33.09H39.242ZM52.514 29.408L53.76 29.982C53.41 31.088 52.948 32.138 52.388 33.118V42.442H51.086V35.05C50.694 35.554 50.274 36.03 49.84 36.492L49.406 35.078C50.806 33.454 51.842 31.564 52.514 29.408ZM54.866 30.416L56.168 30.584C56.056 31.214 55.93 31.816 55.776 32.376H57.456V29.576H58.786V32.376H61.88V33.678H58.786V36.688H62.398V37.976H58.786V42.386H57.456V37.976H53.48V36.688H57.456V33.678H55.342C54.992 34.56 54.572 35.358 54.068 36.086L53.214 34.98C54.026 33.734 54.586 32.208 54.866 30.416Z" fill="#217EFD"/>
<g opacity="0.5">
<rect x="180" width="18" height="18" rx="9" fill="#217EFD"/>
<path d="M189.134 4.264C189.95 4.264 190.634 4.492 191.162 4.972C191.678 5.452 191.942 6.064 191.942 6.82C191.942 7.564 191.654 8.236 191.102 8.848C190.766 9.196 190.178 9.652 189.326 10.228C188.402 10.84 187.85 11.38 187.67 11.848H191.954V13H186.05C186.05 12.148 186.326 11.404 186.902 10.756C187.214 10.384 187.862 9.868 188.834 9.196C189.41 8.788 189.818 8.464 190.058 8.212C190.442 7.78 190.646 7.312 190.646 6.808C190.646 6.328 190.514 5.968 190.25 5.728C189.986 5.488 189.59 5.368 189.086 5.368C188.546 5.368 188.138 5.548 187.862 5.92C187.574 6.28 187.43 6.796 187.406 7.492H186.098C186.11 6.532 186.386 5.764 186.926 5.188C187.478 4.564 188.222 4.264 189.134 4.264Z" fill="white"/>
</g>
<path opacity="0.5" d="M167.412 29.996H174.398V31.242H171.654C171.598 31.69 171.514 32.11 171.43 32.516H173.992V39.264H172.746V33.692H169.064V39.264H167.818V32.516H170.156C170.24 32.096 170.296 31.676 170.352 31.242H167.412V29.996ZM172.046 39.208C173.026 39.978 173.866 40.748 174.538 41.504L173.614 42.428C173.04 41.686 172.242 40.888 171.206 40.034L172.046 39.208ZM170.226 34.392H171.514V36.87C171.458 38.382 171.108 39.586 170.478 40.482C169.862 41.322 168.854 41.966 167.482 42.428L166.754 41.294C168.07 40.86 168.98 40.314 169.47 39.642C169.932 38.928 170.184 38.004 170.226 36.87V34.392ZM163.226 31.816C163.562 32.152 163.884 32.474 164.164 32.782C164.584 32.32 164.962 31.802 165.326 31.228H161.966V29.996H166.74V31.032C166.18 32.054 165.578 32.922 164.934 33.636C165.13 33.888 165.312 34.112 165.48 34.322H167.132V35.134C166.908 36.226 166.656 37.08 166.348 37.696L165.256 37.276C165.494 36.786 165.704 36.212 165.886 35.554H164.738V41.098C164.738 41.938 164.346 42.372 163.562 42.372H162.19L161.924 41.168C162.344 41.224 162.736 41.252 163.128 41.252C163.352 41.252 163.478 41.098 163.478 40.79V35.554H161.574V34.322H164.038C163.534 33.734 162.946 33.104 162.246 32.432L163.226 31.816ZM185.836 34.574V39.67H184.534V35.778H179.312V39.684H177.996V34.574H185.836ZM181.132 36.562H182.434V37.542C182.42 37.752 182.392 37.962 182.364 38.158H183.54V40.426C183.54 40.804 183.736 41 184.128 41H186.228C186.452 41 186.62 40.916 186.732 40.776C186.858 40.608 186.942 40.09 186.998 39.25L188.216 39.656C188.118 40.888 187.922 41.63 187.642 41.882C187.39 42.106 186.998 42.218 186.466 42.218H183.736C182.756 42.218 182.266 41.714 182.266 40.706V38.634C182.042 39.502 181.608 40.216 180.978 40.804C180.082 41.56 178.64 42.134 176.652 42.54L175.896 41.364C177.884 40.986 179.242 40.51 179.97 39.936C180.67 39.32 181.062 38.522 181.132 37.542V36.562ZM179.27 29.534H180.586V34.126H179.27V29.534ZM176.526 30.108H177.814V33.692H176.526V30.108ZM183.61 31.69C183.176 32.488 182.672 33.16 182.098 33.692L181.104 32.768C182.028 31.83 182.714 30.71 183.134 29.422L184.408 29.758L184.156 30.472H188.048V31.69H183.61ZM184.87 31.914C185.668 32.362 186.396 32.908 187.068 33.538L186.242 34.476C185.57 33.776 184.828 33.188 184.044 32.684L184.87 31.914ZM196.518 36.506V37.836C196.518 37.906 196.504 37.976 196.504 38.046H197.988V36.506H196.518ZM196.42 39.18C196.252 40.468 195.874 41.532 195.258 42.4L194.292 41.546C194.936 40.594 195.272 39.376 195.3 37.92V33.58L194.88 33.958L194.054 32.964C195.09 32.124 195.972 30.976 196.728 29.492L198.002 29.786C197.89 30.024 197.764 30.248 197.652 30.472H200.928V31.41C200.564 31.928 200.186 32.376 199.822 32.754H201.992V41.238C201.992 41.924 201.586 42.274 200.788 42.274H199.822L199.514 41.084C199.822 41.126 200.13 41.154 200.41 41.154C200.634 41.154 200.746 41.028 200.746 40.804V39.18H199.206V42.19H197.988V39.18H196.42ZM198.394 32.754C198.73 32.418 199.052 32.026 199.388 31.578H196.994C196.714 31.998 196.406 32.39 196.098 32.754H198.394ZM200.746 38.046V36.506H199.206V38.046H200.746ZM200.746 35.358V33.916H199.206V35.358H200.746ZM197.988 33.916H196.518V35.358H197.988V33.916ZM189.896 30.192H194.656V31.48H192.626C192.458 32.488 192.234 33.454 191.926 34.35H194.362V41.028H192.024V41.98H190.764V36.954C190.582 37.262 190.4 37.542 190.218 37.822L189.434 36.59C190.386 35.078 191.016 33.37 191.324 31.48H189.896V30.192ZM192.024 39.81H193.158V35.582H192.024V39.81ZM211.624 29.618H212.968C212.968 30.822 212.926 31.956 212.842 32.992C213.57 36.436 214.83 39.18 216.622 41.224L215.67 42.344C214.284 40.552 213.22 38.396 212.464 35.876L212.352 36.422C211.848 38.83 210.658 40.804 208.782 42.372L207.886 41.28C209.482 39.908 210.518 38.214 211.022 36.198C211.414 34.504 211.61 32.306 211.624 29.618ZM205.422 29.632C206.332 30.318 207.102 31.004 207.732 31.704L206.822 32.628C206.262 31.97 205.492 31.27 204.498 30.542L205.422 29.632ZM203.574 33.692H206.808V39.544C207.242 39.18 207.704 38.76 208.208 38.284L208.544 39.656C207.648 40.482 206.696 41.224 205.674 41.896L205.17 40.706C205.408 40.51 205.534 40.272 205.534 39.978V34.966H203.574V33.692Z" fill="#217EFD"/>
<g opacity="0.5">
<rect x="334" width="18" height="18" rx="9" fill="#217EFD"/>
<path d="M343.086 4.264C343.95 4.264 344.634 4.468 345.162 4.888C345.666 5.308 345.93 5.884 345.93 6.616C345.93 7.552 345.45 8.188 344.514 8.5C345.018 8.656 345.402 8.896 345.666 9.208C345.954 9.532 346.098 9.952 346.098 10.456C346.098 11.248 345.822 11.896 345.282 12.4C344.706 12.904 343.95 13.168 343.038 13.168C342.162 13.168 341.454 12.94 340.926 12.496C340.326 11.992 339.99 11.26 339.918 10.3H341.238C341.262 10.876 341.442 11.32 341.802 11.632C342.114 11.92 342.522 12.064 343.026 12.064C343.578 12.064 344.022 11.896 344.358 11.584C344.646 11.296 344.802 10.948 344.802 10.516C344.802 10.012 344.646 9.64 344.334 9.4C344.046 9.16 343.614 9.04 343.05 9.04H342.426V8.056H343.038C343.566 8.056 343.962 7.936 344.226 7.708C344.49 7.48 344.634 7.144 344.634 6.712C344.634 6.28 344.502 5.956 344.262 5.728C343.998 5.488 343.602 5.38 343.098 5.38C342.582 5.38 342.174 5.512 341.886 5.776C341.598 6.04 341.418 6.436 341.37 6.964H340.086C340.158 6.112 340.47 5.452 341.034 4.972C341.562 4.492 342.246 4.264 343.086 4.264Z" fill="white"/>
</g>
<path opacity="0.5" d="M315.588 37.164H324.03V36.45H325.374V37.164H328.398V38.452H325.374V41.154C325.374 42.036 324.884 42.484 323.932 42.484H322.168L321.86 41.182C322.42 41.238 322.966 41.266 323.47 41.266C323.834 41.266 324.03 41.112 324.03 40.832V38.452H315.588V37.164ZM326.34 29.982V33.538H318.346V34.252C318.346 34.63 318.542 34.826 318.948 34.826H326.27C326.494 34.812 326.648 34.728 326.732 34.588C326.802 34.476 326.872 34.14 326.928 33.58L328.188 33.986C328.104 34.63 328.006 35.078 327.908 35.358C327.726 35.806 327.32 36.03 326.69 36.058H318.43C317.478 36.058 317.002 35.624 317.002 34.77V29.982H326.34ZM318.346 32.334H325.01V31.186H318.346V32.334ZM319.088 38.62C319.998 39.334 320.768 40.048 321.398 40.762L320.39 41.756C319.858 41.07 319.102 40.328 318.136 39.544L319.088 38.62ZM335.23 32.866C334.614 31.732 333.858 30.85 332.976 30.22L334.082 29.52C335.258 30.346 336.294 31.914 337.204 34.238C338.534 37.514 340.256 39.824 342.384 41.196L341.558 42.246C339.36 40.93 337.526 38.41 336.042 34.672C336 34.574 335.972 34.49 335.944 34.406C334.992 37.794 333.102 40.412 330.274 42.26L329.476 41.126C332.388 39.208 334.306 36.45 335.23 32.866ZM352.338 32.824C352.282 33.048 352.226 33.258 352.17 33.454C352.478 34.91 352.884 36.184 353.374 37.276C353.836 35.988 354.088 34.504 354.144 32.824H352.338ZM352.772 38.634C352.296 37.668 351.876 36.576 351.526 35.358C351.302 35.862 351.078 36.338 350.826 36.758L349.986 35.722C350.77 34.182 351.302 32.11 351.582 29.506L352.884 29.73C352.8 30.374 352.716 30.976 352.604 31.55H356.16V32.824H355.348C355.264 35.106 354.844 37.052 354.088 38.662C354.788 39.824 355.6 40.734 356.552 41.378L355.81 42.456C354.9 41.798 354.116 40.93 353.444 39.852C352.786 40.874 351.96 41.742 350.98 42.442L350.294 41.336C351.33 40.636 352.156 39.74 352.772 38.634ZM346.136 36.016L347.382 36.17C347.298 36.394 347.228 36.604 347.144 36.828H350V37.906C349.748 38.746 349.3 39.488 348.656 40.132C349.23 40.384 349.79 40.664 350.322 40.944L349.608 41.98C349.062 41.644 348.404 41.308 347.634 40.958C346.71 41.56 345.548 42.036 344.162 42.4L343.546 41.308C344.596 41.056 345.506 40.748 346.262 40.356C345.688 40.118 345.072 39.88 344.428 39.628C344.764 39.04 345.072 38.494 345.338 37.962H343.868V36.828H345.842C345.954 36.548 346.052 36.268 346.136 36.016ZM347.438 39.628C348.054 39.138 348.502 38.578 348.81 37.962H346.64C346.444 38.354 346.234 38.732 346.01 39.096C346.5 39.264 346.976 39.432 347.438 39.628ZM345.17 29.73C345.478 30.262 345.744 30.822 345.982 31.438L345.03 31.872C344.75 31.2 344.442 30.598 344.12 30.08L345.17 29.73ZM349.188 29.716L350.126 30.164C349.846 30.752 349.496 31.34 349.062 31.914L348.138 31.438C348.586 30.85 348.936 30.276 349.188 29.716ZM343.896 32.11H346.542V29.534H347.76V32.11H350.196V33.272H347.76V33.342C348.502 33.65 349.258 34.014 350.028 34.42L349.328 35.47C348.712 34.98 348.194 34.588 347.76 34.308V35.876H346.542V33.51C346.08 34.518 345.31 35.4 344.232 36.156L343.574 35.078C344.554 34.518 345.24 33.916 345.66 33.272H343.896V32.11ZM359.31 42.316H358.12L357.84 41.056C358.19 41.112 358.526 41.154 358.862 41.154C359.17 41.154 359.338 40.972 359.338 40.608V37.598C358.834 37.78 358.344 37.948 357.854 38.116L357.518 36.8C358.134 36.66 358.736 36.478 359.338 36.268V33.37H357.77V32.096H359.338V29.562H360.626V32.096H361.858V33.37H360.626V35.764C361.018 35.582 361.424 35.386 361.816 35.176V36.478C361.41 36.674 361.018 36.87 360.626 37.052V40.93C360.626 41.854 360.178 42.316 359.31 42.316ZM363.664 36.24C363.482 38.592 362.95 40.664 362.054 42.456L361.018 41.532C361.956 39.726 362.432 37.402 362.446 34.56V29.996H370.02V33.622H367.472V35.022H370.356V36.24H367.472V37.682H369.726V42.442H368.494V41.84H365.176V42.442H363.944V37.682H366.184V36.24H363.664ZM366.184 33.622H363.734V34.56C363.734 34.714 363.72 34.868 363.72 35.022H366.184V33.622ZM365.176 40.664H368.494V38.858H365.176V40.664ZM368.732 31.214H363.734V32.432H368.732V31.214Z" fill="#217EFD"/>
</svg>
