<svg width="372" height="25" viewBox="0 0 372 25" fill="none" xmlns="http://www.w3.org/2000/svg">
<mask id="mask0_4155_15742" style="mask-type:alpha" maskUnits="userSpaceOnUse" x="0" y="1" width="22" height="23">
<rect y="1.5" width="22" height="22" fill="white"/>
</mask>
<g mask="url(#mask0_4155_15742)">
<path d="M12.4408 4.10517C12.7114 3.5525 13.499 3.55209 13.7702 4.10449L21.0147 18.862C21.3288 19.5019 20.6458 20.1725 20.0118 19.8466L12.1939 15.8279C11.8866 15.67 11.5168 15.6964 11.2351 15.8964L6.60672 19.183C5.98097 19.6273 5.17579 18.9431 5.51327 18.2538L12.4408 4.10517Z" fill="url(#paint0_linear_4155_15742)"/>
<path d="M5.37035 8.67867C5.64294 8.12806 6.42858 8.12979 6.69848 8.6816L11.4241 18.3554C11.7526 19.028 10.9897 19.7076 10.3596 19.3037L5.59301 16.2461C5.23717 16.018 4.77234 16.0604 4.46313 16.3486L2.06664 18.582C1.46448 19.1432 0.532851 18.4496 0.897697 17.7119L5.37035 8.67867ZM5.93774 16.4668L8.66528 18.2168L10.6633 16.7988L8.22192 11.8007L5.93774 16.4668Z" fill="url(#paint1_linear_4155_15742)"/>
</g>
<path d="M34.446 8.488C33.996 9.388 33.51 10.234 32.97 10.99L31.314 9.964C32.61 8.272 33.546 6.472 34.104 4.546L35.814 4.906C35.616 5.59 35.4 6.238 35.166 6.85H38.298V4.294H40.008V6.85H45.804V8.488H40.008V11.494H47.046V13.132H42.276V17.884C42.276 18.586 42.528 18.946 43.068 18.946H44.634C44.832 18.946 45.012 18.838 45.192 18.64C45.372 18.406 45.48 17.488 45.552 15.868L47.19 16.39C47.01 18.442 46.758 19.666 46.47 20.026C46.128 20.386 45.66 20.566 45.084 20.584H42.582C41.214 20.584 40.548 19.792 40.548 18.208V13.132H37.578C37.38 15.166 36.948 16.678 36.264 17.686C35.436 18.91 34.014 19.972 32.034 20.872L30.828 19.342C32.61 18.64 33.888 17.794 34.644 16.822C35.256 16.03 35.652 14.788 35.832 13.132H31.044V11.494H38.298V8.488H34.446ZM48.936 5.068H65.046V6.742H57.378V9.1C59.574 10.162 61.806 11.386 64.074 12.754L63.048 14.302C60.78 12.826 58.89 11.692 57.378 10.918V20.854H55.668V6.742H48.936V5.068ZM67.962 5.554H71.328V4.186H72.984V5.554H76.098V7.102H72.984V8.398H76.908C76.836 7.102 76.8 5.68 76.8 4.168H78.456C78.456 5.734 78.492 7.138 78.564 8.398H82.956V9.964H78.654C78.762 11.458 78.906 12.664 79.086 13.6C79.158 13.924 79.212 14.248 79.284 14.554C79.806 13.366 80.238 12.052 80.58 10.594L82.11 11.278C81.552 13.474 80.832 15.328 79.95 16.84C80.058 17.128 80.184 17.398 80.31 17.632C80.742 18.46 81.066 18.892 81.3 18.892C81.48 18.892 81.678 18.01 81.876 16.264L83.334 17.038C82.92 19.432 82.308 20.638 81.498 20.638C80.85 20.638 80.166 20.098 79.41 19.018C79.248 18.784 79.104 18.532 78.978 18.28C78.078 19.396 77.07 20.242 75.954 20.854L75.036 19.486C76.296 18.802 77.358 17.794 78.24 16.462C77.988 15.706 77.754 14.878 77.574 13.978C77.322 12.862 77.124 11.512 77.016 9.964H67.026V8.398H71.328V7.102H67.962V5.554ZM80.292 4.348C81.192 5.356 81.894 6.238 82.38 6.994L81.102 7.894C80.598 7.084 79.896 6.184 78.996 5.176L80.292 4.348ZM76.098 16.966V18.442C75.234 18.55 74.352 18.658 73.434 18.766V20.8H71.76V18.946C70.518 19.054 69.222 19.162 67.872 19.27L67.674 17.686C69.114 17.614 70.464 17.524 71.76 17.416V16.102H68.43L68.106 14.734C68.538 14.212 68.934 13.582 69.312 12.826H67.566V11.314H69.978C70.122 10.918 70.248 10.522 70.392 10.108L72.012 10.414C71.904 10.738 71.796 11.026 71.688 11.314H76.188V12.826H71.058C70.734 13.51 70.374 14.122 70.014 14.68H71.76V13.492H73.434V14.68H76.008V16.102H73.434V17.254C74.37 17.164 75.252 17.074 76.098 16.966ZM86.79 13.276H99.228V14.896H93.846V18.64H100.74V20.278H85.278V18.64H92.118V14.896H86.79V13.276ZM94.782 8.344C96.654 9.172 98.346 10.198 99.894 11.404L98.922 12.862C97.284 11.512 95.61 10.45 93.882 9.676L94.782 8.344ZM90.822 8.452L91.884 9.676C90.462 10.936 88.716 11.98 86.646 12.808L85.908 11.26C87.888 10.54 89.526 9.604 90.822 8.452ZM93.27 4.096C93.486 4.636 93.684 5.23 93.9 5.878H100.776V9.712H99.03V7.462H86.988V9.694H85.242V5.878H92.118C91.902 5.338 91.65 4.834 91.398 4.384L93.27 4.096ZM109.434 7.21V19.738H107.796V18.802H104.952V20.26H103.314V7.21H105.024C105.348 6.238 105.6 5.248 105.744 4.204L107.454 4.438C107.274 5.428 107.004 6.346 106.662 7.21H109.434ZM104.952 17.218H107.796V13.672H104.952V17.218ZM104.952 12.142H107.796V8.83H104.952V12.142ZM112.674 11.53C113.862 13.006 114.78 14.284 115.41 15.4L114.06 16.354C113.376 15.166 112.44 13.852 111.288 12.394L112.674 11.53ZM118.722 7.228C118.722 13.438 118.632 17.272 118.452 18.712C118.272 20.008 117.408 20.656 115.878 20.656C115.518 20.656 114.87 20.62 113.97 20.566L113.556 19C114.348 19.036 115.032 19.072 115.608 19.072C116.328 19.072 116.742 18.694 116.85 17.938C116.958 17.038 117.012 14.014 117.048 8.884H112.53C112.026 9.964 111.45 10.954 110.766 11.854L109.74 10.504C110.928 8.776 111.756 6.67 112.188 4.186L113.88 4.402C113.7 5.41 113.448 6.346 113.16 7.228H118.722ZM120.756 14.068H131.61V13.15H133.338V14.068H137.226V15.724H133.338V19.198C133.338 20.332 132.708 20.908 131.484 20.908H129.216L128.82 19.234C129.54 19.306 130.242 19.342 130.89 19.342C131.358 19.342 131.61 19.144 131.61 18.784V15.724H120.756V14.068ZM134.58 4.834V9.406H124.302V10.324C124.302 10.81 124.554 11.062 125.076 11.062H134.49C134.778 11.044 134.976 10.936 135.084 10.756C135.174 10.612 135.264 10.18 135.336 9.46L136.956 9.982C136.848 10.81 136.722 11.386 136.596 11.746C136.362 12.322 135.84 12.61 135.03 12.646H124.41C123.186 12.646 122.574 12.088 122.574 10.99V4.834H134.58ZM124.302 7.858H132.87V6.382H124.302V7.858ZM125.256 15.94C126.426 16.858 127.416 17.776 128.226 18.694L126.93 19.972C126.246 19.09 125.274 18.136 124.032 17.128L125.256 15.94ZM146.01 8.542C145.218 7.084 144.246 5.95 143.112 5.14L144.534 4.24C146.046 5.302 147.378 7.318 148.548 10.306C150.258 14.518 152.472 17.488 155.208 19.252L154.146 20.602C151.32 18.91 148.962 15.67 147.054 10.864C147 10.738 146.964 10.63 146.928 10.522C145.704 14.878 143.274 18.244 139.638 20.62L138.612 19.162C142.356 16.696 144.822 13.15 146.01 8.542ZM162.282 5.626H164.712V4.294H166.314V5.626H168.816V4.294H170.436V5.626H173.082V7.138H170.436V8.29H168.816V7.138H166.314V8.29H164.712V7.138H162.282V5.626ZM167.412 17.362C167.196 17.722 166.98 18.064 166.746 18.37C165.918 19.414 164.46 20.242 162.372 20.854L161.778 19.45C163.506 18.964 164.766 18.28 165.522 17.398C165.63 17.254 165.72 17.146 165.792 17.038H161.886V15.49H166.548C166.656 15.148 166.746 14.788 166.818 14.428H163.128V8.722H171.984V14.428H168.33L168.114 15.49H173.118V17.038H168.96C169.968 18.046 171.426 18.892 173.334 19.558L172.182 20.926C170.022 19.99 168.42 18.802 167.412 17.362ZM160.734 12.106V20.8H159.114V12.646C158.628 14.086 158.034 15.4 157.332 16.606L156.594 14.716C157.728 13.15 158.574 11.368 159.114 9.388V9.226H157.17V7.66H159.114V4.348H160.734V7.66H162.48V9.226H160.734V10.234C161.472 11.098 162.228 12.088 163.002 13.168L162.102 14.518C161.58 13.546 161.13 12.754 160.734 12.106ZM170.436 13.132V12.214H164.658V13.132H170.436ZM164.658 10.954H170.436V10.054H164.658V10.954ZM174.918 7.606H177.33V4.258H179.04V7.606H181.038V9.262H179.04V10.036C179.814 10.828 180.588 11.71 181.362 12.664L180.39 14.122C179.886 13.186 179.436 12.394 179.04 11.764V20.764H177.33V12.556C176.79 14.068 176.142 15.472 175.35 16.75L174.612 14.878C175.836 13.222 176.718 11.35 177.276 9.262H174.918V7.606ZM189.966 4.294L190.83 5.878C188.58 6.49 186.078 6.868 183.342 6.976V9.316H190.344V10.594C190.164 12.916 189.48 14.968 188.274 16.732C189.156 17.704 190.218 18.55 191.46 19.27L190.578 20.8C189.246 20.044 188.13 19.126 187.194 18.082C186.222 19.126 185.034 20.08 183.666 20.908L182.55 19.594C183.99 18.748 185.178 17.794 186.132 16.714C185.052 15.076 184.332 13.168 183.972 10.972H183.342V12.412C183.252 15.94 182.496 18.766 181.092 20.872L179.868 19.576C180.984 17.848 181.596 15.472 181.686 12.412V5.536C184.782 5.482 187.536 5.068 189.966 4.294ZM187.176 15.328C188.004 14.014 188.544 12.556 188.778 10.972H185.484C185.772 12.592 186.348 14.05 187.176 15.328ZM195.456 16.426C195.924 16.426 196.302 16.606 196.626 16.984C196.914 17.38 197.076 17.866 197.076 18.478C197.076 19.396 196.806 20.188 196.266 20.872C195.726 21.556 195.006 22.024 194.106 22.276V21.16C194.592 20.98 195.006 20.71 195.33 20.314C195.618 19.9 195.78 19.486 195.78 19.054C195.672 19.09 195.528 19.108 195.348 19.108C194.97 19.108 194.664 18.982 194.412 18.73C194.16 18.478 194.034 18.154 194.034 17.776C194.034 17.362 194.16 17.038 194.43 16.786C194.682 16.534 195.024 16.426 195.456 16.426ZM226.74 6.148V9.892H225.102V7.714H218.586V9.964H216.966V6.148H220.908C220.692 5.5 220.458 4.888 220.188 4.348L221.934 4.06C222.168 4.69 222.402 5.392 222.618 6.148H226.74ZM220.152 8.632L221.844 8.776C221.61 9.712 221.376 10.576 221.142 11.35H227.262V12.988H225.228C224.94 14.662 224.364 16.066 223.5 17.218C225.084 18.082 226.362 18.874 227.352 19.558L226.2 20.908C225.192 20.152 223.914 19.324 222.384 18.424C221.124 19.486 219.144 20.332 216.48 20.98L215.796 19.36C217.92 18.892 219.576 18.262 220.746 17.47C219.756 16.894 218.712 16.318 217.596 15.724C218.046 14.86 218.46 13.942 218.838 12.988H216.588V11.35H219.414C219.684 10.468 219.936 9.568 220.152 8.632ZM223.59 12.988H220.584C220.26 13.834 219.936 14.572 219.612 15.184C220.458 15.598 221.25 15.994 221.988 16.39C222.762 15.49 223.302 14.356 223.59 12.988ZM212.88 20.692H211.35L210.972 19.036C211.422 19.09 211.854 19.126 212.286 19.126C212.682 19.126 212.88 18.91 212.88 18.496V14.68C212.232 14.914 211.602 15.13 210.972 15.328L210.54 13.618C211.332 13.438 212.106 13.222 212.88 12.952V9.19H210.918V7.552H212.88V4.294H214.608V7.552H216.156V9.19H214.608V12.25C215.112 12.016 215.598 11.764 216.102 11.512V13.24C215.598 13.492 215.094 13.744 214.608 13.96V18.928C214.608 20.098 214.032 20.692 212.88 20.692ZM228.99 4.852H245.01V6.382H239.844V7.696H243.93V12.466H236.55C236.28 12.916 236.046 13.33 235.83 13.726H245.226V15.31H241.464C241.104 16.246 240.528 17.056 239.718 17.776C241.428 18.298 243.192 18.91 244.992 19.594L243.93 20.998C242.022 20.188 240.096 19.468 238.17 18.838C236.478 19.702 233.706 20.404 229.854 20.926L229.206 19.414C232.086 19.09 234.336 18.676 235.92 18.136C234.534 17.722 233.148 17.362 231.762 17.038C232.158 16.462 232.554 15.886 232.914 15.31H228.756V13.726H233.886C234.138 13.294 234.39 12.88 234.624 12.466H230.07V7.696H234.156V6.382H228.99V4.852ZM237.864 17.236C238.71 16.696 239.322 16.066 239.682 15.31H234.876L234.174 16.354C235.38 16.606 236.604 16.894 237.864 17.236ZM238.206 7.696V6.382H235.794V7.696H238.206ZM242.292 11.008V9.154H239.844V11.008H242.292ZM238.206 11.008V9.154H235.794V11.008H238.206ZM234.156 11.008V9.154H231.708V11.008H234.156ZM247.242 7.408H254.262V4.222H255.99V7.408H259.41C258.834 6.76 258.078 6.076 257.178 5.356L258.276 4.312C259.284 5.05 260.148 5.788 260.832 6.526L259.95 7.408H262.722V9.046H255.99V10.036C256.44 11.008 256.98 11.908 257.592 12.772C258.798 11.836 259.824 10.792 260.688 9.604L261.966 10.72C260.994 11.944 259.842 13.006 258.51 13.924C259.842 15.508 261.462 16.894 263.388 18.082L262.182 19.504C259.518 17.614 257.448 15.346 255.99 12.7V18.928C255.99 20.134 255.396 20.746 254.226 20.746H251.76L251.382 19.108C252.174 19.18 252.912 19.216 253.632 19.216C254.046 19.216 254.262 18.964 254.262 18.496V14.248C252.444 16.408 250.338 18.208 247.962 19.666L247.026 18.118C249.744 16.66 252.156 14.698 254.262 12.25V9.046H247.242V7.408ZM249.24 10C250.41 11.062 251.4 12.124 252.228 13.186L251.058 14.338C250.338 13.348 249.348 12.286 248.052 11.134L249.24 10ZM270.516 5.428H274.962L275.07 4.15L276.726 4.384L276.618 5.428H280.758V6.904H276.438L276.276 7.804H279.822V16.048H281.388V17.56H277.842C279.03 18.19 280.146 18.928 281.19 19.774L280.164 20.962C279.084 20.026 277.932 19.198 276.708 18.496L277.734 17.56H273.558L274.638 18.496C273.594 19.432 272.316 20.26 270.768 20.98L269.76 19.702C271.218 19.09 272.442 18.37 273.432 17.56H269.886V16.282C268.374 16.894 266.772 17.398 265.098 17.812L264.666 16.156C265.368 16.03 266.052 15.886 266.718 15.706V10.126H264.846V8.506H266.718V4.312H268.356V8.506H270.066V10.126H268.356V15.202C268.914 15.004 269.454 14.788 269.994 14.572V16.048H271.47V7.804H274.656C274.71 7.48 274.764 7.192 274.8 6.904H270.516V5.428ZM273.072 16.048H278.22V15.148H273.072V16.048ZM273.072 13.978H278.22V13.132H273.072V13.978ZM273.072 11.962H278.22V11.134H273.072V11.962ZM273.072 9.964H278.22V9.118H273.072V9.964ZM288.372 10.306C288.174 11.008 287.976 11.674 287.796 12.286H297.39C297.318 16.786 297.012 19.324 296.508 19.9C296.022 20.44 294.978 20.728 293.376 20.746H291.846L291.378 19.144C292.116 19.18 292.8 19.198 293.448 19.198C294.312 19.198 294.87 19.036 295.158 18.73C295.446 18.37 295.608 16.75 295.662 13.87H285.636C286.428 11.278 287.004 8.992 287.382 7.012L289.074 7.174C288.966 7.714 288.858 8.218 288.75 8.686H295.896V10.306H288.372ZM283.26 15.616H294.096V17.254H283.26V15.616ZM298.362 4.888V9.01H296.67V6.49H285.33V8.992H283.638V4.888H298.362ZM314.634 20.782H312.276L311.808 19.072L314.076 19.144C314.472 19.144 314.67 18.892 314.67 18.388V6.49H303.33V20.836H301.62V4.834H316.38V18.766C316.38 20.098 315.786 20.782 314.634 20.782ZM304.41 8.2H313.59V9.784H304.41V8.2ZM305.346 11.422H312.672V17.452H305.346V11.422ZM311.016 15.922V12.952H307.002V15.922H311.016ZM320.826 7.48H326.154V6.58H319.242V5.122H326.154V4.186H327.846V5.122H334.758V6.58H327.846V7.48H333.174V11.188H327.846V12.088H333.426V14.446H335.244V15.832H333.426V18.19H327.846V19.108C327.846 20.224 327.252 20.782 326.064 20.782H323.85L323.49 19.162C324.174 19.234 324.84 19.288 325.488 19.288C325.92 19.288 326.154 19.09 326.154 18.712V18.19H320.376V16.822H326.154V15.832H318.756V14.446H326.154V13.42H320.394V12.088H326.154V11.188H320.826V7.48ZM331.482 9.91V8.74H327.846V9.91H331.482ZM326.154 9.91V8.74H322.518V9.91H326.154ZM327.846 13.42V14.446H331.788V13.42H327.846ZM331.788 15.832H327.846V16.822H331.788V15.832ZM338.574 11.368C338.106 11.98 337.62 12.592 337.08 13.204L336.522 11.368C338.178 9.28 339.42 6.832 340.23 4.06L341.832 4.816C341.418 6.148 340.896 7.444 340.248 8.686V20.89H338.574V11.368ZM341.508 6.418H346.782C346.548 5.806 346.278 5.212 345.972 4.636L347.61 4.186C347.988 4.996 348.276 5.734 348.474 6.418H353.334V8.02H341.508V6.418ZM343.146 9.118H351.804V10.648H343.146V9.118ZM343.146 11.656H351.804V13.204H343.146V11.656ZM352.182 14.338V20.854H350.526V19.918H344.406V20.854H342.75V14.338H352.182ZM344.406 18.316H350.526V15.922H344.406V18.316ZM357.312 5.464H361.29C361.506 5.014 361.668 4.564 361.794 4.096L363.576 4.33C363.468 4.726 363.306 5.104 363.126 5.464H368.832V14.554H357.312V5.464ZM367.176 13.096V11.926H358.968V13.096H367.176ZM358.968 10.558H367.176V9.424H358.968V10.558ZM358.968 8.074H367.176V6.922H358.968V8.074ZM356.34 15.598L357.96 15.922C357.528 17.596 356.952 19.036 356.196 20.26L354.756 19.342C355.512 18.19 356.034 16.93 356.34 15.598ZM365.304 20.584H360.732C359.544 20.584 358.95 20.008 358.95 18.856V15.562H360.678V18.496C360.678 18.856 360.858 19.054 361.218 19.054H364.98C365.322 19.054 365.556 18.964 365.682 18.784C365.88 18.568 366.006 17.938 366.06 16.876L367.698 17.398C367.554 18.928 367.284 19.846 366.906 20.17C366.546 20.44 366.024 20.584 365.304 20.584ZM363.09 14.86C363.972 15.76 364.656 16.534 365.124 17.218L363.846 18.118C363.342 17.362 362.676 16.534 361.83 15.634L363.09 14.86ZM368.85 15.238C369.93 16.642 370.74 17.884 371.316 18.928L369.966 19.882C369.354 18.73 368.544 17.47 367.518 16.066L368.85 15.238Z" fill="#222222"/>
<defs>
<linearGradient id="paint0_linear_4155_15742" x1="13.2636" y1="3.69043" x2="13.2636" y2="19.5001" gradientUnits="userSpaceOnUse">
<stop stop-color="#00FFF0"/>
<stop offset="1" stop-color="#217EFD"/>
</linearGradient>
<linearGradient id="paint1_linear_4155_15742" x1="6.15921" y1="8.26672" x2="6.15921" y2="19.5" gradientUnits="userSpaceOnUse">
<stop stop-color="#00FFF0"/>
<stop offset="1" stop-color="#217EFD"/>
</linearGradient>
</defs>
</svg>