<svg width="202" height="48" viewBox="0 0 202 48" fill="none" xmlns="http://www.w3.org/2000/svg">
<path d="M0 8C0 3.58172 3.58172 0 8 0H194C198.418 0 202 3.58172 202 8V40C202 44.4183 198.418 48 194 48H8C3.58172 48 0 44.4183 0 40V8Z" fill="#E4F0FF"/>
<rect opacity="0.01" x="24" y="15" width="18" height="18" fill="black"/>
<path fill-rule="evenodd" clip-rule="evenodd" d="M30.6899 23.8842H32.2142V17.0887C32.2142 17.0003 32.2884 16.928 32.3792 16.928H33.6168C33.7075 16.928 33.7818 17.0003 33.7818 17.0887V23.8842H35.3102C35.4484 23.8842 35.5247 24.0388 35.4402 24.1433L33.13 26.9916C33.064 27.074 32.9361 27.074 32.8701 26.9916L30.56 24.1453C30.4754 24.0388 30.5517 23.8842 30.6899 23.8842ZM40.5492 26.29H39.3116C39.2209 26.29 39.1466 26.3623 39.1466 26.4507V29.5441H26.8533V26.4507C26.8533 26.3623 26.779 26.29 26.6882 26.29H25.4507C25.3599 26.29 25.2856 26.3623 25.2856 26.4507V30.428C25.2856 30.7835 25.5806 31.0708 25.9457 31.0708H40.0542C40.4193 31.0708 40.7142 30.7835 40.7142 30.428V26.4507C40.7142 26.3623 40.64 26.29 40.5492 26.29Z" fill="#217EFD"/>
<path d="M50.816 17.552H65.168V19.184H58.416V21.136C60.368 22.064 62.336 23.136 64.336 24.32L63.328 25.824C61.36 24.576 59.728 23.6 58.416 22.928V31.664H56.736V19.184H50.816V17.552ZM67.728 17.984H70.656V16.816H72.288V17.984H74.992V19.488H72.288V20.512H75.616C75.552 19.36 75.52 18.128 75.52 16.8H77.136C77.136 18.176 77.168 19.424 77.232 20.512H81.088V22.032H77.328C77.408 23.328 77.536 24.368 77.696 25.168L77.824 25.792C78.256 24.8 78.608 23.712 78.896 22.496L80.384 23.168C79.888 25.104 79.248 26.736 78.48 28.064C78.576 28.304 78.656 28.512 78.752 28.688C79.12 29.408 79.392 29.776 79.584 29.776C79.728 29.776 79.888 29.024 80.048 27.52L81.456 28.288C81.072 30.416 80.528 31.488 79.792 31.488C79.2 31.488 78.56 31.008 77.888 30.048C77.76 29.856 77.632 29.664 77.536 29.456C76.768 30.416 75.888 31.152 74.912 31.68L74 30.336C75.088 29.728 76.032 28.848 76.8 27.696C76.576 27.056 76.384 26.336 76.224 25.552C76 24.56 75.824 23.392 75.712 22.032H66.896V20.512H70.656V19.488H67.728V17.984ZM78.768 16.944C79.568 17.84 80.192 18.624 80.624 19.296L79.392 20.16C78.928 19.44 78.304 18.64 77.504 17.744L78.768 16.944ZM74.992 28.128V29.568C74.256 29.664 73.488 29.76 72.688 29.856V31.616H71.056V30.016C69.968 30.112 68.832 30.208 67.664 30.304L67.472 28.768C68.736 28.704 69.936 28.624 71.056 28.528V27.472H68.16L67.824 26.144C68.176 25.712 68.528 25.184 68.848 24.56H67.376V23.088H69.472C69.6 22.752 69.712 22.416 69.824 22.08L71.408 22.384C71.312 22.624 71.232 22.864 71.152 23.088H75.072V24.56H70.544C70.272 25.104 69.984 25.616 69.696 26.08H71.056V25.12H72.688V26.08H74.912V27.472H72.688V28.384C73.504 28.304 74.272 28.224 74.992 28.128ZM84.448 24.848H95.552V26.416H90.832V29.568H96.896V31.168H83.104V29.568H89.136V26.416H84.448V24.848ZM91.616 20.496C93.28 21.232 94.784 22.128 96.144 23.184L95.2 24.608C93.76 23.424 92.272 22.48 90.752 21.808L91.616 20.496ZM88.016 20.592L89.056 21.776C87.776 22.896 86.224 23.824 84.4 24.56L83.68 23.04C85.44 22.4 86.896 21.584 88.016 20.592ZM90.304 16.72C90.496 17.184 90.672 17.696 90.864 18.272H96.944V21.744H95.264V19.808H84.752V21.728H83.072V18.272H89.104C88.912 17.824 88.704 17.392 88.48 17.008L90.304 16.72ZM104.672 19.456V30.672H103.072V29.872H100.704V31.136H99.104V19.456H100.64C100.928 18.608 101.136 17.728 101.264 16.816L102.944 17.04C102.768 17.904 102.528 18.72 102.24 19.456H104.672ZM100.704 28.336H103.072V25.312H100.704V28.336ZM100.704 23.824H103.072V21.024H100.704V23.824ZM107.584 23.344C108.608 24.64 109.392 25.776 109.952 26.768L108.608 27.696C108.016 26.64 107.216 25.472 106.224 24.192L107.584 23.344ZM112.912 19.456C112.912 25.056 112.832 28.512 112.672 29.824C112.512 30.944 111.744 31.504 110.368 31.504C110.048 31.504 109.472 31.472 108.64 31.408L108.24 29.888C108.944 29.936 109.568 29.968 110.096 29.968C110.672 29.968 111.008 29.648 111.104 29.024C111.2 28.256 111.248 25.616 111.28 21.088H107.408C106.976 22.048 106.464 22.912 105.872 23.68L104.864 22.352C105.92 20.848 106.624 18.992 107.008 16.8L108.656 17.008C108.496 17.872 108.288 18.688 108.048 19.456H112.912ZM114.64 25.536H124.24V24.816H125.92V25.536H129.344V27.168H125.92V30.128C125.92 31.184 125.344 31.712 124.192 31.712H122.192L121.808 30.08C122.448 30.144 123.04 30.192 123.616 30.192C124.032 30.192 124.24 30.032 124.24 29.712V27.168H114.64V25.536ZM127.04 17.36V21.504H117.904V22.192C117.904 22.624 118.128 22.848 118.608 22.848H126.88C127.12 22.832 127.28 22.752 127.376 22.592C127.44 22.48 127.504 22.112 127.584 21.488L129.168 22.016C129.056 22.752 128.944 23.264 128.832 23.584C128.64 24.096 128.16 24.352 127.424 24.384H117.936C116.784 24.384 116.224 23.872 116.224 22.864V17.36H127.04ZM117.904 20H125.36V18.864H117.904V20ZM118.752 27.248C119.776 28.048 120.656 28.848 121.36 29.648L120.112 30.896C119.504 30.128 118.656 29.296 117.552 28.4L118.752 27.248ZM137.056 20.736C136.336 19.44 135.488 18.448 134.496 17.744L135.888 16.848C137.2 17.776 138.384 19.584 139.44 22.256C140.96 25.968 142.912 28.592 145.312 30.128L144.272 31.456C141.792 29.984 139.696 27.088 137.984 22.8L137.936 22.656C136.848 26.448 134.72 29.392 131.52 31.472L130.496 30.032C133.808 27.856 136 24.768 137.056 20.736ZM151.584 18.064H153.68V16.912H155.232V18.064H157.328V16.912H158.896V18.064H161.2V19.536H158.896V20.48H157.328V19.536H155.232V20.48H153.68V19.536H151.584V18.064ZM156.16 28.656C155.984 28.944 155.808 29.2 155.616 29.456C154.88 30.4 153.568 31.136 151.712 31.68L151.136 30.304C152.656 29.888 153.76 29.28 154.432 28.512C154.496 28.432 154.544 28.368 154.576 28.32H151.216V26.816H155.344C155.424 26.544 155.488 26.256 155.552 25.968H152.304V20.832H160.24V25.968H157.024C156.976 26.256 156.928 26.544 156.864 26.816H161.232V28.32H157.712C158.576 29.152 159.808 29.856 161.44 30.4L160.304 31.744C158.416 30.912 157.024 29.888 156.16 28.656ZM150.272 24.048V31.616H148.704V24.672C148.288 25.84 147.808 26.928 147.232 27.936L146.512 26.08C147.504 24.736 148.24 23.216 148.704 21.52V21.376H147.024V19.856H148.704V16.96H150.272V19.856H151.776V21.376H150.272V22.208C150.912 22.96 151.584 23.792 152.256 24.704L151.376 26.032C150.96 25.248 150.592 24.592 150.272 24.048ZM158.736 24.72V24.016H153.792V24.72H158.736ZM153.792 22.8H158.736V22.112H153.792V22.8ZM162.784 19.808H164.88V16.864H166.56V19.808H168.288V21.424H166.56V22.064C167.232 22.736 167.904 23.488 168.576 24.304L167.648 25.728C167.232 24.96 166.88 24.32 166.56 23.776V31.6H164.88V24.608C164.432 25.872 163.888 27.04 163.248 28.096L162.528 26.24C163.584 24.832 164.352 23.232 164.832 21.424H162.784V19.808ZM176.192 16.88L177.024 18.416C175.04 18.96 172.832 19.28 170.4 19.376V21.328H176.576V22.56C176.432 24.592 175.84 26.384 174.816 27.952C175.568 28.784 176.48 29.504 177.552 30.128L176.704 31.632C175.552 30.96 174.576 30.176 173.776 29.264C172.928 30.192 171.904 31.008 170.72 31.744L169.632 30.448C170.88 29.712 171.92 28.864 172.752 27.92C171.824 26.48 171.216 24.816 170.896 22.928H170.4V24.064C170.32 27.248 169.648 29.792 168.384 31.696L167.168 30.416C168.16 28.88 168.704 26.768 168.784 24.064V17.984C171.552 17.936 174.016 17.568 176.192 16.88ZM173.744 26.544C174.4 25.44 174.832 24.24 175.04 22.928H172.352C172.608 24.272 173.072 25.488 173.744 26.544Z" fill="#217EFD"/>
</svg>