<svg width="720" height="232" viewBox="0 0 720 232" fill="none" xmlns="http://www.w3.org/2000/svg">
<path d="M0 8C0 3.58173 3.58172 0 8 0H712C716.418 0 720 3.58172 720 8V224C720 228.418 716.418 232 712 232H8.00002C3.58174 232 0 228.418 0 224V8Z" fill="#F6FAFF"/>
<path d="M694 16V16.5H696C696.501 16.5 696.991 16.549 697.464 16.6426L697.561 16.1523C698.61 16.3599 699.586 16.773 700.444 17.3477L700.167 17.7627C700.985 18.3104 701.69 19.0149 702.237 19.833L702.651 19.5547C703.226 20.4131 703.639 21.3888 703.847 22.4385L703.357 22.5361C703.451 23.0092 703.5 23.4986 703.5 24V26H704V30H703.5V34H704V38H703.5V42H704V46H703.5V50H704V54H703.5V58H704V62H703.5V66H704V70H703.5V74H704V78H703.5V82H704V86H703.5V90H704V94H703.5V98H704V102H703.5V106H704V110H703.5V114H704V118H703.5V122H704V126H703.5V130H704V134H703.5V138H704V142H703.5V146H704V150H703.5V154H704V158H703.5V162H704V166H703.5V170H704V174H703.5V178H704V182H703.5V186H704V190H703.5V194H704V198H703.5V202H704V206H703.5V208C703.5 208.501 703.451 208.991 703.357 209.464L703.847 209.561C703.639 210.61 703.226 211.586 702.651 212.444L702.237 212.167C701.69 212.985 700.985 213.69 700.167 214.237L700.444 214.651C699.586 215.226 698.61 215.639 697.561 215.847L697.464 215.357C696.991 215.451 696.501 215.5 696 215.5H694V216H690V215.5H686V216H682V215.5H678V216H674V215.5H670V216H666V215.5H662V216H658V215.5H654V216H650V215.5H646V216H642V215.5H638V216H634V215.5H630V216H626V215.5H622V216H618V215.5H614V216H610V215.5H606V216H602V215.5H598V216H594V215.5H590V216H586V215.5H582V216H578V215.5H574V216H570V215.5H566V216H562V215.5H558V216H554V215.5H550V216H546V215.5H542V216H538V215.5H534V216H530V215.5H526V216H522V215.5H518V216H514V215.5H510V216H506V215.5H502V216H498V215.5H494V216H490V215.5H486V216H482V215.5H478V216H474V215.5H470V216H466V215.5H462V216H458V215.5H454V216H450V215.5H446V216H442V215.5H438V216H434V215.5H430V216H426V215.5H422V216H418V215.5H414V216H410V215.5H406V216H402V215.5H398V216H394V215.5H390V216H386V215.5H382V216H378V215.5H374V216H370V215.5H366V216H362V215.5H358V216H354V215.5H350V216H346V215.5H342V216H338V215.5H334V216H330V215.5H326V216H322V215.5H318V216H314V215.5H310V216H306V215.5H302V216H298V215.5H294V216H290V215.5H286V216H282V215.5H278V216H274V215.5H270V216H266V215.5H262V216H258V215.5H254V216H250V215.5H246V216H242V215.5H238V216H234V215.5H230V216H226V215.5H222V216H218V215.5H214V216H210V215.5H206V216H202V215.5H198V216H194V215.5H190V216H186V215.5H182V216H178V215.5H174V216H170V215.5H166V216H162V215.5H158V216H154V215.5H150V216H146V215.5H142V216H138V215.5H134V216H130V215.5H126V216H122V215.5H118V216H114V215.5H110V216H106V215.5H102V216H98V215.5H94V216H90V215.5H86V216H82V215.5H78V216H74V215.5H70V216H66V215.5H62V216H58V215.5H54V216H50V215.5H46V216H42V215.5H38V216H34V215.5H30V216H26V215.5H24C23.4986 215.5 23.0092 215.451 22.5361 215.357L22.4385 215.847C21.3888 215.639 20.4131 215.226 19.5547 214.651L19.833 214.237C19.0149 213.69 18.3104 212.985 17.7627 212.167L17.3477 212.444C16.773 211.586 16.3599 210.61 16.1523 209.561L16.6426 209.464C16.549 208.991 16.5 208.501 16.5 208V206H16V202H16.5V198H16V194H16.5V190H16V186H16.5V182H16V178H16.5V174H16V170H16.5V166H16V162H16.5V158H16V154H16.5V150H16V146H16.5V142H16V138H16.5V134H16V130H16.5V126H16V122H16.5V118H16V114H16.5V110H16V106H16.5V102H16V98H16.5V94H16V90H16.5V86H16V82H16.5V78H16V74H16.5V70H16V66H16.5V62H16V58H16.5V54H16V50H16.5V46H16V42H16.5V38H16V34H16.5V30H16V26H16.5V24C16.5 23.4986 16.549 23.0092 16.6426 22.5361L16.1523 22.4385C16.36 21.3889 16.7729 20.413 17.3477 19.5547L17.7627 19.833C18.3104 19.0149 19.0149 18.3104 19.833 17.7627L19.5547 17.3477C20.413 16.7729 21.3889 16.36 22.4385 16.1523L22.5361 16.6426C23.0092 16.549 23.4986 16.5 24 16.5H26V16H30V16.5H34V16H38V16.5H42V16H46V16.5H50V16H54V16.5H58V16H62V16.5H66V16H70V16.5H74V16H78V16.5H82V16H86V16.5H90V16H94V16.5H98V16H102V16.5H106V16H110V16.5H114V16H118V16.5H122V16H126V16.5H130V16H134V16.5H138V16H142V16.5H146V16H150V16.5H154V16H158V16.5H162V16H166V16.5H170V16H174V16.5H178V16H182V16.5H186V16H190V16.5H194V16H198V16.5H202V16H206V16.5H210V16H214V16.5H218V16H222V16.5H226V16H230V16.5H234V16H238V16.5H242V16H246V16.5H250V16H254V16.5H258V16H262V16.5H266V16H270V16.5H274V16H278V16.5H282V16H286V16.5H290V16H294V16.5H298V16H302V16.5H306V16H310V16.5H314V16H318V16.5H322V16H326V16.5H330V16H334V16.5H338V16H342V16.5H346V16H350V16.5H354V16H358V16.5H362V16H366V16.5H370V16H374V16.5H378V16H382V16.5H386V16H390V16.5H394V16H398V16.5H402V16H406V16.5H410V16H414V16.5H418V16H422V16.5H426V16H430V16.5H434V16H438V16.5H442V16H446V16.5H450V16H454V16.5H458V16H462V16.5H466V16H470V16.5H474V16H478V16.5H482V16H486V16.5H490V16H494V16.5H498V16H502V16.5H506V16H510V16.5H514V16H518V16.5H522V16H526V16.5H530V16H534V16.5H538V16H542V16.5H546V16H550V16.5H554V16H558V16.5H562V16H566V16.5H570V16H574V16.5H578V16H582V16.5H586V16H590V16.5H594V16H598V16.5H602V16H606V16.5H610V16H614V16.5H618V16H622V16.5H626V16H630V16.5H634V16H638V16.5H642V16H646V16.5H650V16H654V16.5H658V16H662V16.5H666V16H670V16.5H674V16H678V16.5H682V16H686V16.5H690V16H694Z" fill="white" stroke="#217EFD" stroke-dasharray="4 4"/>
<path fill-rule="evenodd" clip-rule="evenodd" d="M381.629 60.2857C381.629 59.0233 380.609 58 379.352 58H344.063C342.806 58 341.787 59.0233 341.787 60.2857V70.5714H334.957C334.655 70.5714 334.365 70.6918 334.152 70.9062C333.938 71.1205 333.818 71.4112 333.818 71.7143V92.2857C333.818 92.5888 333.938 92.8795 334.152 93.0938C334.365 93.3082 334.655 93.4286 334.957 93.4286H341.787V103.714C341.787 104.977 342.806 106 344.063 106H363.551L366.762 102H345.771V93.4286H352.032C352.66 93.4286 353.17 92.9169 353.17 92.2857V71.7143C353.17 71.0831 352.66 70.5714 352.032 70.5714H345.771V62H377.644V83.1429H381.629V60.2857ZM379.757 87.9168C379.66 87.7888 379.511 87.7145 379.352 87.7145H379.35C379.191 87.7148 379.041 87.7896 378.945 87.9168L372.639 95.5853C372.416 95.8573 372.52 96.0791 372.871 96.0791H377.529L377.53 106H381.514L381.513 96.0791H385.833C386.184 96.0791 386.287 95.8573 386.063 95.5853L379.757 87.9168ZM372.522 86.6055V89.9998H358.862V86.6055H372.522ZM337.233 75.1424H340.912L343.455 79.1218L345.982 75.1424H349.661L345.303 82.0075L349.661 88.8567H345.982L343.455 84.8773L340.912 88.8567H337.233L341.592 82.0075L337.233 75.1424ZM372.522 80.3029V83.6972H358.862V80.3029H372.522ZM372.522 77.3946V74.0004H358.862V77.3946H372.522Z" fill="url(#paint0_linear_4155_15760)"/>
<path d="M250.794 127.348H252.648V128.878H259.452V130.624H252.648V132.388H258.354V138.616H245.934V132.388H250.794V127.348ZM256.482 136.888V134.134H247.806V136.888H256.482ZM245.898 139.138L247.464 139.894C246.816 141.424 246.078 142.756 245.214 143.872L243.666 142.738C244.53 141.73 245.268 140.542 245.898 139.138ZM250.344 139.732C250.704 140.884 251.01 142.108 251.298 143.44L249.408 143.89C249.192 142.45 248.904 141.19 248.58 140.092L250.344 139.732ZM254.07 139.48C254.574 140.686 255.024 142 255.42 143.404L253.548 143.854C253.224 142.342 252.81 140.992 252.306 139.84L254.07 139.48ZM257.652 139.048C258.768 140.524 259.632 141.802 260.244 142.882L258.66 143.962C258.03 142.774 257.184 141.46 256.122 140.02L257.652 139.048ZM263.358 129.688H269.028V127.348H270.972V129.688H276.552V131.47H270.972V133.918H278.028V135.718H270.972V141.478H274.644V136.942H276.426V143.908H274.644V143.206H263.592V136.942H265.374V141.478H269.028V135.718H261.99V133.918H269.028V131.47H263.358V129.688ZM280.746 132.568H287.73V138.346H280.746V132.568ZM285.876 136.654V134.296H282.618V136.654H285.876ZM288.144 138.868V140.668C285.696 141.352 283.086 141.928 280.296 142.396L279.846 140.524C282.654 140.2 285.426 139.642 288.144 138.868ZM294.138 143.818C293.166 143.8 292.266 143.224 291.402 142.072C291.222 141.838 291.06 141.604 290.916 141.352C289.98 142.432 288.936 143.296 287.82 143.98L286.776 142.36C288 141.64 289.08 140.686 290.034 139.48C289.782 138.85 289.584 138.166 289.422 137.428C289.008 135.646 288.774 133.558 288.738 131.164H279.918V129.328H288.738V127.222H290.628V129.328H292.572C292.32 128.806 292.032 128.32 291.726 127.87L293.616 127.564C293.886 128.086 294.156 128.68 294.408 129.328H296.064V131.164H290.646C290.682 133.144 290.826 134.908 291.096 136.42C291.168 136.816 291.24 137.176 291.33 137.536C292.194 136.024 292.914 134.278 293.508 132.28L295.164 133.162C294.336 135.808 293.31 138.022 292.104 139.822C292.212 140.038 292.32 140.236 292.428 140.434C292.968 141.298 293.472 141.748 293.922 141.748C294.246 141.748 294.516 140.83 294.75 138.994L296.352 140.056C295.848 142.558 295.11 143.818 294.138 143.818ZM303.84 135.736H310.482V134.134H312.354V135.736H314.334V137.554H312.354V141.946C312.354 143.188 311.688 143.818 310.356 143.818H307.962L307.548 142.018C308.304 142.09 309.024 142.144 309.708 142.144C310.212 142.144 310.482 141.91 310.482 141.478V137.554H303.84V135.736ZM301.266 127.204H303.174V143.872H301.266V138.472C300.24 139.444 299.268 140.254 298.368 140.866L297.54 139.048C298.584 138.4 299.826 137.446 301.266 136.186V127.204ZM306.468 137.878C307.404 138.922 308.142 139.822 308.664 140.578L307.188 141.604C306.666 140.758 305.964 139.804 305.1 138.742L306.468 137.878ZM307.584 130.084C306.792 130.948 305.82 131.686 304.65 132.298L303.444 130.822C305.316 129.922 306.558 128.698 307.206 127.186L309.15 127.546C309.024 127.834 308.898 128.122 308.772 128.374H313.794V129.976C312.894 132.568 310.05 134.368 305.226 135.394L304.29 133.72C305.55 133.468 306.648 133.18 307.602 132.856C307.17 132.46 306.738 132.118 306.306 131.812L307.62 130.804C308.196 131.236 308.718 131.686 309.222 132.154C310.356 131.56 311.184 130.876 311.706 130.084H307.584ZM299.214 129.256C299.952 130.516 300.582 131.848 301.122 133.252L299.466 133.936C298.89 132.406 298.26 131.056 297.576 129.904L299.214 129.256ZM316.026 130.048H323.154C322.704 129.22 322.146 128.446 321.498 127.708L323.388 127.024C324.036 127.87 324.63 128.878 325.17 130.048H331.974V131.92H329.256C328.392 134.62 327.132 136.87 325.476 138.688C327.33 140.164 329.634 141.388 332.37 142.396L331.326 143.998C328.446 142.918 326.052 141.586 324.144 140.002C322.128 141.784 319.644 143.098 316.71 143.926L315.702 142.27C318.564 141.532 320.94 140.38 322.812 138.796C320.868 136.816 319.518 134.53 318.762 131.92H316.026V130.048ZM320.562 131.92C321.3 134.044 322.488 135.898 324.144 137.518C325.548 135.97 326.61 134.098 327.312 131.92H320.562ZM337.428 127.042L339.192 127.888C338.742 129.292 338.166 130.606 337.446 131.866V143.872H335.592V134.602C335.124 135.178 334.638 135.736 334.134 136.276L333.504 134.26C335.268 132.226 336.582 129.814 337.428 127.042ZM340.47 128.41L342.306 128.644C342.18 129.4 342.018 130.138 341.82 130.84H343.782V127.294H345.672V130.84H349.578V132.676H345.672V136.366H350.262V138.184H345.672V143.818H343.782V138.184H338.76V136.366H343.782V132.676H341.208C340.758 133.792 340.218 134.818 339.588 135.736L338.382 134.17C339.408 132.604 340.11 130.678 340.47 128.41ZM353.952 143.71H352.368L351.972 141.946C352.44 142.018 352.872 142.072 353.304 142.072C353.7 142.072 353.898 141.838 353.898 141.388V137.806C353.286 138.022 352.656 138.22 352.044 138.4L351.558 136.51C352.35 136.348 353.124 136.15 353.898 135.898V132.262H351.9V130.48H353.898V127.276H355.734V130.48H357.282V132.082C358.272 130.822 359.136 129.184 359.874 127.168L361.566 127.546C361.386 128.086 361.188 128.59 360.99 129.076H367.866V130.858H360.162C359.82 131.524 359.46 132.136 359.1 132.694H360.702V134.494L362.196 134.008V131.434H363.852V133.486L367.398 132.352C367.398 135.664 367.308 137.68 367.128 138.364C366.948 139.066 366.21 139.426 364.914 139.426H364.59L364.086 137.806C364.518 137.806 364.914 137.824 365.238 137.824C365.454 137.824 365.58 137.662 365.634 137.374C365.67 137.104 365.688 136.186 365.706 134.62L363.852 135.196V140.668H362.196V135.718L360.702 136.186V140.992C360.702 141.586 360.9 141.892 361.314 141.892H365.112C365.616 141.892 365.994 141.784 366.246 141.568C366.462 141.334 366.606 140.578 366.678 139.318L368.298 139.858C368.154 141.604 367.902 142.666 367.524 143.026C367.128 143.386 366.426 143.566 365.418 143.566H360.918C359.64 143.566 359.01 142.774 359.01 141.226V136.708L357.858 137.068V135.394L359.01 135.034V132.82C358.704 133.252 358.398 133.648 358.11 134.026L356.886 132.568C356.976 132.46 357.066 132.37 357.138 132.262H355.734V135.232C356.292 134.998 356.832 134.746 357.372 134.476V136.366C356.832 136.618 356.274 136.87 355.734 137.104V141.856C355.734 143.08 355.14 143.71 353.952 143.71ZM376.308 128.878H379.89V127.258H381.672V128.878H385.38V137.014H381.744C381.78 137.644 381.852 138.22 381.96 138.76C382.752 138.328 383.436 137.842 384.048 137.338L385.452 138.382C384.588 139.174 383.598 139.876 382.446 140.488C382.536 140.722 382.644 140.938 382.752 141.118C383.076 141.64 383.382 141.91 383.634 141.91C384.102 141.91 384.498 141.1 384.822 139.516L386.352 140.488C385.776 142.684 384.948 143.8 383.85 143.8C383.148 143.782 382.482 143.404 381.852 142.684C381.474 142.252 381.168 141.766 380.916 141.208C379.332 141.874 377.55 142.414 375.534 142.828L374.76 141.136C376.902 140.722 378.756 140.182 380.34 139.534C380.16 138.778 380.034 137.932 379.962 137.014H376.308V128.878ZM383.634 135.358V133.738H381.672V135.358H383.634ZM379.89 135.358V133.738H378.072V135.358H379.89ZM378.072 132.154H379.89V130.57H378.072V132.154ZM381.672 130.57V132.154H383.634V130.57H381.672ZM372.078 143.674H370.458L370.062 141.928C370.53 142 370.998 142.036 371.43 142.036C371.844 142.036 372.06 141.802 372.06 141.334V137.698C371.412 137.95 370.746 138.166 370.08 138.382L369.594 136.528C370.422 136.348 371.25 136.114 372.06 135.844V132.136H369.972V130.318H372.06V127.24H373.878V130.318H375.606V132.136H373.878V135.142C374.49 134.854 375.12 134.566 375.732 134.242V136.078C375.12 136.384 374.508 136.672 373.878 136.96V141.802C373.878 143.044 373.266 143.674 372.078 143.674ZM397.242 140.308V142.18C394.434 142.756 391.428 143.26 388.224 143.656L387.774 141.856C389.16 141.712 390.528 141.55 391.86 141.352V138.544H388.602V136.744H391.86V134.926H393.75V136.744H396.72V138.544H393.75V141.028C394.938 140.812 396.09 140.56 397.242 140.308ZM388.08 127.816H397.17V129.58H392.688C391.968 131.038 391.32 132.172 390.744 132.964C392.04 132.82 393.336 132.658 394.632 132.442C394.308 131.938 393.966 131.416 393.606 130.894L395.046 129.976C396.234 131.542 397.134 132.91 397.764 134.062L396.198 135.142C395.982 134.71 395.748 134.278 395.496 133.846C393.246 134.242 390.798 134.566 388.17 134.836L387.756 133.162C388.08 133.126 388.314 133.054 388.494 132.982C388.998 132.568 389.736 131.434 390.672 129.58H388.08V127.816ZM401.832 143.71H399.15L398.736 141.892C399.6 141.964 400.41 142 401.184 142C401.598 142 401.814 141.766 401.814 141.334V127.276H403.722V141.82C403.722 143.08 403.092 143.71 401.832 143.71ZM398.358 128.896H400.176V139.894H398.358V128.896ZM411.354 129.652H415.53C415.314 128.878 415.08 128.158 414.828 127.51L416.754 127.186C416.988 127.906 417.222 128.734 417.456 129.652H421.812V131.47H420.372C419.868 133.324 419.166 134.908 418.302 136.24C419.598 137.356 420.768 138.472 421.83 139.588L420.354 141.064C419.454 139.984 418.392 138.868 417.168 137.734C415.782 139.264 414.09 140.38 412.074 141.082L411.012 139.372C412.938 138.778 414.522 137.824 415.782 136.51C414.63 135.52 413.388 134.512 412.02 133.504L413.298 132.262C414.576 133.198 415.782 134.116 416.898 135.052C417.582 134.008 418.104 132.802 418.5 131.47H411.354V129.652ZM407.52 127.366C408.708 128.302 409.716 129.238 410.544 130.174L409.194 131.506C408.51 130.606 407.52 129.634 406.224 128.59L407.52 127.366ZM417.762 143.584C416.79 143.584 415.728 143.566 414.594 143.548C413.442 143.53 412.506 143.422 411.75 143.242C411.03 143.026 410.418 142.612 409.896 142C409.662 141.694 409.446 141.55 409.23 141.55C408.888 141.55 408.276 142.36 407.376 143.98L405.99 142.684C406.89 141.244 407.682 140.326 408.402 139.93V134.998H406.026V133.27H410.148V140.128L410.328 140.308C410.724 140.776 411.138 141.136 411.552 141.37C412.074 141.64 412.848 141.784 413.892 141.82C414.918 141.838 416.124 141.856 417.492 141.856C418.392 141.856 419.292 141.838 420.228 141.838C421.146 141.802 421.848 141.766 422.334 141.73L421.884 143.584H417.762ZM427.302 133.036V134.818H431.046V133.036H427.302ZM431.046 136.546H425.448V127.744H438.516V136.546H432.954V138.148H439.236V139.93H432.954V141.568H439.992V143.386H423.99V141.568H431.046V139.93H424.764V138.148H431.046V136.546ZM432.954 134.818H436.662V133.036H432.954V134.818ZM436.662 131.308V129.472H432.954V131.308H436.662ZM431.046 129.472H427.302V131.308H431.046V129.472ZM448.182 127.222H450.126V132.568H456.786V134.386H450.126V141.424H458.118V143.26H441.936V141.424H448.182V127.222ZM461.718 134.53C461.214 135.142 460.692 135.718 460.134 136.276L459.504 134.26C461.322 132.262 462.672 129.904 463.554 127.186L465.336 128.014C464.904 129.346 464.31 130.642 463.59 131.866V143.908H461.718V134.53ZM465.228 129.328H468.648L469.134 127.186L470.97 127.366C470.826 128.05 470.664 128.698 470.52 129.328H475.632V131.128H470.052C469.908 131.668 469.764 132.19 469.62 132.676H476.37V134.458H469.026C468.792 135.088 468.558 135.682 468.342 136.222H475.416V137.842C474.714 138.958 473.634 140.074 472.194 141.19C472.914 141.568 473.598 141.964 474.264 142.396L473.22 144.016C471.024 142.558 468.756 141.406 466.452 140.578L467.442 139.102C468.522 139.498 469.566 139.912 470.556 140.38C471.744 139.588 472.68 138.778 473.4 137.95H465.894C466.362 136.834 466.794 135.664 467.208 134.458H464.436V132.676H467.766C467.91 132.154 468.054 131.632 468.198 131.128H465.228V129.328Z" fill="url(#paint1_linear_4155_15760)"/>
<path d="M266.55 158.196H267.438V159.768H272.154V160.608H267.438V162.444H270.666V163.212C269.994 164.556 269.022 165.708 267.75 166.668C268.35 167.004 269.01 167.328 269.73 167.616C270.582 167.94 271.494 168.216 272.466 168.456L271.962 169.212C270.93 168.936 269.946 168.6 269.022 168.216C268.29 167.904 267.618 167.556 267.018 167.172C265.65 168.036 264.018 168.72 262.11 169.236L261.618 168.468C263.442 168.036 265.002 167.436 266.298 166.668C265.674 166.2 265.122 165.66 264.654 165.06C264.222 164.508 263.91 163.896 263.718 163.248H262.794V162.444H266.55V160.608H261.882V159.768H266.55V158.196ZM267.006 166.2C268.17 165.384 269.07 164.4 269.694 163.248H264.57C264.786 163.884 265.122 164.448 265.578 164.94C265.998 165.42 266.478 165.84 267.006 166.2ZM280.566 158.232H281.418V159.48H283.878V160.26H281.418V161.664H284.334V162.48H277.782V161.664H280.566V160.26H278.214V159.48H280.566V158.232ZM277.59 164.016H282.006V163.092H282.87V164.016H284.346V164.82H282.87V168.048C282.87 168.756 282.51 169.116 281.814 169.116H280.218L280.026 168.276C280.542 168.3 281.034 168.324 281.502 168.324C281.838 168.324 282.006 168.156 282.006 167.832V164.82H277.59V164.016ZM275.022 169.092H273.966L273.786 168.264C274.11 168.3 274.422 168.324 274.722 168.324C275.034 168.324 275.202 168.144 275.202 167.796V164.952C274.734 165.12 274.266 165.276 273.81 165.42L273.594 164.556C274.146 164.424 274.674 164.268 275.202 164.076V161.328H273.726V160.5H275.202V158.352H276.054V160.5H277.302V161.328H276.054V163.74C276.486 163.548 276.906 163.344 277.314 163.128V164.016C276.906 164.232 276.486 164.424 276.054 164.604V168.012C276.054 168.732 275.706 169.092 275.022 169.092ZM278.838 165.384C279.462 166.116 279.942 166.764 280.278 167.316L279.594 167.796C279.234 167.196 278.754 166.536 278.142 165.804L278.838 165.384ZM290.274 159.432H295.254V160.308H291.078L290.79 163.176H290.838C291.078 162.888 291.39 162.672 291.762 162.528C292.098 162.384 292.458 162.324 292.854 162.324C293.67 162.324 294.33 162.576 294.834 163.092C295.338 163.62 295.602 164.34 295.602 165.264C295.602 166.128 295.29 166.836 294.678 167.388C294.102 167.904 293.382 168.168 292.542 168.168C291.786 168.168 291.138 167.964 290.61 167.556C290.01 167.1 289.686 166.476 289.626 165.696H290.598C290.646 166.236 290.862 166.656 291.246 166.944C291.582 167.196 292.026 167.328 292.554 167.328C293.154 167.328 293.646 167.136 294.042 166.752C294.426 166.368 294.63 165.876 294.63 165.276C294.63 164.592 294.438 164.064 294.078 163.692C293.73 163.308 293.238 163.128 292.614 163.128C292.206 163.128 291.846 163.212 291.522 163.392C291.186 163.56 290.922 163.824 290.754 164.16H289.818L290.274 159.432ZM297.073 159.432H298.297L301.489 166.74H301.525L304.705 159.432H305.929V168H304.945V161.184H304.909L301.945 168H301.057L298.093 161.184H298.057V168H297.073V159.432ZM307.655 159.432H311.483C312.275 159.432 312.911 159.624 313.379 160.008C313.835 160.392 314.063 160.92 314.063 161.592C314.063 162.072 313.931 162.492 313.679 162.84C313.415 163.152 313.067 163.38 312.635 163.524C313.199 163.62 313.631 163.86 313.943 164.22C314.255 164.58 314.423 165.036 314.423 165.612C314.423 166.452 314.123 167.076 313.535 167.484C313.031 167.82 312.335 168 311.459 168H307.655V159.432ZM308.639 160.26V163.176H311.243C311.843 163.176 312.299 163.044 312.611 162.804C312.923 162.552 313.091 162.18 313.091 161.688C313.091 161.208 312.935 160.848 312.623 160.608C312.311 160.368 311.855 160.26 311.255 160.26H308.639ZM308.639 163.992V167.172H311.375C311.975 167.172 312.443 167.052 312.803 166.836C313.223 166.572 313.439 166.152 313.439 165.6C313.439 165.048 313.247 164.64 312.887 164.376C312.539 164.112 312.035 163.992 311.375 163.992H308.639ZM323.432 159.504C324.524 160.764 325.364 161.868 325.94 162.804L325.208 163.308C324.596 162.3 323.768 161.184 322.712 159.948L323.432 159.504ZM327.56 165.384C326.768 166.836 325.496 168.072 323.744 169.08L323.168 168.372C325.208 167.196 326.564 165.732 327.224 163.956C327.728 162.456 327.98 160.548 327.992 158.232H328.892C328.892 160.512 328.64 162.432 328.136 164.016C328.076 164.196 328.016 164.376 327.944 164.556C328.928 165.804 329.756 167.052 330.428 168.3L329.768 168.96C329.204 167.832 328.472 166.644 327.56 165.384ZM320.456 167.832L320.168 167.016C320.384 166.848 320.492 166.632 320.492 166.356V158.544H321.38V166.56C322.316 166.176 323.24 165.708 324.164 165.156L324.404 165.996C323.18 166.704 321.86 167.316 320.456 167.832ZM336.872 163.116C336.38 164.484 335.444 165.612 334.052 166.524L333.476 165.816C334.82 164.928 335.708 163.824 336.14 162.492C336.272 162.024 336.38 161.52 336.464 160.968H333.044V169.188H332.168V160.128H336.56C336.62 159.516 336.656 158.856 336.656 158.16H337.532C337.532 158.868 337.496 159.528 337.448 160.128H341.66V167.856C341.66 168.66 341.264 169.068 340.496 169.068H338.612L338.372 168.204L340.208 168.252C340.592 168.252 340.784 168.048 340.784 167.664V160.968H337.352C337.292 161.424 337.22 161.856 337.124 162.252C338.372 163.428 339.416 164.592 340.268 165.732L339.62 166.392C338.924 165.36 338 164.268 336.872 163.116ZM347.756 160.272V168.456H346.916V167.772H344.732V168.804H343.892V160.272H345.008C345.248 159.6 345.416 158.904 345.524 158.184L346.388 158.304C346.244 159.012 346.064 159.672 345.824 160.272H347.756ZM344.732 166.968H346.916V164.34H344.732V166.968ZM344.732 163.56H346.916V161.088H344.732V163.56ZM349.844 163.056C350.708 164.052 351.356 164.928 351.812 165.672L351.128 166.152C350.636 165.36 349.976 164.472 349.148 163.488L349.844 163.056ZM353.96 160.284C353.96 164.268 353.9 166.74 353.78 167.676C353.66 168.588 353.108 169.056 352.1 169.056C351.86 169.056 351.452 169.032 350.876 169.008L350.672 168.216C351.176 168.24 351.608 168.252 351.98 168.252C352.544 168.252 352.868 167.94 352.964 167.328C353.036 166.656 353.084 164.58 353.108 161.124H349.808C349.472 161.88 349.076 162.564 348.608 163.176L348.092 162.492C348.932 161.316 349.496 159.876 349.808 158.172L350.66 158.28C350.516 158.988 350.348 159.66 350.132 160.284H353.96ZM359.228 161.796H360.356L361.964 164.004L363.56 161.796H364.688L362.492 164.712L364.952 168H363.812L361.964 165.42L360.104 168H358.964L361.424 164.712L359.228 161.796ZM365.946 159.264H366.894V168H365.946V159.264ZM370.774 161.628C372.31 161.628 373.15 162.264 373.318 163.56H372.382C372.298 163.176 372.142 162.888 371.902 162.72C371.638 162.528 371.254 162.432 370.762 162.432C370.33 162.432 369.994 162.504 369.754 162.672C369.49 162.828 369.358 163.044 369.358 163.32C369.358 163.584 369.526 163.812 369.886 163.992C370.114 164.1 370.546 164.232 371.17 164.4C371.914 164.58 372.442 164.772 372.766 164.976C373.258 165.288 373.51 165.708 373.51 166.248C373.51 167.52 372.634 168.168 370.882 168.168C369.25 168.168 368.362 167.448 368.218 166.02H369.154C369.226 166.512 369.406 166.86 369.67 167.076C369.934 167.268 370.33 167.364 370.858 167.364C371.962 167.364 372.526 167.004 372.526 166.308C372.526 165.96 372.322 165.696 371.938 165.504C371.734 165.408 371.29 165.276 370.618 165.108C369.886 164.928 369.37 164.748 369.082 164.556C368.602 164.268 368.374 163.872 368.374 163.344C368.374 162.816 368.602 162.408 369.07 162.096C369.502 161.784 370.078 161.628 370.774 161.628ZM375.969 166.32C376.425 166.644 376.893 167.04 377.349 167.52C377.745 167.928 378.093 168.348 378.381 168.756L377.781 169.26C377.493 168.852 377.145 168.444 376.761 168.036C376.317 167.556 375.873 167.16 375.429 166.824L375.969 166.32ZM386.217 161.796H387.345L388.953 164.004L390.549 161.796H391.677L389.481 164.712L391.941 168H390.801L388.953 165.42L387.093 168H385.953L388.413 164.712L386.217 161.796ZM392.934 159.264H393.882V168H392.934V159.264ZM397.762 161.628C399.298 161.628 400.138 162.264 400.306 163.56H399.37C399.286 163.176 399.13 162.888 398.89 162.72C398.626 162.528 398.242 162.432 397.75 162.432C397.318 162.432 396.982 162.504 396.742 162.672C396.478 162.828 396.346 163.044 396.346 163.32C396.346 163.584 396.514 163.812 396.874 163.992C397.102 164.1 397.534 164.232 398.158 164.4C398.902 164.58 399.43 164.772 399.754 164.976C400.246 165.288 400.498 165.708 400.498 166.248C400.498 167.52 399.622 168.168 397.87 168.168C396.238 168.168 395.35 167.448 395.206 166.02H396.142C396.214 166.512 396.394 166.86 396.658 167.076C396.922 167.268 397.318 167.364 397.846 167.364C398.95 167.364 399.514 167.004 399.514 166.308C399.514 165.96 399.31 165.696 398.926 165.504C398.722 165.408 398.278 165.276 397.606 165.108C396.874 164.928 396.358 164.748 396.07 164.556C395.59 164.268 395.362 163.872 395.362 163.344C395.362 162.816 395.59 162.408 396.058 162.096C396.49 161.784 397.066 161.628 397.762 161.628ZM401.205 161.796H402.333L403.941 164.004L405.537 161.796H406.665L404.469 164.712L406.929 168H405.789L403.941 165.42L402.081 168H400.941L403.401 164.712L401.205 161.796ZM414.102 162.996V169.152H413.25V163.128C412.878 164.268 412.386 165.312 411.786 166.248L411.414 165.312C412.254 164.16 412.866 162.852 413.238 161.376H411.654V160.548H413.25V158.208H414.102V160.548H415.41V161.376H414.102V162.024C414.606 162.6 415.122 163.236 415.638 163.944L415.626 163.956C416.682 163.524 417.606 163.032 418.374 162.468C417.858 161.976 417.426 161.472 417.09 160.944C416.778 161.352 416.442 161.736 416.094 162.084L415.542 161.424C416.418 160.596 417.126 159.516 417.678 158.184L418.506 158.364C418.386 158.676 418.254 158.976 418.11 159.264H421.494V159.936C421.062 160.896 420.426 161.748 419.61 162.504C420.414 163.068 421.386 163.56 422.514 163.98L422.13 164.784C420.882 164.256 419.85 163.668 419.01 163.008C418.098 163.716 416.982 164.316 415.674 164.82L415.35 164.388L415.17 164.664C414.75 163.968 414.39 163.416 414.102 162.996ZM421.47 164.7V169.176H420.63V168.648H417.234V169.176H416.394V164.7H421.47ZM417.234 167.844H420.63V165.504H417.234V167.844ZM418.962 162C419.622 161.424 420.15 160.788 420.546 160.092H417.654C417.606 160.164 417.57 160.248 417.522 160.32C417.894 160.932 418.374 161.496 418.962 162ZM423.762 160.344H429.63C429.594 159.66 429.582 158.952 429.582 158.22H430.47C430.47 158.964 430.482 159.672 430.518 160.344H434.226V161.184H430.566C430.71 163.2 431.022 164.868 431.49 166.212C431.994 167.532 432.45 168.204 432.846 168.204C433.086 168.168 433.338 167.484 433.59 166.14L434.37 166.548C434.01 168.276 433.518 169.152 432.906 169.164C431.838 169.116 430.95 167.772 430.23 165.156C429.954 164.016 429.774 162.696 429.678 161.184H423.762V160.344ZM423.942 163.176H429.03V163.992H426.918V167.112C427.806 166.944 428.658 166.74 429.498 166.524V167.364C427.77 167.784 425.898 168.132 423.906 168.42L423.702 167.604C424.494 167.508 425.286 167.388 426.054 167.268V163.992H423.942V163.176ZM432.282 158.28C432.678 158.76 433.05 159.288 433.41 159.864L432.69 160.224C432.342 159.624 431.97 159.096 431.562 158.628L432.282 158.28ZM435.75 160.224H440.718C440.394 159.588 439.998 158.988 439.518 158.424L440.382 158.112C440.838 158.688 441.246 159.396 441.63 160.224H446.214V161.088H444.342C443.754 162.984 442.866 164.58 441.69 165.852C442.962 166.932 444.558 167.82 446.478 168.528L446.01 169.248C444.018 168.504 442.386 167.58 441.09 166.464C439.722 167.724 438.018 168.648 435.978 169.236L435.522 168.48C437.538 167.94 439.194 167.088 440.49 165.912C439.098 164.544 438.138 162.936 437.598 161.088H435.75V160.224ZM438.45 161.088C438.966 162.708 439.842 164.112 441.09 165.312C442.158 164.148 442.938 162.744 443.442 161.088H438.45ZM450.126 158.124L450.942 158.496C450.63 159.444 450.234 160.344 449.754 161.196V169.212H448.902V162.516C448.518 163.044 448.098 163.548 447.642 164.028L447.366 163.104C448.638 161.664 449.55 159.996 450.126 158.124ZM452.142 158.916L452.994 159.024C452.898 159.624 452.766 160.2 452.598 160.728H454.362V158.232H455.226V160.728H457.986V161.568H455.226V164.46H458.43V165.288H455.226V169.152H454.362V165.288H450.834V164.46H454.362V161.568H452.322C452.022 162.36 451.65 163.068 451.206 163.692L450.654 162.972C451.386 161.868 451.878 160.512 452.142 158.916Z" fill="#557496"/>
<defs>
<linearGradient id="paint0_linear_4155_15760" x1="333.818" y1="82.0001" x2="386.182" y2="82.0001" gradientUnits="userSpaceOnUse">
<stop stop-color="#9767FF"/>
<stop offset="0.5" stop-color="#217EFD"/>
</linearGradient>
<linearGradient id="paint1_linear_4155_15760" x1="243" y1="136" x2="477" y2="136" gradientUnits="userSpaceOnUse">
<stop stop-color="#9767FF"/>
<stop offset="0.5" stop-color="#217EFD"/>
</linearGradient>
</defs>
</svg>
