<svg width="16" height="16" viewBox="0 0 16 16" fill="none" xmlns="http://www.w3.org/2000/svg">
<path fill-rule="evenodd" clip-rule="evenodd" d="M5.69005 7.88416H7.21434V1.08868C7.21434 1.00029 7.2886 0.927979 7.37936 0.927979H8.61694C8.7077 0.927979 8.78195 1.00029 8.78195 1.08868V7.88416H10.3104C10.4486 7.88416 10.5249 8.03883 10.4403 8.14328L8.13016 10.9916C8.06415 11.074 7.93627 11.074 7.87027 10.9916L5.5601 8.14529C5.47554 8.03883 5.55185 7.88416 5.69005 7.88416ZM15.5494 10.29H14.3118C14.221 10.29 14.1468 10.3623 14.1468 10.4507V13.5441H1.85341V10.4507C1.85341 10.3623 1.77915 10.29 1.68839 10.29H0.450809C0.360052 10.29 0.285797 10.3623 0.285797 10.4507V14.428C0.285797 14.7835 0.580755 15.0708 0.945843 15.0708H15.0543C15.4194 15.0708 15.7144 14.7835 15.7144 14.428V10.4507C15.7144 10.3623 15.6401 10.29 15.5494 10.29Z" fill="#217EFD"/>
</svg>