<svg width="18" height="18" viewBox="0 0 18 18" fill="none" xmlns="http://www.w3.org/2000/svg">
<path d="M16.8517 8.04199C16.7433 7.15197 16.4851 6.29185 16.0845 5.48553C15.2798 3.8658 13.9356 2.5617 12.2995 1.81348C11.9465 1.65202 11.5294 1.80733 11.368 2.16038C11.2065 2.5134 11.3618 2.93048 11.7149 3.09196C14.5144 4.37225 16.0348 7.48018 15.3299 10.482C14.7897 12.7825 13.0588 14.5833 10.8266 15.2339L10.822 13.9894L7.36188 16.0047L10.8369 17.9942L10.8321 16.6858C12.1574 16.3709 13.3775 15.7202 14.3843 14.7867C15.5374 13.7174 16.3376 12.34 16.6985 10.8033C16.9124 9.89229 16.964 8.9632 16.8517 8.04199ZM7.17703 0L7.18181 1.30841C5.85634 1.62325 4.63614 2.274 3.62928 3.20766C2.47614 4.27695 1.67592 5.65438 1.31508 7.19114C1.17468 7.7894 1.10425 8.39538 1.10425 9.00188C1.10425 9.31819 1.12342 9.63464 1.16176 9.95015C1.26991 10.8395 1.52745 11.699 1.92721 12.5048C2.73016 14.1234 4.07197 15.4276 5.7054 16.1769C6.05822 16.3388 6.4755 16.184 6.63736 15.8312C6.79926 15.4782 6.64441 15.061 6.29157 14.8992C3.49729 13.6172 1.98003 10.5106 2.68368 7.51242C3.22389 5.21174 4.9548 3.41087 7.18712 2.76026L7.19169 4.00482L10.652 1.98966L7.17703 0Z" fill="#217EFD"/>
</svg>