<svg width="236" height="36" viewBox="0 0 236 36" fill="none" xmlns="http://www.w3.org/2000/svg">
<mask id="mask0_4077_16615" style="mask-type:alpha" maskUnits="userSpaceOnUse" x="0" y="3" width="30" height="30">
<rect x="30" y="3" width="30" height="30" transform="rotate(90 30 3)" fill="white"/>
</mask>
<g mask="url(#mask0_4077_16615)">
<path d="M20.2112 10.323C20.9622 10.6948 20.9594 11.7669 20.2064 12.1347L7.01519 18.5786C6.09794 19.0266 5.17126 17.9858 5.72244 17.1265L9.89149 10.6273C10.2028 10.142 10.1456 9.50741 9.75248 9.08565L6.70675 5.81767C5.94135 4.99642 6.887 3.72668 7.89308 4.22475L20.2112 10.323Z" fill="#29CB95"/>
<mask id="mask1_4077_16615" style="mask-type:alpha" maskUnits="userSpaceOnUse" x="5" y="4" width="16" height="15">
<path d="M20.2112 10.323C20.9622 10.6948 20.9594 11.7669 20.2064 12.1347L7.01519 18.5786C6.09794 19.0266 5.17126 17.9858 5.72244 17.1265L9.89149 10.6273C10.2028 10.142 10.1456 9.50741 9.75248 9.08565L6.70675 5.81767C5.94135 4.99642 6.887 3.72668 7.89308 4.22475L20.2112 10.323Z" fill="#29CB95"/>
</mask>
<g mask="url(#mask1_4077_16615)">
<path d="M23.7384 11.7538L23.281 19.6876L3.9119 19.6876L3.91191 9.05664L23.7384 11.7538Z" fill="url(#paint0_linear_4077_16615)"/>
</g>
<path opacity="0.3" fill-rule="evenodd" clip-rule="evenodd" d="M20.428 9.88477C21.5428 10.4367 21.5385 12.028 20.4209 12.574L7.22962 19.0179C5.86808 19.683 4.49253 18.1379 5.31069 16.8625L9.47974 10.3632C9.67041 10.066 9.63536 9.67734 9.3946 9.41901L6.34886 6.15103C5.21273 4.93199 6.61643 3.04722 8.10983 3.78654L20.428 9.88477ZM19.9916 11.6953C20.3799 11.5057 20.3813 10.9529 19.9941 10.7612L7.67596 4.66294C7.15719 4.40612 6.6696 5.06084 7.06425 5.48429L10.11 8.75227C10.6554 9.33747 10.7348 10.2179 10.3029 10.8912L6.13381 17.3905C5.84961 17.8336 6.32744 18.3703 6.80039 18.1392L19.9916 11.6953Z" fill="#00E48B"/>
<path d="M26.4479 19.965C27.2015 20.334 27.2021 21.408 26.4488 21.7778L6.32498 31.6566C5.45238 32.085 4.53795 31.1535 4.98235 30.289L10.4623 19.6282C10.6777 19.2092 10.6417 18.705 10.3689 18.3208L5.88725 12.0094C5.28135 11.1561 6.21432 10.0581 7.15422 10.5183L26.4479 19.965Z" fill="#217EFD"/>
<mask id="mask2_4077_16615" style="mask-type:alpha" maskUnits="userSpaceOnUse" x="4" y="10" width="24" height="22">
<path d="M26.4479 19.965C27.2015 20.334 27.2021 21.408 26.4488 21.7778L6.32498 31.6566C5.45238 32.085 4.53795 31.1535 4.98235 30.289L10.4623 19.6282C10.6777 19.2092 10.6417 18.705 10.3689 18.3208L5.88725 12.0094C5.28135 11.1561 6.21432 10.0581 7.15422 10.5183L26.4479 19.965Z" fill="#217EFD"/>
</mask>
<g mask="url(#mask2_4077_16615)">
<path d="M29.6221 21.2491L29.6221 34.7034L3.18674 34.7034L3.18674 18.063L29.6221 21.2491Z" fill="url(#paint1_linear_4077_16615)"/>
</g>
<path opacity="0.3" fill-rule="evenodd" clip-rule="evenodd" d="M26.6901 19.4692C27.8559 20.04 27.8567 21.7014 26.6915 22.2734L6.56772 32.1522C5.21791 32.8149 3.8034 31.374 4.49083 30.0366L9.97076 19.3759C10.0919 19.1402 10.0717 18.8566 9.91821 18.6405L5.4366 12.329C4.49935 11.0091 5.94253 9.31068 7.39645 10.0226L26.6901 19.4692ZM26.205 21.2823C26.5463 21.1147 26.5461 20.6281 26.2046 20.4609L6.91093 11.0142C6.48503 10.8056 6.06228 11.3032 6.33683 11.6898L10.8184 18.0013C11.2106 18.5535 11.2624 19.2783 10.9527 19.8807L5.4728 30.5414C5.27143 30.9332 5.68578 31.3552 6.08118 31.1611L26.205 21.2823Z" fill="#0068F7"/>
</g>
<path d="M59.512 7.224L61.96 7.536C61.768 8.04 61.576 8.52 61.336 9H67.864V11.136C67.24 12.528 66.232 13.728 64.864 14.784C66.088 15.264 67.48 15.672 69.064 16.008L68.056 18.336C65.8 17.808 63.928 17.136 62.392 16.32C60.76 17.136 58.816 17.808 56.584 18.36L55.624 16.104C57.304 15.72 58.768 15.288 60.064 14.784C59.344 14.184 58.768 13.56 58.312 12.912C57.928 13.248 57.52 13.584 57.088 13.896L55.672 12.048C57.568 10.752 58.84 9.144 59.512 7.224ZM59.896 11.28C60.52 12.144 61.36 12.936 62.44 13.608C63.568 12.888 64.456 12.12 65.128 11.256H59.92L59.896 11.28ZM51.688 7.176L53.944 8.256C53.416 10.008 52.72 11.688 51.856 13.272V29.52H49.432V17.04C48.832 17.832 48.184 18.6 47.512 19.344L46.744 16.848C48.976 14.112 50.632 10.896 51.688 7.176ZM53.248 11.616H55.528V25.2H53.248V11.616ZM62.92 17.4L64.696 18.528C63.784 19.272 62.848 19.896 61.888 20.376C60.952 20.808 59.608 21.336 57.856 21.912L56.656 19.92C57.904 19.68 59.128 19.32 60.28 18.864C61.192 18.456 62.08 17.976 62.92 17.4ZM65.248 19.224L66.88 20.472C64.936 22.776 62.056 24.432 58.24 25.44L57.256 23.304C60.808 22.464 63.472 21.096 65.248 19.224ZM57.328 29.736L56.296 27.456C59.056 26.736 61.24 25.92 62.872 25.008C64.528 24.096 65.968 22.872 67.216 21.336L68.968 22.68C67.888 24.336 66.256 25.776 64.096 27C61.936 28.2 59.68 29.112 57.328 29.736ZM84.568 13.008C84.448 13.368 84.328 13.728 84.184 14.088C84.904 16.512 85.768 18.672 86.8 20.544C87.856 18.384 88.408 15.864 88.504 13.008H84.568ZM90.952 13.008C90.784 16.896 89.896 20.184 88.288 22.872C89.728 24.84 91.408 26.352 93.328 27.456L91.888 29.592C89.944 28.44 88.264 26.904 86.824 24.96C85.24 26.832 83.224 28.368 80.8 29.544L79.264 27.48C81.88 26.328 83.944 24.768 85.432 22.8C84.424 21.072 83.584 19.104 82.864 16.944C82.456 17.64 82.024 18.288 81.592 18.864L80.056 16.92C81.688 14.544 82.792 11.328 83.368 7.296L85.816 7.728C85.648 8.736 85.456 9.72 85.24 10.632H92.536V13.008H90.952ZM74.728 25.056C76.6 24.432 78.496 23.64 80.416 22.728L80.776 25.008C78.184 26.232 75.328 27.36 72.16 28.392L71.416 26.232C71.992 25.992 72.304 25.464 72.304 24.648V16.08H77.512V11.112H71.272V8.736H79.96V18.384H74.728V25.056ZM104.728 14.472H107.272V29.496H104.728V14.472ZM104.896 7.272H107.104C109.072 10.488 112.48 13.296 117.28 15.72L115.768 18C111.4 15.744 108.136 12.96 106 9.624C103.432 13.248 100.168 16.032 96.232 18L94.72 15.72C99.136 13.56 102.52 10.728 104.896 7.272ZM131.176 7.32C131.176 9.432 131.104 11.232 131.008 12.72C132.4 19.032 135.832 23.856 141.28 27.192L139.6 29.4C135.112 26.376 131.944 22.344 130.096 17.28C128.512 22.176 125.224 26.232 120.232 29.448L118.696 27.192C125.128 23.352 128.416 17.976 128.608 11.088C128.608 9.48 128.632 8.232 128.632 7.32H131.176ZM145.312 17.16C144.736 17.928 144.136 18.648 143.512 19.368L142.672 16.68C144.832 13.944 146.464 10.728 147.52 7.032L149.872 8.136C149.344 9.936 148.648 11.64 147.784 13.272V29.544H145.312V17.16ZM149.32 10.08H156.208C155.896 9.312 155.56 8.592 155.2 7.872L157.6 7.224C158.08 8.256 158.44 9.216 158.68 10.08H165.136V12.432H149.32V10.08ZM151.48 13.704H163.12V15.936H151.48V13.704ZM151.48 17.088H163.12V19.344H151.48V17.088ZM163.648 20.664V29.496H161.224V28.296H153.376V29.496H150.928V20.664H163.648ZM153.376 25.92H161.224V22.992H153.376V25.92ZM170.344 8.856H175.648C175.936 8.28 176.152 7.68 176.296 7.056L178.936 7.416C178.792 7.92 178.6 8.4 178.36 8.856H185.848V21.12H170.344V8.856ZM183.424 19.008V17.616H172.768V19.008H183.424ZM172.768 15.648H183.424V14.304H172.768V15.648ZM172.768 12.336H183.424V10.992H172.768V12.336ZM169.024 22.44L171.376 22.92C170.824 25.152 170.056 27.096 169.072 28.728L166.96 27.36C167.944 25.824 168.64 24.168 169.024 22.44ZM181.144 29.136H175.048C173.368 29.136 172.528 28.32 172.528 26.736V22.416H175.072V26.184C175.072 26.664 175.288 26.928 175.768 26.928H180.664C181.048 26.928 181.336 26.784 181.528 26.544C181.768 26.28 181.912 25.464 181.984 24.12L184.384 24.912C184.168 26.976 183.808 28.2 183.304 28.584C182.824 28.944 182.104 29.136 181.144 29.136ZM178.288 21.432C179.392 22.632 180.28 23.664 180.904 24.552L179.008 25.848C178.384 24.888 177.52 23.784 176.44 22.584L178.288 21.432ZM185.92 21.912C187.312 23.784 188.368 25.416 189.136 26.808L187.12 28.2C186.352 26.688 185.296 25.008 183.952 23.136L185.92 21.912Z" fill="#222222"/>
<mask id="mask3_4077_16615" style="mask-type:alpha" maskUnits="userSpaceOnUse" x="206" y="3" width="30" height="30">
<rect width="30" height="30" transform="matrix(4.37114e-08 1 1 -4.37114e-08 206 3)" fill="white"/>
</mask>
<g mask="url(#mask3_4077_16615)">
<path d="M215.789 10.323C215.038 10.6948 215.041 11.7669 215.794 12.1347L228.985 18.5786C229.902 19.0266 230.829 17.9858 230.278 17.1265L226.109 10.6273C225.797 10.142 225.854 9.50741 226.248 9.08565L229.293 5.81767C230.059 4.99642 229.113 3.72668 228.107 4.22475L215.789 10.323Z" fill="#29CB95"/>
<mask id="mask4_4077_16615" style="mask-type:alpha" maskUnits="userSpaceOnUse" x="215" y="4" width="16" height="15">
<path d="M215.789 10.323C215.038 10.6948 215.041 11.7669 215.794 12.1347L228.985 18.5786C229.902 19.0266 230.829 17.9858 230.278 17.1265L226.109 10.6273C225.797 10.142 225.854 9.50741 226.248 9.08565L229.293 5.81767C230.059 4.99642 229.113 3.72668 228.107 4.22475L215.789 10.323Z" fill="#29CB95"/>
</mask>
<g mask="url(#mask4_4077_16615)">
<path d="M212.262 11.7538L212.719 19.6876L232.088 19.6876L232.088 9.05664L212.262 11.7538Z" fill="url(#paint2_linear_4077_16615)"/>
</g>
<path opacity="0.3" fill-rule="evenodd" clip-rule="evenodd" d="M215.572 9.88477C214.457 10.4367 214.461 12.028 215.579 12.574L228.77 19.0179C230.132 19.683 231.507 18.1379 230.689 16.8625L226.52 10.3632C226.33 10.066 226.365 9.67734 226.605 9.41901L229.651 6.15103C230.787 4.93199 229.384 3.04722 227.89 3.78654L215.572 9.88477ZM216.008 11.6953C215.62 11.5057 215.619 10.9529 216.006 10.7612L228.324 4.66294C228.843 4.40612 229.33 5.06084 228.936 5.48429L225.89 8.75227C225.345 9.33747 225.265 10.2179 225.697 10.8912L229.866 17.3905C230.15 17.8336 229.673 18.3703 229.2 18.1392L216.008 11.6953Z" fill="#00E48B"/>
<path d="M209.552 19.965C208.798 20.334 208.798 21.408 209.551 21.7778L229.675 31.6566C230.548 32.085 231.462 31.1535 231.018 30.289L225.538 19.6282C225.322 19.2092 225.358 18.705 225.631 18.3208L230.113 12.0094C230.719 11.1561 229.786 10.0581 228.846 10.5183L209.552 19.965Z" fill="#217EFD"/>
<mask id="mask5_4077_16615" style="mask-type:alpha" maskUnits="userSpaceOnUse" x="208" y="10" width="24" height="22">
<path d="M209.552 19.965C208.798 20.334 208.798 21.408 209.551 21.7778L229.675 31.6566C230.548 32.085 231.462 31.1535 231.018 30.289L225.538 19.6282C225.322 19.2092 225.358 18.705 225.631 18.3208L230.113 12.0094C230.719 11.1561 229.786 10.0581 228.846 10.5183L209.552 19.965Z" fill="#217EFD"/>
</mask>
<g mask="url(#mask5_4077_16615)">
<path d="M206.378 21.2491L206.378 34.7034L232.813 34.7034L232.813 18.063L206.378 21.2491Z" fill="url(#paint3_linear_4077_16615)"/>
</g>
<path opacity="0.3" fill-rule="evenodd" clip-rule="evenodd" d="M209.31 19.4692C208.144 20.04 208.143 21.7014 209.308 22.2734L229.432 32.1522C230.782 32.8149 232.197 31.374 231.509 30.0366L226.029 19.3759C225.908 19.1402 225.928 18.8566 226.082 18.6405L230.563 12.329C231.501 11.0091 230.057 9.31068 228.604 10.0226L209.31 19.4692ZM209.795 21.2823C209.454 21.1147 209.454 20.6281 209.795 20.4609L229.089 11.0142C229.515 10.8056 229.938 11.3032 229.663 11.6898L225.182 18.0013C224.789 18.5535 224.738 19.2783 225.047 19.8807L230.527 30.5414C230.729 30.9332 230.314 31.3552 229.919 31.1611L209.795 21.2823Z" fill="#0068F7"/>
</g>
<defs>
<linearGradient id="paint0_linear_4077_16615" x1="20.852" y1="11.6434" x2="9.62168" y2="10.2554" gradientUnits="userSpaceOnUse">
<stop stop-color="#00B176"/>
<stop offset="1" stop-color="#00B176" stop-opacity="0"/>
</linearGradient>
<linearGradient id="paint1_linear_4077_16615" x1="26.9091" y1="21.4226" x2="9.66939" y2="19.7191" gradientUnits="userSpaceOnUse">
<stop stop-color="#0050EC"/>
<stop offset="1" stop-color="#0050EC" stop-opacity="0"/>
</linearGradient>
<linearGradient id="paint2_linear_4077_16615" x1="215.148" y1="11.6434" x2="226.378" y2="10.2554" gradientUnits="userSpaceOnUse">
<stop stop-color="#00B176"/>
<stop offset="1" stop-color="#00B176" stop-opacity="0"/>
</linearGradient>
<linearGradient id="paint3_linear_4077_16615" x1="209.091" y1="21.4226" x2="226.331" y2="19.7191" gradientUnits="userSpaceOnUse">
<stop stop-color="#0050EC"/>
<stop offset="1" stop-color="#0050EC" stop-opacity="0"/>
</linearGradient>
</defs>
</svg>