<svg width="66" height="26" viewBox="0 0 66 26" fill="none" xmlns="http://www.w3.org/2000/svg">
<g filter="url(#filter0_d_4149_15246)">
<path d="M5 10.7241C5 6.45821 8.45821 3 12.7241 3H53C57.4183 3 61 6.58172 61 11C61 15.4183 57.4183 19 53 19H5V10.7241Z" fill="url(#paint0_linear_4149_15246)"/>
<path d="M53 2.5C57.6944 2.5 61.5 6.30558 61.5 11C61.5 15.6944 57.6944 19.5 53 19.5H4.5V10.7246C4.5 6.18254 8.18254 2.5 12.7246 2.5H53Z" stroke="url(#paint1_linear_4149_15246)"/>
</g>
<path d="M10.968 9C10.752 9.156 10.524 9.312 10.296 9.456L9.576 8.58C10.992 7.74 12.192 6.588 13.2 5.1L14.352 5.352C14.184 5.616 14.004 5.868 13.824 6.12H17.832V6.984C17.4 7.524 16.98 7.992 16.56 8.376H19.308V12.228H16.596V14.412C16.596 14.772 16.74 14.952 17.04 14.952H18.864C19.032 14.952 19.152 14.868 19.224 14.724C19.32 14.556 19.38 14.064 19.404 13.236L20.484 13.584C20.388 14.784 20.244 15.492 20.028 15.732C19.824 15.948 19.512 16.056 19.08 16.056H16.692C15.864 16.056 15.456 15.588 15.456 14.652V12.228H15.036C14.964 12.444 14.88 12.648 14.784 12.84C14.16 14.208 12.684 15.36 10.332 16.272L9.612 15.384C11.676 14.616 13.02 13.668 13.668 12.552C13.716 12.432 13.776 12.324 13.824 12.228H10.968V9ZM15.132 8.376C15.54 8.016 15.948 7.608 16.356 7.152H12.996C12.588 7.596 12.18 8.004 11.748 8.376H15.132ZM18.216 11.16V9.432H15.552C15.528 10.056 15.456 10.632 15.348 11.16H18.216ZM14.172 11.16C14.292 10.632 14.376 10.056 14.412 9.432H12.072V11.16H14.172ZM23.724 8.052L23.556 8.64H24.984C25.032 8.448 25.068 8.256 25.092 8.052H23.724ZM26.196 8.052C26.184 8.256 26.16 8.448 26.124 8.64H27.756V8.052H26.196ZM28.86 8.052V8.64H32.028C32.028 9.576 31.932 10.164 31.74 10.416C31.548 10.68 31.104 10.812 30.408 10.824C30.216 10.824 30.024 10.812 29.844 10.8L29.64 10.02C29.856 10.044 30.072 10.056 30.276 10.056C30.588 10.056 30.78 10.008 30.852 9.924C30.912 9.828 30.948 9.696 30.948 9.504H28.86V10.752H27.756V9.504H25.824C25.668 9.792 25.488 10.056 25.272 10.272C24.996 10.536 24.636 10.764 24.192 10.98H31.044V14.316H29.916V11.988H24.396V14.316H23.28V11.316C23.04 11.388 22.788 11.46 22.524 11.52L21.948 10.632C23.16 10.368 23.976 10.032 24.408 9.624C24.456 9.576 24.492 9.528 24.516 9.504H22.332L22.8 7.176H25.104V6.588H22.44V5.664H25.104V5.136H26.208V5.664H27.756V5.136H28.86V5.664H31.404V8.052H28.86ZM26.208 6.588V7.176H27.756V6.588H26.208ZM28.86 6.588V7.176H30.348V6.588H28.86ZM27.888 14.076C29.436 14.436 30.852 14.868 32.124 15.384L31.5 16.332C30.144 15.732 28.752 15.276 27.312 14.94L27.888 14.076ZM26.556 12.288L27.684 12.396C27.528 13.776 27.168 14.688 26.604 15.144C26.004 15.72 24.588 16.104 22.356 16.272L21.9 15.252C23.784 15.168 25.032 14.916 25.632 14.484C26.16 14.052 26.46 13.32 26.556 12.288ZM34.8 10.14C34.476 10.572 34.128 11.004 33.768 11.412L33.432 10.272C34.608 8.796 35.484 7.068 36.036 5.1L37.056 5.58C36.768 6.552 36.384 7.476 35.916 8.364V16.248H34.8V10.14ZM36.756 7.092H39.792V5.148H40.908V7.092H44.088V8.184H41.808C42.336 10.056 43.26 11.736 44.556 13.2L43.824 14.124C42.432 12.36 41.46 10.38 40.908 8.184V12.768H42.624V13.86H40.908V16.236H39.792V13.86H38.112V12.768H39.792V8.184C39.192 10.656 38.184 12.684 36.768 14.268L36.18 13.296C37.416 11.952 38.316 10.248 38.88 8.184H36.756V7.092ZM51.36 8.916C50.976 9.336 50.568 9.708 50.136 10.032L49.536 9.12C50.856 8.112 51.864 6.792 52.584 5.172H53.604C54.192 6.66 55.212 7.968 56.676 9.084L56.052 10.02C55.572 9.66 55.152 9.276 54.78 8.868V9.588H51.36V8.916ZM54.504 8.556C53.928 7.86 53.448 7.104 53.088 6.288C52.668 7.152 52.2 7.908 51.672 8.556H54.504ZM49.884 14.76H53.736C54.168 13.512 54.552 11.976 54.888 10.176L55.98 10.452C55.668 12.06 55.284 13.488 54.828 14.76H56.508V15.852H49.884V14.76ZM51.18 10.524C51.54 11.508 51.876 12.648 52.176 13.92L51.204 14.16C50.94 13.008 50.604 11.916 50.208 10.86L51.18 10.524ZM53.028 10.164C53.34 11.1 53.604 12.192 53.844 13.416L52.86 13.656C52.656 12.552 52.392 11.496 52.056 10.476L53.028 10.164ZM48.444 6.66H45.636V5.628H49.572L49.008 10.572H49.704C49.704 13.38 49.572 15 49.332 15.432C49.08 15.864 48.552 16.08 47.76 16.08C47.496 16.08 47.22 16.068 46.932 16.044L46.632 15.036C47.052 15.096 47.34 15.132 47.508 15.132C48.048 15.132 48.372 14.952 48.48 14.616C48.6 14.268 48.66 13.26 48.66 11.58H45.624L46.188 7.344L47.232 7.404L46.764 10.572H47.94L48.444 6.66ZM48.132 12.408V13.428C47.352 13.716 46.464 13.956 45.468 14.148L45.336 13.068C46.392 12.9 47.328 12.684 48.132 12.408Z" fill="#9C3502"/>
<defs>
<filter id="filter0_d_4149_15246" x="0" y="0" width="66" height="26" filterUnits="userSpaceOnUse" color-interpolation-filters="sRGB">
<feFlood flood-opacity="0" result="BackgroundImageFix"/>
<feColorMatrix in="SourceAlpha" type="matrix" values="0 0 0 0 0 0 0 0 0 0 0 0 0 0 0 0 0 0 127 0" result="hardAlpha"/>
<feOffset dy="2"/>
<feGaussianBlur stdDeviation="2"/>
<feComposite in2="hardAlpha" operator="out"/>
<feColorMatrix type="matrix" values="0 0 0 0 0 0 0 0 0 0.222579 0 0 0 0 0.658333 0 0 0 0.12 0"/>
<feBlend mode="normal" in2="BackgroundImageFix" result="effect1_dropShadow_4149_15246"/>
<feBlend mode="normal" in="SourceGraphic" in2="effect1_dropShadow_4149_15246" result="shape"/>
</filter>
<linearGradient id="paint0_linear_4149_15246" x1="57.5079" y1="3" x2="57.5079" y2="25" gradientUnits="userSpaceOnUse">
<stop stop-color="#FFC97A"/>
<stop offset="1" stop-color="#FFE8BA"/>
</linearGradient>
<linearGradient id="paint1_linear_4149_15246" x1="61.5989" y1="34" x2="52.1736" y2="-7.83597" gradientUnits="userSpaceOnUse">
<stop stop-color="#FCD07C"/>
<stop offset="1" stop-color="#FFA800"/>
</linearGradient>
</defs>
</svg>