<svg width="630" height="39" viewBox="0 0 630 39" fill="none" xmlns="http://www.w3.org/2000/svg">
<g clip-path="url(#clip0_4149_15342)">
<path d="M6.71065 26.7907C5.25761 26.8821 4.58676 27.6243 4.79515 28.1629C5.0064 28.7024 6.48703 30.0584 8.97633 30.4181C11.4637 30.7807 13.9273 30.616 14.8665 30.616C15.8067 30.616 16.9152 30.4828 16.3424 29.9918C15.0102 28.907 13.4972 28.0696 11.8719 27.5149C9.69 26.7917 8.16274 26.6994 6.71065 26.7917V26.7907ZM1.53984 20.3372C1.63881 20.9643 2.29063 22.5658 4.17188 23.7838C5.70068 24.7675 7.39984 25.4568 9.18187 25.8163C10.5293 26.1018 11.8034 26.4891 11.3819 25.6983C10.9594 24.9085 9.53204 22.9455 7.46905 21.5666C5.40891 20.1869 4.31937 20.0261 3.40206 19.8329C2.4857 19.6397 1.43993 19.7082 1.53984 20.3372ZM2.17263 13.8371C1.41709 13.8371 1.46657 14.5365 1.67021 15.135C1.87194 15.7345 2.73786 17.5177 4.23373 18.6016C5.23097 19.3228 6.49465 19.9509 8.02286 20.4809C7.6822 18.5397 6.9514 17.0153 5.83045 15.9039C4.15094 14.2358 2.93008 13.8371 2.17263 13.8371ZM5.56973 8.65865C5.32517 8.63391 5.08062 8.69576 4.87698 8.83374C4.68382 8.97077 4.56106 9.16679 4.53442 9.38375L4.50302 9.693C4.42 10.6928 4.57455 11.698 4.95406 12.6267C5.53452 14.0493 6.40615 15.1788 7.56516 16.0085C7.76411 15.3928 7.90523 14.7598 7.9867 14.1178C8.06378 13.3632 8.06378 12.6809 7.56516 10.9586C7.34344 10.1916 6.86195 9.49984 6.12449 8.88132C5.96631 8.75275 5.7729 8.67511 5.56973 8.65865Z" fill="url(#paint0_linear_4149_15342)"/>
</g>
<path d="M32.8215 13.3253L33.0615 11.2373H35.5095L35.8215 8.78932H37.9335L37.6215 11.2373H40.4055L40.7175 8.78932H42.8535L42.5415 11.2373H45.3015L45.0615 13.3253H42.3015L42.0375 15.5333H39.9015L40.1655 13.3253H37.3815L37.1175 15.5333H34.9815L35.2455 13.3253H32.8215ZM30.4695 27.7013H23.9655L25.9335 11.7893C26.0295 11.0053 26.2055 10.4773 26.4615 10.2053C26.7335 9.91732 27.1975 9.77332 27.8535 9.77332H30.7815C31.3575 9.77332 31.7895 9.90132 32.0775 10.1573C32.3655 10.4133 32.5095 10.8213 32.5095 11.3813C32.5095 11.4933 32.4935 11.6773 32.4615 11.9333L30.4695 27.7013ZM30.4215 11.7893H27.9975L27.5655 15.1013H29.9895L30.4215 11.7893ZM42.9495 28.8533H31.4775L32.8455 17.8373C32.9095 17.3413 33.1095 16.9493 33.4455 16.6613C33.7815 16.3733 34.2055 16.2293 34.7175 16.2293H42.5655C43.1255 16.2293 43.5495 16.3813 43.8375 16.6853C44.1415 16.9733 44.2935 17.3973 44.2935 17.9573C44.2935 18.1333 44.2855 18.2693 44.2695 18.3653L42.9495 28.8533ZM29.7735 16.9733H27.3495L26.9415 20.1653H29.3655L29.7735 16.9733ZM37.5015 18.2693H35.0055L34.5975 21.3893H37.1175L37.5015 18.2693ZM41.6535 21.3893L42.0375 18.2693H39.5415L39.1575 21.3893H41.6535ZM26.2695 25.6853H28.6935L29.1495 22.0373H26.7255L26.2695 25.6853ZM36.8775 23.2853H34.3575L33.9255 26.8133H36.4215L36.8775 23.2853ZM38.9175 23.2853L38.4855 26.8133H40.9815L41.4135 23.2853H38.9175ZM52.2855 17.9813C53.5495 15.9173 54.5175 14.2853 55.1895 13.0853C56.2775 11.1653 57.0055 9.78132 57.3735 8.93332H59.9175L59.2455 10.3493C59.0855 10.6853 58.8295 11.1893 58.4775 11.8613H62.2695L61.5735 9.00532H63.9495L64.7175 11.8613H68.8455L68.6055 13.9733H64.4775L64.1655 16.6853H68.1735L67.9335 18.7493H63.9255L63.5895 21.5573H67.8855L67.6455 23.6213H63.3495L62.9895 26.7653H68.3175L68.0775 28.8533H54.2535L55.5975 16.9973L54.9735 17.9813H52.2855ZM49.5015 9.91732L53.7015 12.7253L53.4375 15.4613L49.1895 12.5333L49.5015 9.91732ZM62.1735 13.9733H58.2135L57.9015 16.6853H61.8615L62.1735 13.9733ZM61.6215 18.7493H57.6615L57.3495 21.5573H61.2855L61.6215 18.7493ZM53.3655 18.8693C52.1815 22.5813 51.0295 25.8053 49.9095 28.5413H47.2935C47.9815 26.8933 48.6375 25.2453 49.2615 23.5973C49.6295 22.6053 50.1655 21.0293 50.8695 18.8693H53.3655ZM61.0455 23.6213H57.1095L56.7735 26.7653H60.6855L61.0455 23.6213ZM92.4615 13.9013L92.1975 15.9413H85.8375L85.6215 17.5733H88.8615C89.4855 17.5733 89.9895 17.8053 90.3735 18.2693C90.7735 18.7173 90.9335 19.2853 90.8535 19.9733L90.1815 24.8933H87.8535L88.5495 19.6613H80.4615L79.7895 24.8933H77.4615L78.1815 19.5653C78.2455 19.0053 78.4695 18.5333 78.8535 18.1493C79.2375 17.7653 79.7095 17.5733 80.2695 17.5733H83.2215L83.4375 15.9413H77.5335L77.7735 13.9013H83.6775L83.9415 11.8373L81.9495 11.9813C81.0055 12.0453 80.3815 12.0853 80.0775 12.1013L78.4695 12.1973L77.2695 12.2693L76.1655 20.7893C75.7015 24.4533 74.8615 27.3413 73.6455 29.4533L71.3655 28.7573C72.0215 27.5253 72.5415 26.2613 72.9255 24.9653C73.2935 23.7173 73.5735 22.2693 73.7655 20.6213L74.8215 12.3173C74.9015 11.5493 75.0695 11.0133 75.3255 10.7093C75.5975 10.3893 76.0615 10.2133 76.7175 10.1813C77.5815 10.1333 78.1735 10.0933 78.4935 10.0613L81.1575 9.89332C83.0775 9.78132 85.1815 9.62932 87.4695 9.43732C87.9495 9.40532 88.2855 9.37332 88.4775 9.34132L92.2215 9.02932L91.8615 11.2373C91.7495 11.2533 91.2215 11.2933 90.2775 11.3573L89.7015 11.4053L86.3655 11.6693L86.0775 13.9013H92.4615ZM89.7495 29.5733C89.1575 29.0773 88.2855 28.4053 87.1335 27.5573C85.8375 26.6293 84.7575 25.8933 83.8935 25.3493C83.1735 26.3253 82.2695 27.1413 81.1815 27.7973C80.1095 28.4693 78.8295 29.0613 77.3415 29.5733L75.5895 28.0133C77.8935 27.3093 79.6695 26.4213 80.9175 25.3493C82.2935 24.1493 83.0695 22.6293 83.2455 20.7893L83.2935 20.4293H85.5495L85.4535 21.1733C85.3415 22.0373 85.1335 22.8613 84.8295 23.6453C86.6535 24.7333 87.9655 25.5413 88.7655 26.0693L91.9095 28.2053L89.7495 29.5733ZM114.493 14.6453H99.0855L99.5655 10.5653C99.6615 9.66932 100.245 9.22132 101.317 9.22132H113.437C113.933 9.22132 114.317 9.36532 114.589 9.65332C114.861 9.92532 114.965 10.3093 114.901 10.8053L114.493 14.6453ZM112.645 10.6133H101.797L101.701 11.3333H112.549L112.645 10.6133ZM101.485 13.2533H112.333L112.405 12.5093H101.557L101.485 13.2533ZM116.341 16.9493H96.8775L97.0455 15.4133H116.533L116.341 16.9493ZM97.4295 26.3573L97.6215 24.8213H104.821L104.941 23.8373H98.1495L98.7255 19.1813C98.7735 18.7493 98.9415 18.4053 99.2295 18.1493C99.5335 17.8933 99.9335 17.7653 100.429 17.7653H112.765C114.029 17.7653 114.597 18.3173 114.469 19.4213L114.013 23.8373H107.245L107.125 24.8213H114.589L114.397 26.3573H106.957L106.861 27.3413H115.957L115.741 28.9733H95.7495L95.9415 27.3413H104.557L104.653 26.3573H97.4295ZM105.421 19.2053H100.837L100.741 20.1173H105.325L105.421 19.2053ZM112.165 20.1173L112.261 19.2053H107.725L107.629 20.1173H112.165ZM105.181 21.4613H100.573L100.477 22.3973H105.085L105.181 21.4613ZM107.389 22.3973H111.949L112.045 21.4613H107.485L107.389 22.3973ZM123.565 19.1573C122.749 20.6933 121.901 22.1013 121.021 23.3813L119.173 22.4213C120.821 20.2933 122.381 17.6933 123.853 14.6213H120.901L121.117 12.5813H124.261L124.693 8.62132H126.829L126.397 12.5813H128.869L128.653 14.6213H126.181L126.133 15.0533C126.725 16.0293 127.165 16.7893 127.453 17.3333C127.997 18.3733 128.437 19.2293 128.773 19.9013L127.141 20.9333C126.949 20.4373 126.733 19.9253 126.493 19.3973L125.845 17.9813L124.621 29.5733H122.461L123.565 19.1573ZM134.557 20.0213C134.781 20.7733 135.101 21.5733 135.517 22.4213C136.925 21.9093 138.309 21.3253 139.669 20.6693L139.429 22.9493C138.757 23.2693 137.797 23.6613 136.549 24.1253C137.621 25.6293 139.021 26.9573 140.749 28.1093L138.613 29.3813C137.109 28.1973 135.853 26.8533 134.845 25.3493C133.853 23.8453 133.021 22.0693 132.349 20.0213H131.125L130.309 26.4053V26.5253C130.309 26.7173 130.365 26.8133 130.477 26.8133C130.557 26.8133 130.677 26.7893 130.837 26.7413C131.861 26.4213 132.925 26.0213 134.029 25.5413L133.957 27.9653C133.477 28.1893 132.893 28.4133 132.205 28.6373C131.517 28.8773 130.861 29.0773 130.237 29.2373C129.917 29.3173 129.645 29.3573 129.421 29.3573C128.493 29.3573 128.029 28.8133 128.029 27.7253C128.029 27.5173 128.037 27.3493 128.053 27.2213L129.949 11.5733C130.045 10.8373 130.261 10.3173 130.597 10.0133C130.949 9.70932 131.525 9.55732 132.325 9.55732H138.205C139.581 9.55732 140.269 10.1573 140.269 11.3573C140.269 11.5333 140.261 11.6693 140.245 11.7653L139.261 20.0213H134.557ZM138.037 11.6453H132.205L131.917 13.8293H137.773L138.037 11.6453ZM137.533 15.7493H131.677L131.389 17.9333H137.269L137.533 15.7493ZM156.997 8.69332L156.565 12.4133H164.773L164.485 14.7173H158.101C158.773 16.7173 159.637 18.5653 160.693 20.2613C161.765 21.9893 163.141 23.7573 164.821 25.5653L162.373 26.5013C161.061 25.0133 159.877 23.2773 158.821 21.2933C157.781 19.3893 156.925 17.3893 156.253 15.2933L155.341 23.3093H158.773L158.509 25.4933H155.101L154.669 29.4533H152.221L152.653 25.4933H149.269L149.557 23.3093H152.893L153.781 15.5813C152.933 17.4853 151.733 19.4453 150.181 21.4613C148.693 23.3973 147.165 25.0373 145.597 26.3813L143.293 25.3493C145.133 23.7973 146.797 22.1093 148.285 20.2853C149.773 18.4453 150.997 16.5893 151.957 14.7173H145.717L146.029 12.4133H154.141L154.549 8.69332H156.997Z" fill="url(#paint1_linear_4149_15342)"/>
<g clip-path="url(#clip1_4149_15342)">
<path d="M181.956 26.7907C183.409 26.8821 184.08 27.6243 183.872 28.1629C183.661 28.7024 182.18 30.0584 179.691 30.4181C177.203 30.7807 174.74 30.616 173.8 30.616C172.86 30.616 171.752 30.4828 172.325 29.9918C173.657 28.907 175.17 28.0696 176.795 27.5149C178.977 26.7917 180.504 26.6994 181.956 26.7917V26.7907ZM187.127 20.3372C187.028 20.9643 186.376 22.5658 184.495 23.7838C182.966 24.7675 181.267 25.4568 179.485 25.8163C178.138 26.1018 176.864 26.4891 177.285 25.6983C177.708 24.9085 179.135 22.9455 181.198 21.5666C183.258 20.1869 184.348 20.0261 185.265 19.8329C186.181 19.6397 187.227 19.7082 187.127 20.3372ZM186.494 13.8371C187.25 13.8371 187.2 14.5365 186.997 15.135C186.795 15.7345 185.929 17.5177 184.433 18.6016C183.436 19.3228 182.172 19.9509 180.644 20.4809C180.985 18.5397 181.716 17.0153 182.837 15.9039C184.516 14.2358 185.737 13.8371 186.494 13.8371ZM183.097 8.65865C183.342 8.63391 183.586 8.69576 183.79 8.83374C183.983 8.97077 184.106 9.16679 184.133 9.38375L184.164 9.693C184.247 10.6928 184.092 11.698 183.713 12.6267C183.132 14.0493 182.261 15.1788 181.102 16.0085C180.903 15.3928 180.762 14.7598 180.68 14.1178C180.603 13.3632 180.603 12.6809 181.102 10.9586C181.324 10.1916 181.805 9.49984 182.543 8.88132C182.701 8.75275 182.894 8.67511 183.097 8.65865Z" fill="url(#paint2_linear_4149_15342)"/>
</g>
<g clip-path="url(#clip2_4149_15342)">
<path d="M227.377 26.7907C225.924 26.8821 225.253 27.6243 225.462 28.1629C225.673 28.7024 227.154 30.0584 229.643 30.4181C232.13 30.7807 234.594 30.616 235.533 30.616C236.473 30.616 237.582 30.4828 237.009 29.9918C235.677 28.907 234.164 28.0696 232.538 27.5149C230.357 26.7917 228.829 26.6994 227.377 26.7917V26.7907ZM222.206 20.3372C222.305 20.9643 222.957 22.5658 224.838 23.7838C226.367 24.7675 228.066 25.4568 229.848 25.8163C231.196 26.1018 232.47 26.4891 232.048 25.6983C231.626 24.9085 230.199 22.9455 228.136 21.5666C226.075 20.1869 224.986 20.0261 224.069 19.8329C223.152 19.6397 222.106 19.7082 222.206 20.3372ZM222.839 13.8371C222.084 13.8371 222.133 14.5365 222.337 15.135C222.538 15.7345 223.404 17.5177 224.9 18.6016C225.897 19.3228 227.161 19.9509 228.689 20.4809C228.349 18.5397 227.618 17.0153 226.497 15.9039C224.817 14.2358 223.597 13.8371 222.839 13.8371ZM226.236 8.65865C225.992 8.63391 225.747 8.69576 225.543 8.83374C225.35 8.97077 225.228 9.16679 225.201 9.38375L225.17 9.693C225.087 10.6928 225.241 11.698 225.621 12.6267C226.201 14.0493 227.073 15.1788 228.232 16.0085C228.431 15.3928 228.572 14.7598 228.653 14.1178C228.73 13.3632 228.73 12.6809 228.232 10.9586C228.01 10.1916 227.528 9.49984 226.791 8.88132C226.633 8.75275 226.439 8.67511 226.236 8.65865Z" fill="url(#paint3_linear_4149_15342)"/>
</g>
<path d="M253.872 27.4133C253.792 28.1333 253.592 28.6373 253.272 28.9253C252.952 29.2293 252.504 29.3813 251.928 29.3813C251.448 29.3813 250.984 29.3333 250.536 29.2373C250.088 29.1413 249.592 29.0133 249.048 28.8533L249.336 26.9573C250.072 27.1653 250.768 27.3093 251.424 27.3893H251.52C251.728 27.3893 251.872 27.2293 251.952 26.9093L252.312 23.9333H250.608L250.296 26.5733H248.52L248.832 23.9333H247.248C247.072 25.1333 246.856 26.1973 246.6 27.1253C246.36 28.0373 246.048 28.8293 245.664 29.5013L243.744 28.8533C244.256 27.8933 244.648 26.9093 244.92 25.9013C245.128 25.0533 245.328 23.8373 245.52 22.2533L246.312 15.6773C246.344 15.4213 246.392 15.1893 246.456 14.9813H244.752C245.632 13.7813 246.336 12.7493 246.864 11.8853C247.552 10.8133 248.144 9.81332 248.64 8.88532H251.064L250.68 9.53332L250.272 10.2053H253.032C253.528 10.2053 253.912 10.3093 254.184 10.5173C254.456 10.7253 254.592 11.0053 254.592 11.3573C254.592 11.6453 254.496 11.9573 254.304 12.2933L253.368 13.8773H253.68C254.272 13.8773 254.696 13.9893 254.952 14.2133C255.224 14.4213 255.36 14.7813 255.36 15.2933C255.36 15.4053 255.344 15.6053 255.312 15.8933L253.872 27.4133ZM256.032 11.4773L256.248 9.55732H263.832C264.424 9.55732 264.848 9.67732 265.104 9.91732C265.36 10.1573 265.488 10.5413 265.488 11.0693C265.488 11.2773 265.48 11.4453 265.464 11.5733C265.336 12.8373 265.144 14.0373 264.888 15.1733C264.696 16.2773 264.048 16.7813 262.944 16.6853C262.24 16.6213 261.376 16.4053 260.352 16.0373L260.64 14.3333C261.216 14.5253 261.784 14.6773 262.344 14.7893C262.392 14.8053 262.448 14.8133 262.512 14.8133C262.624 14.8133 262.704 14.7813 262.752 14.7173C262.816 14.6373 262.864 14.5253 262.896 14.3813L263.04 13.7333C263.056 13.5733 263.096 13.3173 263.16 12.9653C263.272 12.3733 263.336 11.8773 263.352 11.4773H260.688C260.192 13.3653 259.128 15.0693 257.496 16.5893L255.648 15.6773C256.4 15.0053 257.024 14.3333 257.52 13.6613C258 13.0373 258.384 12.3093 258.672 11.4773H256.032ZM249.168 12.0293C248.864 12.5253 248.472 13.1413 247.992 13.8773H251.088L252.144 12.0293H249.168ZM249.768 15.7973H248.304L248.016 18.0773H249.504L249.768 15.7973ZM253.008 18.0773L253.296 15.7973H251.592L251.304 18.0773H253.008ZM261.984 16.8533L261.72 19.0613H265.104L264.864 21.0053H261.48L261.24 22.8533H265.416L265.176 24.8693H261L260.472 29.3813H258.312L258.84 24.8693H254.856L255.072 22.8533H259.08L259.296 21.0053H256.344C256.024 21.0053 255.776 20.9413 255.6 20.8133C255.424 20.6853 255.336 20.5093 255.336 20.2853C255.336 20.2053 255.368 20.0533 255.432 19.8293L256.392 17.0453H258.408L257.736 19.0613H259.512L259.776 16.8533H261.984ZM249.288 19.9013H247.776L247.488 22.1093H249.048L249.288 19.9013ZM252.792 19.9013H251.088L250.824 22.1093H252.528L252.792 19.9013ZM272.328 19.2293C271.544 20.8293 270.624 22.3253 269.568 23.7173L267.816 22.6853C269.48 20.6693 271.104 17.9413 272.688 14.5013H269.76L270.024 12.3893H273.168L273.624 8.76532H275.856L275.4 12.3893H277.512L277.272 14.5013H275.136L275.088 14.9093C276.048 16.5573 276.896 18.1653 277.632 19.7333L275.88 20.8133C275.416 19.6773 275.024 18.7573 274.704 18.0533L273.288 29.5733H271.056L272.328 19.2293ZM282.792 8.78932C282.44 9.70132 282.104 10.5013 281.784 11.1893H287.232C288.592 11.1893 289.272 11.7893 289.272 12.9893C289.272 13.1813 289.264 13.3333 289.248 13.4453C289.12 14.9173 288.864 17.2693 288.48 20.5013C288.128 23.2373 287.808 25.5573 287.52 27.4613C287.264 28.7893 286.536 29.4533 285.336 29.4533C285.208 29.4533 285 29.4373 284.712 29.4053L283.728 29.2133C283.264 29.1493 282.64 28.9973 281.856 28.7573C281.488 28.6453 281.136 28.5253 280.8 28.3973L281.112 26.1653C281.88 26.4053 282.512 26.5733 283.008 26.6693C283.2 26.7173 283.448 26.7733 283.752 26.8373C284.2 26.9653 284.568 27.0293 284.856 27.0293C285 27.0293 285.096 27.0053 285.144 26.9573C285.224 26.8773 285.288 26.6933 285.336 26.4053C285.544 25.1573 285.832 23.0453 286.2 20.0693C286.52 17.3013 286.76 15.0453 286.92 13.3013H280.752C280.544 13.7333 280.184 14.4133 279.672 15.3413L279.096 16.4213H276.576C277.488 14.8533 278.24 13.4933 278.832 12.3413C279.424 11.1733 279.944 9.98932 280.392 8.78932H282.792ZM284.16 18.2693L285.288 24.2693H283.296L283.128 23.4293C281.752 23.6853 280.168 23.9013 278.376 24.0773C278.04 24.1093 277.752 24.0773 277.512 23.9813C277.272 23.8853 277.096 23.7413 276.984 23.5493C276.888 23.4053 276.84 23.2213 276.84 22.9973C276.84 22.7253 276.928 22.4293 277.104 22.1093C278.512 19.6933 279.648 17.4613 280.512 15.4133H282.72C281.728 17.7173 280.616 19.9573 279.384 22.1333C280.696 21.9893 281.84 21.8133 282.816 21.6053L282.216 18.2693H284.16ZM310.992 13.9253C312.208 13.9253 312.816 14.5093 312.816 15.6773C312.816 15.9013 312.808 16.0773 312.792 16.2053L311.88 24.0053H309.696L310.632 15.9413H304.008L303.072 24.0053H300.888L301.848 15.8933C301.944 15.1573 302.144 14.6453 302.448 14.3573C302.752 14.0693 303.256 13.9253 303.96 13.9253H305.88L306.504 11.8133H302.04L302.256 9.70132H313.848L313.608 11.8133H308.784L308.16 13.9253H310.992ZM301.488 9.98932L301.224 12.0293H299.184L297.408 27.1253C297.264 28.4373 296.672 29.0933 295.632 29.0933C295.44 29.0933 295.296 29.0853 295.2 29.0693C294.128 28.8933 293.256 28.6693 292.584 28.3973L292.848 26.2853C293.44 26.5093 294.056 26.6933 294.696 26.8373C294.824 26.8693 294.912 26.8853 294.96 26.8853C295.056 26.8853 295.12 26.8613 295.152 26.8133C295.184 26.7493 295.216 26.6373 295.248 26.4773L296.88 12.0293H293.664L293.928 9.98932H301.488ZM311.112 29.5253C309.928 28.1813 308.328 26.5733 306.312 24.7013C305.176 26.7493 303.376 28.3813 300.912 29.5973L298.992 28.2773C300.944 27.3653 302.44 26.3173 303.48 25.1333C304.52 23.9493 305.184 22.5093 305.472 20.8133L306.072 17.1413H308.28L307.632 21.0293C307.536 21.5893 307.36 22.2213 307.104 22.9253C307.936 23.5813 308.96 24.4533 310.176 25.5413C311.232 26.5013 312.216 27.4373 313.128 28.3493L311.112 29.5253ZM324.096 22.0133C322.768 22.3013 321.872 22.4853 321.408 22.5653C320.144 22.8053 319.064 22.9733 318.168 23.0693C317.864 23.1013 317.608 23.0693 317.4 22.9733C317.192 22.8613 317.04 22.7013 316.944 22.4933C316.88 22.3653 316.848 22.2213 316.848 22.0613C316.848 21.7573 316.968 21.4613 317.208 21.1733C317.88 20.4213 318.928 19.1573 320.352 17.3813C319.92 17.4773 319.272 17.5573 318.408 17.6213L317.928 17.6693C317.64 17.7013 317.392 17.6693 317.184 17.5733C316.992 17.4773 316.848 17.3333 316.752 17.1413C316.672 16.9813 316.632 16.8293 316.632 16.6853C316.632 16.4293 316.744 16.1493 316.968 15.8453C317.672 14.9493 318.504 13.7733 319.464 12.3173C320.088 11.3733 320.816 10.1813 321.648 8.74132H324.168C322.776 11.1733 321.4 13.3253 320.04 15.1973C320.68 15.1813 321.408 15.0773 322.224 14.8853C322.72 14.1813 323.088 13.6373 323.328 13.2533H325.728C324.96 14.5653 324.112 15.8693 323.184 17.1653C322.272 18.4613 321.384 19.5893 320.52 20.5493C321.16 20.4533 321.8 20.3413 322.44 20.2133L323.448 19.9973L324.36 19.7813L324.096 22.0133ZM325.776 28.3733C327.696 27.1093 329.336 25.7653 330.696 24.3413C329.752 22.8693 329 21.4213 328.44 19.9973C327.992 21.7573 327.424 23.4533 326.736 25.0853C326.048 26.7013 325.304 28.1093 324.504 29.3093L322.272 28.7333C323.648 26.6533 324.736 24.4373 325.536 22.0853C326.336 19.7173 326.856 17.3333 327.096 14.9333L327.408 11.9093H325.392L325.68 9.67732H334.68C335.192 9.69332 335.592 9.82932 335.88 10.0853C336.168 10.3413 336.312 10.6773 336.312 11.0933C336.312 11.3813 336.224 11.7413 336.048 12.1733L334.104 15.9413H335.328C335.968 15.9413 336.432 16.0373 336.72 16.2293C337.008 16.4213 337.152 16.7333 337.152 17.1653C337.152 17.4213 337.088 17.7813 336.96 18.2453C336.368 20.3253 335.224 22.4053 333.528 24.4853C334.808 26.0853 336.136 27.4453 337.512 28.5653L335.304 29.7653C334.024 28.5653 332.928 27.3813 332.016 26.2133C330.784 27.4933 329.376 28.6533 327.792 29.6933L325.776 28.3733ZM332.976 17.9813C332.496 17.9813 332.128 17.8933 331.872 17.7173C331.632 17.5253 331.512 17.2533 331.512 16.9013C331.512 16.5973 331.64 16.1733 331.896 15.6293L333.744 11.9093H329.64L329.304 15.1973C329.272 15.4213 329.256 15.5653 329.256 15.6293C329.704 17.9333 330.68 20.2613 332.184 22.6133C333.272 21.1893 334.04 19.7973 334.488 18.4373C334.536 18.2933 334.56 18.1893 334.56 18.1253C334.56 18.0613 334.52 18.0213 334.44 18.0053C334.376 17.9893 334.288 17.9813 334.176 17.9813H332.976ZM323.496 26.2133C322.504 26.5493 321.504 26.8453 320.496 27.1013C319.488 27.3413 318.088 27.6693 316.296 28.0853L316.584 25.7813C317.784 25.5093 318.92 25.2293 319.992 24.9413C321.304 24.6053 322.528 24.2453 323.664 23.8613L323.496 26.2133ZM343.32 11.9813C343.064 11.9813 342.864 11.9333 342.72 11.8373C342.576 11.7253 342.504 11.5813 342.504 11.4053C342.504 11.2773 342.56 11.1013 342.672 10.8773L343.68 8.88532H346.008L345.456 10.1093H351.768L351.48 11.9813H348.648C348.568 12.4453 348.432 12.9973 348.24 13.6373H351.816L351.576 15.5333H347.592C348.888 16.2213 350.2 17.0613 351.528 18.0533L349.992 19.3973C349.016 18.6773 348.392 18.2053 348.12 17.9813C347.56 17.5813 347.04 17.2293 346.56 16.9253C345.568 18.2373 344.272 19.3653 342.672 20.3093L340.848 18.9653C341.824 18.4213 342.648 17.8773 343.32 17.3333C343.992 16.7893 344.552 16.1893 345 15.5333H341.496L341.736 13.6373H345.984C346.192 13.0933 346.344 12.5413 346.44 11.9813H343.32ZM360.192 18.7013H351.864L352.752 11.5493C352.816 11.0373 353.008 10.6373 353.328 10.3493C353.648 10.0613 354.064 9.91732 354.576 9.91732H359.424C359.952 9.91732 360.376 10.1013 360.696 10.4693C361.016 10.8213 361.136 11.2453 361.056 11.7413L360.192 18.7013ZM354.288 16.7813H358.248L358.776 11.8373H354.888L354.288 16.7813ZM357.768 29.3093H342.696L343.728 21.3413C343.792 20.8613 344 20.4693 344.352 20.1653C344.72 19.8613 345.16 19.7093 345.672 19.7093H356.952C357.48 19.7093 357.896 19.8453 358.2 20.1173C358.504 20.3893 358.656 20.7653 358.656 21.2453C358.656 21.4053 358.648 21.5253 358.632 21.6053L357.768 29.3093ZM356.304 21.7253H345.96L345.72 23.5493H356.088L356.304 21.7253ZM345.264 27.2933H355.68L355.872 25.4693H345.48L345.264 27.2933ZM375.936 8.71732C375.872 9.30932 375.816 9.72532 375.768 9.96532L375.456 12.4853H382.032C382.784 12.4853 383.328 12.6453 383.664 12.9653C384.016 13.2853 384.192 13.7813 384.192 14.4533C384.192 14.6933 384.184 14.8773 384.168 15.0053C384.024 16.6693 383.776 18.7413 383.424 21.2213C383.184 22.9653 382.832 25.0693 382.368 27.5333C382.256 28.1253 382 28.5653 381.6 28.8533C381.216 29.1573 380.712 29.3093 380.088 29.3093C379.864 29.3093 379.616 29.2853 379.344 29.2373C377.632 28.9333 376.112 28.5093 374.784 27.9653L375.048 25.5173C376.648 26.0773 378.064 26.4853 379.296 26.7413C379.36 26.7573 379.448 26.7653 379.56 26.7653C379.72 26.7653 379.84 26.7173 379.92 26.6213C380.016 26.5253 380.088 26.3573 380.136 26.1173C380.856 22.3413 381.352 18.5733 381.624 14.8133H375.144C374.648 17.9013 373.792 20.5653 372.576 22.8053C371.28 25.2373 369.464 27.4773 367.128 29.5253L364.776 28.4213C367.24 26.2453 369.096 24.0453 370.344 21.8213C370.936 20.7813 371.416 19.6933 371.784 18.5573C372.152 17.4213 372.456 16.1733 372.696 14.8133H366.648L366.912 12.4853H373.032C373.096 11.9253 373.152 11.4773 373.2 11.1413L373.32 9.91732L373.464 8.71732H375.936Z" fill="url(#paint4_linear_4149_15342)"/>
<g clip-path="url(#clip3_4149_15342)">
<path d="M402.623 26.7907C404.076 26.8821 404.747 27.6243 404.538 28.1629C404.327 28.7024 402.846 30.0584 400.357 30.4181C397.87 30.7807 395.406 30.616 394.467 30.616C393.527 30.616 392.418 30.4828 392.991 29.9918C394.323 28.907 395.836 28.0696 397.462 27.5149C399.643 26.7917 401.171 26.6994 402.623 26.7917V26.7907ZM407.794 20.3372C407.695 20.9643 407.043 22.5658 405.162 23.7838C403.633 24.7675 401.934 25.4568 400.152 25.8163C398.804 26.1018 397.53 26.4891 397.952 25.6983C398.374 24.9085 399.801 22.9455 401.864 21.5666C403.925 20.1869 405.014 20.0261 405.931 19.8329C406.848 19.6397 407.894 19.7082 407.794 20.3372ZM407.161 13.8371C407.916 13.8371 407.867 14.5365 407.663 15.135C407.462 15.7345 406.596 17.5177 405.1 18.6016C404.103 19.3228 402.839 19.9509 401.311 20.4809C401.651 18.5397 402.382 17.0153 403.503 15.9039C405.183 14.2358 406.403 13.8371 407.161 13.8371ZM403.764 8.65865C404.008 8.63391 404.253 8.69576 404.457 8.83374C404.65 8.97077 404.772 9.16679 404.799 9.38375L404.83 9.693C404.913 10.6928 404.759 11.698 404.379 12.6267C403.799 14.0493 402.927 15.1788 401.768 16.0085C401.569 15.3928 401.428 14.7598 401.347 14.1178C401.27 13.3632 401.27 12.6809 401.768 10.9586C401.99 10.1916 402.472 9.49984 403.209 8.88132C403.367 8.75275 403.561 8.67511 403.764 8.65865Z" fill="url(#paint5_linear_4149_15342)"/>
</g>
<g clip-path="url(#clip4_4149_15342)">
<path d="M448.044 26.7907C446.591 26.8821 445.92 27.6243 446.129 28.1629C446.34 28.7024 447.821 30.0584 450.31 30.4181C452.797 30.7807 455.261 30.616 456.2 30.616C457.14 30.616 458.249 30.4828 457.676 29.9918C456.344 28.907 454.831 28.0696 453.205 27.5149C451.023 26.7917 449.496 26.6994 448.044 26.7917V26.7907ZM442.873 20.3372C442.972 20.9643 443.624 22.5658 445.505 23.7838C447.034 24.7675 448.733 25.4568 450.515 25.8163C451.863 26.1018 453.137 26.4891 452.715 25.6983C452.293 24.9085 450.866 22.9455 448.803 21.5666C446.742 20.1869 445.653 20.0261 444.736 19.8329C443.819 19.6397 442.773 19.7082 442.873 20.3372ZM443.506 13.8371C442.751 13.8371 442.8 14.5365 443.004 15.135C443.205 15.7345 444.071 17.5177 445.567 18.6016C446.564 19.3228 447.828 19.9509 449.356 20.4809C449.016 18.5397 448.285 17.0153 447.164 15.9039C445.484 14.2358 444.264 13.8371 443.506 13.8371ZM446.903 8.65865C446.659 8.63391 446.414 8.69576 446.21 8.83374C446.017 8.97077 445.895 9.16679 445.868 9.38375L445.837 9.693C445.753 10.6928 445.908 11.698 446.288 12.6267C446.868 14.0493 447.74 15.1788 448.899 16.0085C449.098 15.3928 449.239 14.7598 449.32 14.1178C449.397 13.3632 449.397 12.6809 448.899 10.9586C448.677 10.1916 448.195 9.49984 447.458 8.88132C447.3 8.75275 447.106 8.67511 446.903 8.65865Z" fill="url(#paint6_linear_4149_15342)"/>
</g>
<path d="M479.987 20.7173C480.643 22.2053 481.435 23.5653 482.363 24.7973C483.291 26.0133 484.403 27.2133 485.699 28.3973L483.539 29.5493C481.155 27.1333 479.403 24.6453 478.283 22.0853C477.627 23.5413 476.819 24.8933 475.859 26.1413C474.899 27.3893 473.867 28.4373 472.763 29.2853L470.411 28.3013C471.867 27.1493 473.091 25.9653 474.083 24.7493C475.075 23.5173 475.859 22.1733 476.435 20.7173H472.907L473.147 18.5093H477.107C477.235 18.0933 477.339 17.4933 477.419 16.7093L477.731 13.9733H474.371L474.611 11.8133H477.971L478.355 8.64532H480.731L480.347 11.8133H483.083C483.771 11.8133 484.275 11.9893 484.595 12.3413C484.915 12.6773 485.075 13.1413 485.075 13.7333C485.075 13.8613 485.059 14.0533 485.027 14.3093L484.475 18.5093H486.131L485.867 20.7173H479.987ZM471.875 8.69332L469.427 29.3813H467.195L469.595 8.69332H471.875ZM467.075 19.9973H465.107L466.427 13.2053H468.323L467.075 19.9973ZM473.531 13.2773L474.011 17.7173H472.139L471.755 13.2773H473.531ZM479.675 17.3573C479.627 17.7413 479.555 18.1253 479.459 18.5093H482.147L482.747 13.9733H480.083L479.675 17.3573ZM510.227 10.4693L509.987 12.4373H504.683L504.515 13.8773H507.683C508.947 13.8773 509.507 14.5493 509.363 15.8933L508.859 20.1653H503.939C505.939 21.2853 507.875 22.5253 509.747 23.8853L508.163 25.4933C506.307 23.9893 504.771 22.8293 503.555 22.0133L503.051 26.3813L500.939 26.3573L501.443 22.0373C499.875 23.4133 498.235 24.5733 496.523 25.5173L494.843 24.1253C497.115 22.8933 499.091 21.5733 500.771 20.1653H496.571L497.147 15.3653C497.275 14.3733 497.859 13.8773 498.899 13.8773H502.403L502.571 12.4373H497.099L497.339 10.4693H502.811L503.027 8.66932L505.139 8.69332L504.923 10.4693H510.227ZM491.507 9.17332L495.875 11.1653L495.611 13.6133L491.219 11.6213L491.507 9.17332ZM509.963 27.0293L509.267 29.1413H499.019C497.659 29.1413 496.451 28.8693 495.395 28.3253C494.547 27.8933 493.811 27.3253 493.187 26.6213C492.739 27.7253 492.115 28.7013 491.315 29.5493L488.963 28.8773C489.811 27.9973 490.451 27.1493 490.883 26.3333C491.331 25.5173 491.619 24.5973 491.747 23.5733L492.491 17.1893H489.779L490.043 15.0773H493.451C493.899 15.0773 494.235 15.2133 494.459 15.4853C494.699 15.7413 494.819 16.1093 494.819 16.5893C494.819 16.7813 494.811 16.9333 494.795 17.0453L493.931 23.8373C493.915 23.8693 493.907 23.9333 493.907 24.0293C494.419 24.8453 495.091 25.5013 495.923 25.9973C496.995 26.6853 498.315 27.0293 499.883 27.0293H509.963ZM502.187 15.7973H499.187L498.947 18.2453H501.899L502.187 15.7973ZM506.939 18.2453L507.203 15.7973H504.299L504.011 18.2453H506.939ZM515.435 18.7733L515.675 16.7333H529.379L529.571 15.1253H516.923L517.211 13.1093H529.835L530.051 11.5253H516.539L516.779 9.46132H530.387C531.107 9.46132 531.643 9.64532 531.995 10.0133C532.347 10.3653 532.483 10.8853 532.403 11.5733L531.515 18.7733H515.435ZM531.707 29.7413C529.819 28.8933 528.283 28.0533 527.099 27.2213C525.723 26.2613 524.507 25.1413 523.451 23.8613C522.539 25.2213 521.259 26.3893 519.611 27.3653C518.267 28.1653 516.563 28.9573 514.499 29.7413L512.843 28.0613C514.411 27.4213 515.651 26.8933 516.563 26.4773C517.475 26.0453 518.315 25.5653 519.083 25.0373C519.979 24.4293 520.715 23.7493 521.291 22.9973C521.883 22.2293 522.291 21.3493 522.515 20.3573L522.683 19.3253H525.107L524.891 20.4053C524.763 20.9493 524.627 21.4053 524.483 21.7733C525.619 23.2613 526.891 24.4613 528.299 25.3733C528.987 25.8213 529.747 26.2373 530.579 26.6213C531.427 26.9893 532.427 27.3813 533.579 27.7973L531.707 29.7413ZM530.075 20.0213H532.427L529.787 23.9093H527.339L530.075 20.0213ZM519.683 23.9093H517.307L515.147 20.1893H517.427L519.683 23.9093ZM539.675 9.12532L544.187 11.5253L543.875 13.9733L539.387 11.5013L539.675 9.12532ZM558.131 15.3173L557.891 17.3813H551.987L551.675 20.2613H554.627C555.331 20.2613 555.835 20.4053 556.139 20.6933C556.459 20.9813 556.619 21.4293 556.619 22.0373C556.619 22.2613 556.611 22.4293 556.595 22.5413L555.779 28.9013H543.659L544.451 22.3973C544.547 21.5973 544.747 21.0453 545.051 20.7413C545.371 20.4213 545.907 20.2613 546.659 20.2613H549.347L549.659 17.3813H543.947L544.211 15.3173H549.899L550.235 12.1733C548.603 12.3013 546.931 12.3973 545.219 12.4613L545.483 10.4213C549.211 10.2453 553.259 9.91732 557.627 9.43732L557.339 11.5733C555.723 11.7493 554.139 11.8933 552.587 12.0053L552.227 15.3173H558.131ZM538.499 14.1173L542.939 16.5173L542.651 18.9413L538.115 16.4933L538.499 14.1173ZM542.795 20.5973C542.411 21.8293 541.883 23.3413 541.211 25.1333C540.587 26.7493 540.051 28.0933 539.603 29.1653H537.035C538.219 26.4293 539.355 23.5733 540.443 20.5973H542.795ZM546.155 26.8853H553.763L554.363 22.2773H546.707L546.155 26.8853ZM566.099 18.0053C565.827 20.3093 565.435 22.4053 564.923 24.2933C564.427 26.1493 563.787 27.8853 563.003 29.5013L560.579 28.9253C561.395 27.3573 562.051 25.6693 562.547 23.8613C562.979 22.3253 563.347 20.4373 563.651 18.1973L564.371 12.6533C564.451 11.9653 564.651 11.4693 564.971 11.1653C565.291 10.8613 565.779 10.7093 566.435 10.7093H572.723L572.075 8.64532H574.619L575.339 10.7093H582.395L582.107 12.9173H566.771L566.099 18.0053ZM581.819 26.5733L581.555 28.7333H565.571L565.835 26.5733H575.195C576.843 22.7013 578.211 18.7893 579.299 14.8373H581.771C580.411 19.1733 578.995 23.0853 577.523 26.5733H581.819ZM572.771 14.9333H574.907L575.411 24.5333H573.251L572.771 14.9333ZM567.899 14.9573H569.987L571.019 24.5813H568.883L567.899 14.9573ZM588.251 11.2373C588.331 10.5493 588.539 10.0533 588.875 9.74932C589.211 9.44532 589.739 9.29332 590.459 9.29332H603.491C604.883 9.29332 605.579 9.92532 605.579 11.1893C605.579 11.3813 605.571 11.5333 605.555 11.6453L603.683 27.1973C603.571 27.9013 603.339 28.4133 602.987 28.7333C602.651 29.0533 602.179 29.2133 601.571 29.2133C601.107 29.2133 600.571 29.1653 599.963 29.0693C599.371 28.9733 598.859 28.8613 598.427 28.7333L598.667 26.5013C599.467 26.7093 600.131 26.8453 600.659 26.9093C600.739 26.9253 600.835 26.9333 600.947 26.9333C601.091 26.9333 601.187 26.8853 601.235 26.7893C601.299 26.6933 601.347 26.5093 601.379 26.2373L601.787 22.5413H596.627L595.859 28.8293H593.483L594.251 22.5413H589.235C588.995 23.9333 588.691 25.1893 588.323 26.3093C587.955 27.4293 587.483 28.4533 586.907 29.3813L584.531 28.6133C585.315 27.3493 585.899 26.0853 586.283 24.8213C586.683 23.5093 586.979 22.0133 587.171 20.3333L588.251 11.2373ZM595.619 11.4533H590.723L590.267 14.9333H595.187L595.619 11.4533ZM602.651 14.9333L603.059 11.4533H597.995L597.563 14.9333H602.651ZM594.923 17.0213H589.979L589.547 20.4293H594.515L594.923 17.0213ZM602.411 17.0213H597.299L596.891 20.4293H602.027L602.411 17.0213Z" fill="url(#paint7_linear_4149_15342)"/>
<g clip-path="url(#clip5_4149_15342)">
<path d="M623.29 26.7907C624.743 26.8821 625.414 27.6243 625.205 28.1629C624.994 28.7024 623.513 30.0584 621.024 30.4181C618.537 30.7807 616.073 30.616 615.134 30.616C614.194 30.616 613.085 30.4828 613.658 29.9918C614.99 28.907 616.503 28.0696 618.129 27.5149C620.31 26.7917 621.838 26.6994 623.29 26.7917V26.7907ZM628.461 20.3372C628.362 20.9643 627.71 22.5658 625.829 23.7838C624.3 24.7675 622.601 25.4568 620.819 25.8163C619.471 26.1018 618.197 26.4891 618.619 25.6983C619.041 24.9085 620.468 22.9455 622.531 21.5666C624.592 20.1869 625.681 20.0261 626.598 19.8329C627.515 19.6397 628.561 19.7082 628.461 20.3372ZM627.828 13.8371C628.583 13.8371 628.534 14.5365 628.33 15.135C628.129 15.7345 627.263 17.5177 625.767 18.6016C624.77 19.3228 623.506 19.9509 621.978 20.4809C622.318 18.5397 623.049 17.0153 624.17 15.9039C625.85 14.2358 627.07 13.8371 627.828 13.8371ZM624.431 8.65865C624.675 8.63391 624.92 8.69576 625.124 8.83374C625.317 8.97077 625.439 9.16679 625.466 9.38375L625.497 9.693C625.58 10.6928 625.426 11.698 625.046 12.6267C624.466 14.0493 623.594 15.1788 622.435 16.0085C622.236 15.3928 622.095 14.7598 622.014 14.1178C621.937 13.3632 621.937 12.6809 622.435 10.9586C622.657 10.1916 623.139 9.49984 623.876 8.88132C624.034 8.75275 624.228 8.67511 624.431 8.65865Z" fill="url(#paint8_linear_4149_15342)"/>
</g>
<defs>
<linearGradient id="paint0_linear_4149_15342" x1="11.9164" y1="30.6533" x2="18.1687" y2="15.5164" gradientUnits="userSpaceOnUse">
<stop stop-color="#94B1D2"/>
<stop offset="1" stop-color="#4574A8"/>
</linearGradient>
<linearGradient id="paint1_linear_4149_15342" x1="22.3335" y1="11.6617" x2="166.668" y2="16.2256" gradientUnits="userSpaceOnUse">
<stop stop-color="#88A8CA"/>
<stop offset="1" stop-color="#456E9A"/>
</linearGradient>
<linearGradient id="paint2_linear_4149_15342" x1="176.751" y1="30.6533" x2="170.498" y2="15.5164" gradientUnits="userSpaceOnUse">
<stop stop-color="#94B1D2"/>
<stop offset="1" stop-color="#4574A8"/>
</linearGradient>
<linearGradient id="paint3_linear_4149_15342" x1="232.583" y1="30.6533" x2="238.835" y2="15.5164" gradientUnits="userSpaceOnUse">
<stop stop-color="#94B1D2"/>
<stop offset="1" stop-color="#4574A8"/>
</linearGradient>
<linearGradient id="paint4_linear_4149_15342" x1="243" y1="11.6617" x2="387.335" y2="16.2256" gradientUnits="userSpaceOnUse">
<stop stop-color="#88A8CA"/>
<stop offset="1" stop-color="#456E9A"/>
</linearGradient>
<linearGradient id="paint5_linear_4149_15342" x1="397.417" y1="30.6533" x2="391.165" y2="15.5164" gradientUnits="userSpaceOnUse">
<stop stop-color="#94B1D2"/>
<stop offset="1" stop-color="#4574A8"/>
</linearGradient>
<linearGradient id="paint6_linear_4149_15342" x1="453.25" y1="30.6533" x2="459.502" y2="15.5164" gradientUnits="userSpaceOnUse">
<stop stop-color="#94B1D2"/>
<stop offset="1" stop-color="#4574A8"/>
</linearGradient>
<linearGradient id="paint7_linear_4149_15342" x1="463.667" y1="11.6617" x2="608.002" y2="16.2256" gradientUnits="userSpaceOnUse">
<stop stop-color="#88A8CA"/>
<stop offset="1" stop-color="#456E9A"/>
</linearGradient>
<linearGradient id="paint8_linear_4149_15342" x1="618.084" y1="30.6533" x2="611.832" y2="15.5164" gradientUnits="userSpaceOnUse">
<stop stop-color="#94B1D2"/>
<stop offset="1" stop-color="#4574A8"/>
</linearGradient>
<clipPath id="clip0_4149_15342">
<rect width="18.3333" height="22" fill="white" transform="matrix(-1 0 0 1 18.3335 8.65332)"/>
</clipPath>
<clipPath id="clip1_4149_15342">
<rect width="18.3333" height="22" fill="white" transform="translate(170.333 8.65332)"/>
</clipPath>
<clipPath id="clip2_4149_15342">
<rect width="18.3333" height="22" fill="white" transform="matrix(-1 0 0 1 239 8.65332)"/>
</clipPath>
<clipPath id="clip3_4149_15342">
<rect width="18.3333" height="22" fill="white" transform="translate(391 8.65332)"/>
</clipPath>
<clipPath id="clip4_4149_15342">
<rect width="18.3333" height="22" fill="white" transform="matrix(-1 0 0 1 459.667 8.65332)"/>
</clipPath>
<clipPath id="clip5_4149_15342">
<rect width="18.3333" height="22" fill="white" transform="translate(611.667 8.65332)"/>
</clipPath>
</defs>
</svg>